<?xml version="1.0" encoding="utf-8"?>
<!-- Generator: Adobe Illustrator 18.1.1, SVG Export Plug-In . SVG Version: 6.00 Build 0)  -->
<svg version="1.1" id="Layer_1" xmlns="http://www.w3.org/2000/svg" xmlns:xlink="http://www.w3.org/1999/xlink" x="0px" y="0px"
	 viewBox="0 0 144 195.3" enable-background="new 0 0 144 195.3" xml:space="preserve">
<g>
	<g>
		<g>
			<path fill="#231F20" d="M185.5-373.9c2.4,0,5,0,7.5,0c5.1,0,24.3,0,26.7,0c2.7,0,5.2,2.2,5.2,5.2v-0.7c0,0,0-0.9,0-2.2
				c0-3-2.4-5.2-5.2-5.2c-2.2,0-20.2,0-26.2,0l0,0c-0.2,0-0.3,0-0.5,0c-0.3,0-0.6,0-0.8,0v0c-2.4,0-4.7,0-6.7,0
				c-2.8,0-4.6,2.2-4.6,5.2c0,1.3,0,2.2,0,2.2v0.7C180.9-371.7,182.7-373.9,185.5-373.9z"/>
			<path fill="#231F20" d="M224.9-361.7c0,3-2.5,5.2-5.2,5.2c-4.1,0-19.2,0-23.3,0c-2.8,0-5.2,2.2-5.2,5.2c0-3-2.5-5.2-5.2-5.2v0
				c-2.8,0-5.1-2.2-5.1-5.2v0.7c0,0,0,0.9,0,2.2c0,3,2.3,5.2,5.1,5.2l0,0c4.1,0,5.1,3.2,5.2,6.1h0c0.2-2.8,1.3-6.1,5.2-6.1
				c4.1,0,19.2,0,23.3,0c2.8,0,5.2-2.2,5.2-5.2c0-1.3,0-2.2,0-2.2L224.9-361.7z"/>
			<circle fill="#231F20" cx="194.2" cy="-365" r="2.1"/>
			<circle fill="#231F20" cx="202.6" cy="-365" r="2.1"/>
			<circle fill="#231F20" cx="210.9" cy="-365" r="2.1"/>
		</g>
		<rect x="178" y="-386.7" fill="none" stroke="#27AAE1" stroke-width="0.5" stroke-miterlimit="10" width="48.1" height="49"/>
	</g>
	<g>
		<g>
			<path d="M250.6-357.9l8.1-8.1C254.5-365.5,251.1-362.1,250.6-357.9z"/>
			<path d="M269.1-356.8c0-4.9-3.8-8.9-8.6-9.2v-10.8h-21.4v29.3h21.4v0C265.3-347.9,269.1-351.9,269.1-356.8z M257.1-349.2h-1.5
				l3.2-3.2v1.5L257.1-349.2z M258.8-375.2v2.4c0,1.1-0.9,2-2,2c-1.5,0-3.6,0-5.1,0c-1,0-2,0.8-2,2c0-1.1-0.9-2-2-2
				c-1.5,0-3.6,0-5.1,0c-0.9,0-1.7-0.6-1.9-1.5v-2.9H258.8z M240.7-370.8c0.2,0.9,1,1.5,1.9,1.5c1.5,0,3.6,0,5.1,0c1,0,2,0.8,2,2
				c0-1.1,0.9-2,2-2c1.5,0,3.6,0,5.1,0c1,0,2-0.8,2-2v6.8l-8.2,8.2c0,0.9,0.2,1.7,0.5,2.5l7.7-7.7v1.5l-7.3,7.3
				c0.3,0.7,0.7,1.3,1.2,1.8l6.1-6.1v1.5l-5.3,5.3c0.3,0.3,0.7,0.6,1.1,0.9h-13.8V-370.8z"/>
		</g>
		<rect x="226.1" y="-386.7" fill="none" stroke="#27AAE1" stroke-width="0.5" stroke-miterlimit="10" width="48.1" height="49"/>
	</g>
	<g>
		<path d="M297.8-377c0.3,0,0.6,0,0.9,0c0,0,0.1,0,0.1,0c0.4,0,0.8,0.1,1.3,0.1c0.9,0.1,1.8,0.3,2.7,0.6c2.2,0.7,4.2,1.9,5.8,3.5
			c1.7,1.6,2.9,3.6,3.7,5.8c0.4,1.2,0.7,2.4,0.8,3.6c0,0.2,0,0.3,0.1,0.5c0,0.5,0,1,0,1.5c0,0,0,0.1,0,0.1c-0.1,0.6-0.1,1.2-0.2,1.7
			c-0.3,1.8-1,3.5-1.9,5c-1.3,2.2-3.1,3.9-5.4,5.2c-2.1,1.2-4.3,1.8-6.7,1.9c-0.8,0-1.6,0-2.4-0.1c-1.1-0.1-2.2-0.4-3.3-0.8
			c-1.7-0.6-3.3-1.6-4.6-2.8c-1.7-1.5-3-3.3-3.9-5.4c-0.6-1.5-1-3.1-1.1-4.7c-0.1-1.1,0-2.2,0.1-3.2c0.2-1.2,0.5-2.3,1-3.4
			c0.9-2.1,2.2-3.9,3.9-5.4c1.2-1.1,2.6-2,4.2-2.6c1.4-0.6,2.9-1,4.5-1.1C297.4-376.9,297.6-376.9,297.8-377z M298.7-361.7
			c0,2.1,0,4.2,0,6.4c0.1,0,0.1,0,0.2,0c2.1,0,4.2,0,6.4,0c0.1,0,0.2,0,0.2-0.2c0.7-2,1-4,1.1-6.1c0,0,0-0.1,0-0.1
			C303.9-361.7,301.3-361.7,298.7-361.7z M289.8-361.7c0,0.1,0,0.1,0,0.2c0,1,0.1,2.1,0.3,3.1c0.2,1,0.4,2,0.8,3
			c0,0.1,0.1,0.1,0.2,0.1c2.1,0,4.1,0,6.2,0c0,0,0.1,0,0.2,0c0-2.1,0-4.2,0.1-6.3C294.9-361.7,292.4-361.7,289.8-361.7z
			 M298.8-368.9c0,2,0,4,0,5.9c2.6,0,5.2,0,7.7,0c0-0.1,0-0.1,0-0.2c-0.1-0.7-0.1-1.3-0.2-2c-0.1-1.2-0.4-2.4-0.8-3.6
			c0-0.1-0.1-0.2-0.2-0.2c-2.1,0-4.2,0-6.4,0C298.9-368.9,298.8-368.9,298.8-368.9z M297.6-368.9c-0.1,0-0.1,0-0.1,0
			c-2.1,0-4.3,0-6.4,0c-0.1,0-0.2,0-0.2,0.1c-0.2,0.8-0.5,1.6-0.6,2.4c-0.2,0.8-0.3,1.7-0.4,2.6c0,0.3,0,0.6,0,0.8
			c2.6,0,5.1,0,7.7,0C297.5-364.9,297.5-366.9,297.6-368.9z M306.7-355.4C306.7-355.4,306.7-355.4,306.7-355.4c1.1,0,2.2,0,3.3,0
			c0.1,0,0.1-0.1,0.2-0.1c0.1-0.3,0.3-0.5,0.4-0.8c0.7-1.5,1.1-3.1,1.3-4.8c0-0.2,0-0.5,0-0.7c-1.4,0-2.7,0-4.1,0
			C307.7-359.6,307.4-357.5,306.7-355.4z M297.6-375.7c-0.2,0-0.4,0.1-0.6,0.1c-1.2,0.3-2.2,0.9-3.1,1.8c-0.9,0.9-1.6,1.9-2.1,2.9
			c-0.1,0.3-0.3,0.5-0.4,0.8c2.1,0,4.1,0,6.2,0C297.6-372,297.6-373.8,297.6-375.7z M298.6-348.7c0,0,0.1,0,0.1,0c0.1,0,0.2,0,0.3,0
			c1.2-0.2,2.2-0.8,3-1.5c1.2-1.1,2.1-2.4,2.8-3.9c0,0,0-0.1,0-0.1c-2.1,0-4.1,0-6.2,0C298.6-352.3,298.6-350.5,298.6-348.7z
			 M304.9-370.1c0-0.1,0-0.1-0.1-0.2c-0.2-0.4-0.3-0.7-0.5-1.1c-0.6-1.1-1.4-2.1-2.4-2.9c-0.7-0.6-1.6-1.1-2.5-1.3
			c-0.2-0.1-0.4-0.1-0.6-0.1c0,1.9,0,3.8,0,5.6C300.8-370.1,302.9-370.1,304.9-370.1z M288.6-361.7c-1.3,0-2.6,0-3.9,0
			c0,0.1,0,0.2,0,0.3c0.1,0.5,0.1,1,0.2,1.5c0.3,1.6,0.8,3.1,1.6,4.5c0.1,0.1,0.1,0.1,0.2,0.1c0.7,0,1.4,0,2.1,0c0.3,0,0.6,0,0.9,0
			C289-357.4,288.7-359.5,288.6-361.7z M311.8-363c-0.1-0.5-0.1-1-0.2-1.5c-0.3-1.5-0.8-2.9-1.5-4.3c0-0.1-0.1-0.1-0.2-0.1
			c-1,0-2,0-3.1,0c0,0-0.1,0-0.1,0c0,0,0,0.1,0,0.1c0.6,1.9,0.9,3.7,1,5.7c0,0.1,0.1,0.1,0.2,0.1c1.3,0,2.5,0,3.8,0
			C311.7-363,311.7-363,311.8-363z M291.5-354.1C291.5-354.1,291.5-354.1,291.5-354.1c0.7,1.5,1.6,2.9,2.8,3.9
			c0.8,0.7,1.7,1.2,2.7,1.4c0.1,0,0.3,0.1,0.5,0.1c0-1.8,0-3.7,0-5.5C295.4-354.1,293.5-354.1,291.5-354.1z M288.6-362.9
			c0.1-2,0.4-4,1-5.9c-0.1,0-0.1,0-0.1,0c-1,0-2,0-2.9,0c-0.1,0-0.1,0-0.2,0.1c-0.2,0.5-0.5,0.9-0.6,1.4c-0.5,1.1-0.8,2.2-0.9,3.4
			c0,0.3-0.1,0.7-0.1,1C286-362.9,287.3-362.9,288.6-362.9z M309.2-370.1c-1.6-2.2-3.6-3.7-6.1-4.7c0.3,0.3,0.6,0.6,0.9,1
			c0.9,1.1,1.6,2.3,2.2,3.7c0,0.1,0.1,0.1,0.2,0.1c0.9,0,1.8,0,2.7,0C309.2-370.1,309.2-370.1,309.2-370.1z M303.2-349.5
			c2.5-1,4.5-2.5,6.1-4.7c-0.1,0-0.2,0-0.2,0c-0.9,0-1.8,0-2.6,0c-0.1,0-0.2,0-0.2,0.2c-0.5,1.2-1.2,2.4-2,3.4
			C303.9-350.3,303.5-349.9,303.2-349.5z M293-374.7c-1.6,0.4-5.2,3.3-5.8,4.6c0.1,0,0.1,0,0.1,0c0.8,0,1.6,0,2.5,0
			c0.1,0,0.2,0,0.3-0.2c0.6-1.5,1.4-2.8,2.4-4C292.7-374.3,292.9-374.5,293-374.7z M293-349.7c-0.3-0.3-0.5-0.6-0.8-0.8
			c-0.9-1-1.6-2.2-2.1-3.5c0-0.1-0.1-0.2-0.2-0.2c-0.8,0-1.6,0-2.4,0c0,0-0.1,0-0.2,0C288.9-352.1,290.8-350.7,293-349.7z"/>
		<rect x="274.2" y="-386.7" fill="none" stroke="#27AAE1" stroke-width="0.5" stroke-miterlimit="10" width="48.1" height="49"/>
	</g>
</g>
<g>
	<g>
		<g>
			<path d="M269.8-418.1c0.6,0,1.1-0.5,1.1-1.1c0-0.4-0.2-0.7-0.4-0.9c0.4-1.7,1.9-3,3.8-3c2.1,0,3.9,1.7,3.9,3.9
				c0,2.1-1.7,3.9-3.9,3.9h-0.7v3.7h1.4v-2.4c2.6-0.3,4.5-2.5,4.5-5.2c0-2.9-2.3-5.2-5.2-5.2c-2.6,0-4.7,1.9-5.1,4.4
				c-0.3,0.2-0.4,0.5-0.4,0.9C268.6-418.6,269.1-418.1,269.8-418.1z"/>
			<path d="M250.3-397.9c0.4-2.6,2.7-3.6,5.3-3.6c4.2,0,8.3,0,12.5,0c2.7,0,5.2-2.1,5.4-5h1.4c0.2,2.9,2.6,5,5.4,5
				c4.2,0,8.3,0,12.5,0c2.6,0,5,1,5.3,3.6h0.1c0-0.5,0-1.2,0-2c0-3.1-2.5-5.4-5.4-5.4c-4.2,0-8.3,0-12.5,0c-2.7,0-5.1-2-5.4-4.8
				l0-0.5h-1.3l0,0c0,3.1-2.5,5.4-5.4,5.4c-4.2,0-8.3,0-12.5,0c-2.9,0-5.4,2.3-5.4,5.4C250.3-399.1,250.3-398.4,250.3-397.9
				L250.3-397.9z"/>
		</g>
		<rect x="250.1" y="-435.7" fill="none" stroke="#27AAE1" stroke-width="0.5" stroke-miterlimit="10" width="48.1" height="49"/>
	</g>
	<g>
		<g>
			<path d="M231.5-411c0,1.3,1.1,2.4,2.4,2.4c1.3,0,2.4-1.1,2.4-2.4c0-1.3-1.1-2.3-2.3-2.3C232.6-413.3,231.5-412.3,231.5-411z"/>
			<path d="M218.3-408.6c1.3,0,2.4-1.1,2.3-2.4c0-1.3-1.1-2.4-2.4-2.4c-1.3,0-2.3,1.1-2.3,2.4C216-409.6,217-408.6,218.3-408.6z"/>
			<path d="M240.1-418c-0.2-0.2-0.4-0.2-0.7-0.1c-0.7,0.3-1.4,0.6-2.1,0.9c-0.4,0.1-0.8,0.2-1.2,0.3c0.2,0.1,0.3,0.1,0.4,0.2
				c2.2,1.1,3.5,2.9,3.7,5.4c0.2,2.8-1.5,5.3-4.1,6.3c-2.7,1.1-6.1-0.4-7.3-2.1c-1.6-2.2-1.5-5.3,0.2-7.6c1.4-1.8,3.3-2.8,5.5-3.5
				c1.5-0.4,3-0.9,4.4-1.6c1.7-0.8,2.8-2.2,3.3-3.9c0.1-0.4,0.2-0.8,0.3-1.3c0-0.1,0-0.2,0-0.3v-0.3h-0.5h-0.2v0.3v0
				c0,1.7-1.1,3-2.7,3.1c-0.1,0-0.2,0-0.3,0c-1,0-2.2-0.3-3.5-0.7c-0.7-0.3-1.4-0.6-2.2-1c-1.2-0.6-2.7-1.3-4.2-1.3
				c-1.1,0-2.1,0.4-2.8,1.3c-0.7-0.8-1.7-1.3-2.8-1.3c-1.5,0-2.9,0.7-4.2,1.3c-0.8,0.4-1.5,0.7-2.2,1c-1.3,0.5-2.5,0.8-3.5,0.8
				c-0.1,0-0.2,0-0.3,0c-1.6-0.1-2.7-1.4-2.7-3.1v0c-0.1-0.1-0.1-0.2-0.2-0.3h-0.5v0.3c0,0.1,0,0.2,0,0.3c0.1,0.4,0.1,0.9,0.3,1.2
				c0.6,2,2,3.5,4.2,4.4c1.2,0.5,2.5,0.8,3.8,1.2c1.8,0.5,3.3,1.4,4.6,2.7c1.6,1.7,2.3,3.6,1.8,5.9c-0.5,2.7-2.5,4.4-5.7,4.8
				c-2.5,0.3-5-1.1-6.1-3.5c-1.1-2.3-0.8-5.1,0.9-7c0.7-0.8,1.5-1.3,2.5-1.7c-0.2-0.1-0.3-0.1-0.4-0.1c-1-0.4-2-0.7-3-1.1
				c-0.3-0.1-0.5-0.1-0.8,0.1c-5.2,4.7-3.7,13.2,2.9,15.9c0.3,0.1,0.5,0.3,0.7,0.5c2.5,2.7,5.5,4.5,9.2,4.8
				c4.7,0.4,8.5-1.2,11.7-4.6c0.3-0.4,0.7-0.6,1.1-0.8C244-405,245.3-413.4,240.1-418z M226.1-399.4c-1-1.2-1.9-2.3-2.7-3.3
				c0.9-0.9,1.9-1.8,2.7-2.6c0.9,0.8,1.8,1.7,2.7,2.6C228-401.7,227-400.6,226.1-399.4z"/>
		</g>
		<rect x="202" y="-435.7" fill="none" stroke="#27AAE1" stroke-width="0.5" stroke-miterlimit="10" width="48.1" height="49"/>
	</g>
</g>
<g>
	<g>
		<path d="M305.8-441.6c0-5.8-4.6-10-10.4-10.3c-2.9-0.1-9.5,0.1-21.3,5.3c-6.4,2.8-17.3,7.4-23.9-0.5c-6.7,7.9-17.5,3.3-23.9,0.5
			c-11.7-5.2-18.4-5.4-21.3-5.3c-5.8,0.2-10.4,4.4-10.4,10.3H194c0-6.1,4.3-10.5,11.1-11c14.8-1.1,22.7,5.3,34.3,6
			c5.9,0.4,10.3-4.5,10.4-10.1h1c0,5.6,4.5,10.5,10.4,10.1c11.6-0.7,19.4-7.1,34.3-6c6.8,0.5,11.1,4.9,11.1,11H305.8z"/>
	</g>
	<g>
		
			<rect x="193.4" y="-462.5" fill="none" stroke="#27AAE1" stroke-width="0.5" stroke-miterlimit="10" width="113.5" height="26.8"/>
	</g>
</g>
<g>
	<g>
		<path d="M305.8-331.8c0,5.8-4.6,10-10.4,10.3c-2.9,0.1-9.5-0.1-21.3-5.3c-6.4-2.8-17.3-7.4-23.9,0.5c-6.7-7.9-17.5-3.3-23.9-0.5
			c-11.7,5.2-18.4,5.4-21.3,5.3c-5.8-0.2-10.4-4.4-10.4-10.3H194c0,6.1,4.3,10.5,11.1,11c14.8,1.1,22.7-5.3,34.3-6
			c5.9-0.4,10.3,4.5,10.4,10.1h1c0-5.6,4.5-10.5,10.4-10.1c11.6,0.7,19.4,7.1,34.3,6c6.8-0.5,11.1-4.9,11.1-11H305.8z"/>
	</g>
	<g>
		
			<rect x="193.4" y="-337.7" fill="none" stroke="#27AAE1" stroke-width="0.5" stroke-miterlimit="10" width="113.5" height="26.8"/>
	</g>
</g>
<g>
	<g>
		<path d="M271.9-271.5l-7.5-13.9c2.7,0,4.3-0.8,5.3-1.4c0.7-0.5,1.2-1.2,1.6-1.9c0,0,0.1-0.1,0.1-0.2c0.1-0.1,0.1-0.3,0.2-0.5
			c0.1-0.3,0.1-0.6,0.1-1c0-1.8-1.3-3.4-3-3.8c-0.3-0.1-0.6-0.1-0.9-0.1h0c-2.2,0-3.9,1.8-3.9,3.9c0,2.2,1.7,3.9,3.9,3.9
			c0.1,0,0.1,0,0.2,0c0.3,0,0.5,0,0.8-0.1c-1,0.5-2.3,0.9-4.3,0.9h-6.7v-16.1h0.9v-0.3h-7.8v0.3h0.9c0,22.6,0,29.3,0,30.3h-0.9v0.3
			h7.8v-0.3h-0.9v-14.2c0.3,0.5,6.4,11.6,7.5,14.2h-0.8v0.3h8.3v-0.3H271.9z"/>
		<g>
			<path d="M248.2-271.5v-16.8c0-5.4-3.5-7.7-6.6-8.1c-2.4-0.3-4.4-0.1-6.1,0.4c-2,0.5-4.1,1.5-5.3,3.2c-0.2,0.3-0.4,0.6-0.5,0.9
				c-0.2,0.5-0.3,1-0.3,1.5c0,0,0,0,0,0c0,0.3,0,0.5,0.1,0.8c0.4,1.8,1.9,3.1,3.8,3.1c0,0,0,0,0,0c2.2,0,3.9-1.7,3.9-3.9
				c0-0.1,0-0.3,0-0.4c-0.2-2-1.9-3.5-3.9-3.5c-0.7,0-1.4,0.2-2,0.6c0.8-0.7,2-1.5,3.9-2c3.3-0.7,7,1.3,7,5.3c0,2.5-1.3,4.5-3.6,5.3
				c-1.2,0.4-2.2,0.2-4.4,0.7c-3.7,0.9-6.3,3.2-6,7.1c0.3,3.6,3.3,6.5,7,6.5c0.1,0,0.3,0,0.3,0c3.6-0.1,6-2.6,6.7-5.3
				c0,2.2,0,4,0,4.4h-0.9v0.3h7.8v-0.3H248.2z M242.2-277.6c0,1.6-0.7,3.3-1.9,4.5c-0.1,0.1-0.2,0.2-0.3,0.3
				c-1.5,1.2-5.6,0.8-5.6-3.7c0-0.9,0-2.4,0-3.3c0-3.9,3.5-4.7,4.2-5.1c1.8-0.7,3.1-2.1,3.5-3.9
				C242.2-285.9,242.2-277.6,242.2-277.6z"/>
		</g>
	</g>
	<rect x="226.4" y="-310.9" fill="none" stroke="#27AAE1" stroke-width="0.5" stroke-miterlimit="10" width="48.1" height="49"/>
</g>
<g>
	<g>
		<path fill="#231F20" d="M222.3-594.4c2.4,0,5,0,7.5,0c5.1,0,24.3,0,26.7,0c2.7,0,5.2,2.2,5.2,5.2v-0.7c0,0,0-0.9,0-2.2
			c0-3-2.4-5.2-5.2-5.2c-2.2,0-20.2,0-26.2,0l0,0c-0.2,0-0.3,0-0.5,0c-0.3,0-0.6,0-0.8,0v0c-2.4,0-4.7,0-6.7,0
			c-2.8,0-4.6,2.2-4.6,5.2c0,1.3,0,2.2,0,2.2v0.7C217.6-592.2,219.5-594.4,222.3-594.4z"/>
		<path fill="#231F20" d="M261.6-582.2c0,3-2.5,5.2-5.2,5.2c-4.1,0-19.2,0-23.3,0c-2.8,0-5.2,2.2-5.2,5.2c0-3-2.5-5.2-5.2-5.2v0
			c-2.8,0-5.1-2.2-5.1-5.2v0.7c0,0,0,0.9,0,2.2c0,3,2.3,5.2,5.1,5.2l0,0c4.1,0,5.1,3.2,5.2,6.1h0c0.2-2.8,1.3-6.1,5.2-6.1
			c4.1,0,19.2,0,23.3,0c2.8,0,5.2-2.2,5.2-5.2c0-1.3,0-2.2,0-2.2L261.6-582.2z"/>
		<circle fill="#231F20" cx="231" cy="-585.5" r="2.1"/>
		<circle fill="#231F20" cx="239.4" cy="-585.5" r="2.1"/>
		<circle fill="#231F20" cx="247.7" cy="-585.5" r="2.1"/>
	</g>
	<rect x="214.7" y="-607.2" fill="none" stroke="#27AAE1" stroke-width="0.5" stroke-miterlimit="10" width="48.1" height="49"/>
</g>
<g>
	<g>
		<path d="M287.4-578.4l8.1-8.1C291.3-585.9,287.9-582.6,287.4-578.4z"/>
		<path d="M305.9-577.3c0-4.9-3.8-8.9-8.6-9.2v-10.8h-21.4v29.3h21.4v0C302-568.4,305.9-572.4,305.9-577.3z M293.9-569.7h-1.5
			l3.2-3.2v1.5L293.9-569.7z M295.6-595.7v2.4c0,1.1-0.9,2-2,2c-1.5,0-3.6,0-5.1,0c-1,0-2,0.8-2,2c0-1.1-0.9-2-2-2
			c-1.5,0-3.6,0-5.1,0c-0.9,0-1.7-0.6-1.9-1.5v-2.9H295.6z M277.5-591.3c0.2,0.9,1,1.5,1.9,1.5c1.5,0,3.6,0,5.1,0c1,0,2,0.8,2,2
			c0-1.1,0.9-2,2-2c1.5,0,3.6,0,5.1,0c1,0,2-0.8,2-2v6.8l-8.2,8.2c0,0.9,0.2,1.7,0.5,2.5l7.7-7.7v1.5l-7.3,7.3
			c0.3,0.7,0.7,1.3,1.2,1.8l6.1-6.1v1.5l-5.3,5.3c0.3,0.3,0.7,0.6,1.1,0.9h-13.8V-591.3z"/>
	</g>
	<rect x="262.9" y="-607.2" fill="none" stroke="#27AAE1" stroke-width="0.5" stroke-miterlimit="10" width="48.1" height="49"/>
</g>
<g>
	<path d="M334.6-597.4c0.3,0,0.6,0,0.9,0c0,0,0.1,0,0.1,0c0.4,0,0.8,0.1,1.3,0.1c0.9,0.1,1.8,0.3,2.7,0.6c2.2,0.7,4.2,1.9,5.8,3.5
		c1.7,1.6,2.9,3.6,3.7,5.8c0.4,1.2,0.7,2.4,0.8,3.6c0,0.2,0,0.3,0.1,0.5c0,0.5,0,1,0,1.5c0,0,0,0.1,0,0.1c-0.1,0.6-0.1,1.2-0.2,1.7
		c-0.3,1.8-1,3.5-1.9,5c-1.3,2.2-3.1,3.9-5.4,5.2c-2.1,1.2-4.3,1.8-6.7,1.9c-0.8,0-1.6,0-2.4-0.1c-1.1-0.1-2.2-0.4-3.3-0.8
		c-1.7-0.6-3.3-1.6-4.6-2.8c-1.7-1.5-3-3.3-3.9-5.4c-0.6-1.5-1-3.1-1.1-4.7c-0.1-1.1,0-2.2,0.1-3.2c0.2-1.2,0.5-2.3,1-3.4
		c0.9-2.1,2.2-3.9,3.9-5.4c1.2-1.1,2.6-2,4.2-2.6c1.4-0.6,2.9-1,4.5-1.1C334.1-597.4,334.4-597.4,334.6-597.4z M335.5-582.2
		c0,2.1,0,4.2,0,6.4c0.1,0,0.1,0,0.2,0c2.1,0,4.2,0,6.4,0c0.1,0,0.2,0,0.2-0.2c0.7-2,1-4,1.1-6.1c0,0,0-0.1,0-0.1
		C340.7-582.2,338.1-582.2,335.5-582.2z M326.6-582.2c0,0.1,0,0.1,0,0.2c0,1,0.1,2.1,0.3,3.1c0.2,1,0.4,2,0.8,3
		c0,0.1,0.1,0.1,0.2,0.1c2.1,0,4.1,0,6.2,0c0,0,0.1,0,0.2,0c0-2.1,0-4.2,0.1-6.3C331.7-582.2,329.2-582.2,326.6-582.2z M335.5-589.4
		c0,2,0,4,0,5.9c2.6,0,5.2,0,7.7,0c0-0.1,0-0.1,0-0.2c-0.1-0.7-0.1-1.3-0.2-2c-0.2-1.2-0.4-2.4-0.8-3.6c0-0.1-0.1-0.2-0.2-0.2
		c-2.1,0-4.2,0-6.4,0C335.6-589.4,335.6-589.4,335.5-589.4z M334.3-589.3c-0.1,0-0.1,0-0.1,0c-2.1,0-4.3,0-6.4,0
		c-0.1,0-0.2,0-0.2,0.1c-0.2,0.8-0.5,1.6-0.6,2.4c-0.2,0.8-0.3,1.7-0.4,2.6c0,0.3,0,0.6,0,0.8c2.6,0,5.1,0,7.7,0
		C334.3-585.4,334.3-587.4,334.3-589.3z M343.5-575.9C343.5-575.9,343.5-575.9,343.5-575.9c1.1,0,2.2,0,3.3,0c0.1,0,0.1,0,0.2-0.1
		c0.2-0.3,0.3-0.5,0.4-0.8c0.7-1.5,1.1-3.1,1.3-4.8c0-0.2,0-0.4,0-0.7c-1.4,0-2.7,0-4.1,0C344.5-580.1,344.1-578,343.5-575.9z
		 M334.4-596.2c-0.2,0-0.4,0.1-0.6,0.1c-1.2,0.3-2.2,0.9-3.1,1.8c-0.9,0.9-1.6,1.9-2.1,2.9c-0.1,0.3-0.3,0.5-0.4,0.8
		c2.1,0,4.1,0,6.2,0C334.4-592.4,334.4-594.3,334.4-596.2z M335.4-569.1c0,0,0.1,0,0.1,0c0.1,0,0.2,0,0.3,0c1.2-0.2,2.2-0.8,3-1.5
		c1.2-1.1,2.1-2.4,2.8-3.9c0,0,0-0.1,0-0.1c-2.1,0-4.1,0-6.2,0C335.4-572.8,335.4-571,335.4-569.1z M341.7-590.6
		c0-0.1,0-0.1-0.1-0.2c-0.2-0.4-0.3-0.7-0.5-1.1c-0.6-1.1-1.4-2.1-2.4-2.9c-0.7-0.6-1.6-1.1-2.5-1.3c-0.2-0.1-0.4-0.1-0.6-0.1
		c0,1.9,0,3.8,0,5.6C337.6-590.6,339.7-590.6,341.7-590.6z M325.4-582.2c-1.3,0-2.6,0-3.9,0c0,0.1,0,0.2,0,0.3
		c0.1,0.5,0.1,1,0.2,1.5c0.3,1.6,0.8,3.1,1.6,4.5c0,0.1,0.1,0.1,0.2,0.1c0.7,0,1.4,0,2.1,0c0.3,0,0.6,0,0.9,0
		C325.8-577.9,325.4-580,325.4-582.2z M348.6-583.5c-0.1-0.5-0.1-1-0.2-1.5c-0.3-1.5-0.8-2.9-1.5-4.3c-0.1-0.1-0.1-0.1-0.2-0.1
		c-1,0-2,0-3.1,0c0,0-0.1,0-0.1,0c0,0,0,0.1,0,0.1c0.6,1.9,0.9,3.7,1,5.7c0,0.1,0.1,0.1,0.2,0.1c1.3,0,2.5,0,3.8,0
		C348.5-583.5,348.5-583.5,348.6-583.5z M328.2-574.6C328.3-574.6,328.3-574.5,328.2-574.6c0.7,1.5,1.6,2.9,2.8,3.9
		c0.8,0.7,1.7,1.2,2.7,1.4c0.1,0,0.3,0.1,0.5,0.1c0-1.8,0-3.7,0-5.5C332.2-574.6,330.3-574.6,328.2-574.6z M325.4-583.4
		c0.1-2,0.4-4,1-5.9c-0.1,0-0.1,0-0.1,0c-1,0-2,0-2.9,0c-0.1,0-0.1,0-0.2,0.1c-0.2,0.5-0.4,0.9-0.6,1.4c-0.5,1.1-0.8,2.2-0.9,3.4
		c0,0.3-0.1,0.7-0.1,1C322.8-583.4,324.1-583.4,325.4-583.4z M346-590.6c-1.6-2.2-3.6-3.7-6.1-4.7c0.3,0.3,0.6,0.6,0.9,1
		c0.9,1.1,1.6,2.3,2.2,3.7c0,0.1,0.1,0.1,0.2,0.1c0.9,0,1.8,0,2.7,0C345.9-590.6,346-590.6,346-590.6z M339.9-570
		c2.5-1,4.5-2.5,6.1-4.7c-0.1,0-0.2,0-0.2,0c-0.9,0-1.8,0-2.6,0c-0.1,0-0.2,0-0.2,0.2c-0.5,1.2-1.2,2.4-2,3.4
		C340.6-570.8,340.3-570.4,339.9-570z M329.8-595.2c-1.6,0.4-5.2,3.3-5.8,4.6c0.1,0,0.1,0,0.1,0c0.8,0,1.7,0,2.5,0
		c0.1,0,0.2,0,0.3-0.2c0.6-1.5,1.4-2.8,2.4-4C329.5-594.8,329.7-595,329.8-595.2z M329.8-570.1c-0.3-0.3-0.5-0.6-0.8-0.8
		c-0.9-1-1.5-2.2-2.1-3.5c0-0.1-0.1-0.2-0.2-0.2c-0.8,0-1.6,0-2.4,0c0,0-0.1,0-0.2,0C325.7-572.6,327.5-571.1,329.8-570.1z"/>
	<rect x="311" y="-607.2" fill="none" stroke="#27AAE1" stroke-width="0.5" stroke-miterlimit="10" width="48.1" height="49"/>
</g>
<g>
	<g>
		<path d="M186.2-589.6c0.6,0,1.1-0.5,1.1-1.1c0-0.4-0.2-0.7-0.4-0.9c0.4-1.7,1.9-3,3.8-3c2.1,0,3.9,1.7,3.9,3.9
			c0,2.1-1.7,3.8-3.9,3.8H190v3.7h1.4v-2.4c2.6-0.3,4.5-2.5,4.5-5.2c0-2.9-2.3-5.2-5.2-5.2c-2.6,0-4.7,1.9-5.1,4.4
			c-0.3,0.2-0.4,0.5-0.4,0.9C185.1-590.1,185.6-589.6,186.2-589.6z"/>
		<path d="M166.8-569.4c0.4-2.6,2.7-3.6,5.3-3.6c4.2,0,8.3,0,12.5,0c2.7,0,5.2-2.1,5.4-5h1.4c0.2,2.9,2.6,5,5.4,5
			c4.2,0,8.3,0,12.5,0c2.6,0,5,1,5.3,3.6h0.1c0-0.5,0-1.2,0-2c0-3.1-2.5-5.4-5.4-5.4c-4.2,0-8.3,0-12.5,0c-2.7,0-5.1-2-5.4-4.8
			l0-0.5H190l0,0c0,3.1-2.5,5.4-5.4,5.4c-4.2,0-8.3,0-12.5,0c-2.9,0-5.4,2.3-5.4,5.4C166.7-570.6,166.7-569.9,166.8-569.4
			L166.8-569.4z"/>
	</g>
	<rect x="166.6" y="-607.2" fill="none" stroke="#27AAE1" stroke-width="0.5" stroke-miterlimit="10" width="48.1" height="49"/>
</g>
<g>
	<g>
		<path d="M147.9-582.4c0,1.3,1.1,2.4,2.4,2.4c1.3,0,2.4-1.1,2.4-2.4c0-1.3-1.1-2.3-2.3-2.3C149-584.8,147.9-583.7,147.9-582.4z"/>
		<path d="M134.8-580c1.3,0,2.4-1.1,2.3-2.4c0-1.3-1.1-2.4-2.4-2.4c-1.3,0-2.3,1.1-2.3,2.4C132.4-581.1,133.5-580,134.8-580z"/>
		<path d="M156.6-589.5c-0.2-0.2-0.4-0.2-0.7-0.1c-0.7,0.3-1.4,0.6-2.1,0.9c-0.4,0.1-0.8,0.2-1.2,0.3c0.2,0.1,0.3,0.1,0.4,0.2
			c2.2,1.1,3.5,2.9,3.7,5.4c0.2,2.8-1.5,5.3-4.1,6.3c-2.7,1.1-6.1-0.4-7.3-2.1c-1.6-2.2-1.5-5.3,0.2-7.6c1.4-1.8,3.3-2.8,5.5-3.5
			c1.5-0.4,3-0.9,4.4-1.6c1.7-0.8,2.8-2.2,3.3-3.9c0.1-0.4,0.2-0.8,0.3-1.3c0-0.1,0-0.2,0-0.3v-0.3h-0.5h-0.2v0.3v0
			c0,1.7-1.1,3-2.7,3.1c-0.1,0-0.2,0-0.3,0c-1,0-2.2-0.3-3.5-0.7c-0.7-0.3-1.4-0.6-2.2-1c-1.2-0.6-2.7-1.3-4.2-1.3
			c-1.1,0-2.1,0.4-2.8,1.3c-0.7-0.9-1.7-1.3-2.8-1.3c-1.5,0-2.9,0.7-4.2,1.3c-0.8,0.4-1.5,0.7-2.2,1c-1.3,0.5-2.5,0.8-3.5,0.8
			c-0.1,0-0.2,0-0.3,0c-1.6-0.1-2.7-1.4-2.7-3.1v0c-0.1-0.1-0.1-0.2-0.2-0.3h-0.5v0.3c0,0.1,0,0.2,0,0.3c0.1,0.4,0.1,0.9,0.3,1.3
			c0.6,2,2,3.5,4.2,4.4c1.2,0.5,2.5,0.8,3.8,1.2c1.8,0.5,3.3,1.4,4.6,2.7c1.6,1.7,2.3,3.6,1.8,5.9c-0.5,2.7-2.5,4.4-5.7,4.8
			c-2.5,0.3-5-1.1-6.1-3.5c-1.1-2.3-0.8-5.1,0.9-7c0.7-0.8,1.5-1.3,2.5-1.7c-0.2-0.1-0.3-0.1-0.4-0.1c-1-0.4-2-0.7-3-1.1
			c-0.3-0.1-0.5-0.1-0.8,0.1c-5.2,4.7-3.7,13.2,2.9,15.9c0.3,0.1,0.5,0.3,0.7,0.5c2.5,2.7,5.5,4.5,9.2,4.8c4.7,0.4,8.5-1.2,11.7-4.6
			c0.3-0.4,0.7-0.6,1.1-0.8C160.4-576.4,161.8-584.9,156.6-589.5z M142.5-570.9c-1-1.2-1.9-2.3-2.7-3.3c0.9-0.9,1.9-1.8,2.7-2.6
			c0.9,0.8,1.8,1.7,2.7,2.6C144.4-573.2,143.5-572.1,142.5-570.9z"/>
	</g>
	<rect x="118.5" y="-607.2" fill="none" stroke="#27AAE1" stroke-width="0.5" stroke-miterlimit="10" width="48.1" height="49"/>
</g>
<g>
	<g>
		<path d="M114.3-543.1c-4.2,0-7.1-3.3-7.3-7.4c-0.1-2,0-6.8,3.8-15.1c2-4.5,5.3-12.3-0.3-17c5.6-4.8,2.4-12.5,0.3-17
			c-3.7-8.3-3.8-13.1-3.8-15.1c0.2-4.1,3.1-7.4,7.3-7.4v-0.4c-4.3,0-7.5,3.1-7.8,7.9c-0.8,10.6,3.8,16.1,4.3,24.4
			c0.3,4.2-3.2,7.4-7.2,7.4v0.7c4,0,7.5,3.2,7.2,7.4c-0.5,8.2-5,13.8-4.3,24.4c0.4,4.8,3.5,7.9,7.8,7.9V-543.1z"/>
	</g>
	<g>
		<rect x="99.4" y="-623" fill="none" stroke="#27AAE1" stroke-width="0.5" stroke-miterlimit="10" width="19.1" height="80.7"/>
	</g>
</g>
<g>
	<g>
		<path d="M363.3-543.1c4.2,0,7.1-3.3,7.3-7.4c0.1-2,0-6.8-3.8-15.1c-2-4.5-5.3-12.3,0.3-17c-5.6-4.8-2.4-12.5-0.3-17
			c3.7-8.3,3.8-13.1,3.8-15.1c-0.2-4.1-3.1-7.4-7.3-7.4v-0.4c4.3,0,7.5,3.1,7.8,7.9c0.8,10.6-3.8,16.1-4.3,24.4
			c-0.3,4.2,3.2,7.4,7.2,7.4v0.7c-4,0-7.5,3.2-7.2,7.4c0.5,8.2,5.1,13.8,4.3,24.4c-0.4,4.8-3.5,7.9-7.8,7.9V-543.1z"/>
	</g>
	<g>
		<rect x="359.1" y="-623" fill="none" stroke="#27AAE1" stroke-width="0.5" stroke-miterlimit="10" width="19.1" height="80.7"/>
	</g>
</g>
<g>
	<g>
		<path d="M423.7-568.9l-7.5-13.9c2.7,0,4.3-0.8,5.3-1.4c0.7-0.5,1.2-1.2,1.6-1.9c0,0,0.1-0.1,0.1-0.2c0.1-0.1,0.1-0.3,0.2-0.5
			c0.1-0.3,0.1-0.6,0.1-1c0-1.8-1.3-3.4-3-3.8c-0.3-0.1-0.6-0.1-0.9-0.1h0c-2.2,0-3.9,1.8-3.9,3.9c0,2.2,1.7,3.9,3.9,3.9
			c0.1,0,0.1,0,0.2,0c0.3,0,0.5,0,0.8-0.1c-1,0.5-2.3,0.9-4.3,0.9h-6.7v-16.1h0.9v-0.3h-7.8v0.3h0.9c0,22.6,0,29.3,0,30.3h-0.9v0.3
			h7.8v-0.3h-0.9V-583c0.3,0.5,6.4,11.6,7.5,14.2h-0.8v0.3h8.3v-0.3H423.7z"/>
		<g>
			<path d="M400-568.9v-16.8c0-5.4-3.5-7.7-6.6-8.1c-2.4-0.3-4.4-0.1-6.1,0.4c-2,0.5-4.1,1.5-5.3,3.2c-0.2,0.3-0.4,0.6-0.5,0.9
				c-0.2,0.5-0.3,1-0.3,1.5c0,0,0,0,0,0c0,0.3,0,0.5,0.1,0.8c0.4,1.8,1.9,3.1,3.8,3.1c0,0,0,0,0,0c2.2,0,3.9-1.7,3.9-3.9
				c0-0.1,0-0.3,0-0.4c-0.2-2-1.9-3.5-3.9-3.5c-0.7,0-1.4,0.2-2,0.6c0.8-0.7,2-1.5,3.9-2c3.3-0.7,7,1.3,7,5.3c0,2.5-1.3,4.5-3.6,5.3
				c-1.2,0.4-2.2,0.2-4.4,0.7c-3.7,0.9-6.3,3.2-6,7.1c0.3,3.6,3.3,6.5,7,6.5c0.1,0,0.3,0,0.3,0c3.6-0.1,6-2.6,6.7-5.2
				c0,2.2,0,4,0,4.4h-0.9v0.3h7.8v-0.3H400z M393.9-574.9c0,1.6-0.7,3.3-1.9,4.5c-0.1,0.1-0.2,0.2-0.3,0.3c-1.5,1.2-5.6,0.8-5.6-3.7
				c0-0.9,0-2.4,0-3.3c0-3.9,3.5-4.7,4.2-5.1c1.8-0.7,3.1-2.1,3.5-3.9C393.9-583.3,393.9-574.9,393.9-574.9z"/>
		</g>
	</g>
	<rect x="378.2" y="-608.2" fill="none" stroke="#27AAE1" stroke-width="0.5" stroke-miterlimit="10" width="48.1" height="49"/>
</g>
<g>
	<g>
		<g>
			<g>
				<path fill="#231F20" d="M-175.6-367.6c2.4,0,5,0,7.5,0c5.1,0,24.3,0,26.7,0c2.7,0,5.2,2.2,5.2,5.2v-0.7c0,0,0-0.9,0-2.2
					c0-3-2.4-5.2-5.2-5.2c-2.2,0-20.2,0-26.2,0l0,0c-0.2,0-0.3,0-0.5,0c-0.3,0-0.6,0-0.8,0v0c-2.4,0-4.7,0-6.7,0
					c-2.8,0-4.6,2.2-4.6,5.2c0,1.3,0,2.2,0,2.2v0.7C-180.2-365.5-178.3-367.6-175.6-367.6z"/>
				<path fill="#231F20" d="M-136.2-355.4c0,3-2.5,5.2-5.2,5.2c-4.1,0-19.2,0-23.3,0c-2.8,0-5.2,2.2-5.2,5.2c0-3-2.5-5.2-5.2-5.2v0
					c-2.8,0-5.1-2.2-5.1-5.2v0.7c0,0,0,0.9,0,2.2c0,3,2.3,5.2,5.1,5.2l0,0c4.1,0,5.1,3.2,5.2,6.1h0c0.2-2.8,1.3-6.1,5.2-6.1
					c4.1,0,19.2,0,23.3,0c2.8,0,5.2-2.2,5.2-5.2c0-1.3,0-2.2,0-2.2L-136.2-355.4z"/>
				<circle fill="#231F20" cx="-166.8" cy="-358.7" r="2.1"/>
				<circle fill="#231F20" cx="-158.5" cy="-358.7" r="2.1"/>
				<circle fill="#231F20" cx="-150.1" cy="-358.7" r="2.1"/>
			</g>
		</g>
		<g>
			<g>
				<path d="M-110.4-351.6l8.1-8.1C-106.6-359.2-109.9-355.8-110.4-351.6z"/>
				<path d="M-92-350.5c0-4.9-3.8-8.9-8.6-9.2v-10.8H-122v29.3h21.4v0C-95.8-341.6-92-345.6-92-350.5z M-103.9-342.9h-1.5l3.2-3.2
					v1.5L-103.9-342.9z M-102.3-368.9v2.4c0,1.1-0.9,2-2,2c-1.5,0-3.6,0-5.1,0c-1,0-2,0.8-2,2c0-1.1-0.9-2-2-2c-1.5,0-3.6,0-5.1,0
					c-0.9,0-1.7-0.6-1.9-1.5v-2.9H-102.3z M-120.3-364.6c0.2,0.9,1,1.5,1.9,1.5c1.5,0,3.6,0,5.1,0c1,0,2,0.8,2,2c0-1.1,0.9-2,2-2
					c1.5,0,3.6,0,5.1,0c1,0,2-0.8,2-2v6.8l-8.2,8.2c0,0.9,0.2,1.7,0.5,2.5l7.7-7.7v1.5l-7.3,7.3c0.3,0.7,0.7,1.3,1.2,1.8l6.1-6.1
					v1.5l-5.3,5.3c0.3,0.3,0.7,0.6,1.1,0.9h-13.8V-364.6z"/>
			</g>
		</g>
		<g>
			<path d="M-63.3-370.7c0.3,0,0.6,0,0.9,0c0,0,0.1,0,0.1,0c0.4,0,0.8,0.1,1.3,0.1c0.9,0.1,1.8,0.3,2.7,0.6c2.2,0.7,4.2,1.9,5.8,3.5
				c1.7,1.6,2.9,3.6,3.7,5.8c0.4,1.2,0.7,2.4,0.8,3.6c0,0.2,0,0.3,0.1,0.5c0,0.5,0,1,0,1.5c0,0,0,0.1,0,0.1
				c-0.1,0.6-0.1,1.2-0.2,1.7c-0.3,1.8-1,3.5-1.9,5c-1.3,2.2-3.1,3.9-5.4,5.2c-2.1,1.2-4.3,1.8-6.7,1.9c-0.8,0-1.6,0-2.4-0.1
				c-1.1-0.1-2.2-0.4-3.3-0.8c-1.7-0.6-3.3-1.6-4.6-2.8c-1.7-1.5-3-3.3-3.9-5.4c-0.6-1.5-1-3.1-1.1-4.7c-0.1-1.1,0-2.2,0.1-3.2
				c0.2-1.2,0.5-2.3,1-3.4c0.9-2.1,2.2-3.9,3.9-5.4c1.2-1.1,2.6-2,4.2-2.6c1.4-0.6,2.9-1,4.5-1.1C-63.7-370.6-63.5-370.6-63.3-370.7
				z M-62.3-355.5c0,2.1,0,4.2,0,6.4c0.1,0,0.1,0,0.2,0c2.1,0,4.2,0,6.4,0c0.1,0,0.2,0,0.2-0.2c0.7-2,1-4,1.1-6.1c0,0,0-0.1,0-0.1
				C-57.2-355.5-59.7-355.5-62.3-355.5z M-71.2-355.4c0,0.1,0,0.1,0,0.2c0,1,0.1,2.1,0.3,3.1c0.2,1,0.4,2,0.8,3
				c0,0.1,0.1,0.1,0.2,0.1c2.1,0,4.1,0,6.2,0c0,0,0.1,0,0.2,0c0-2.1,0-4.2,0.1-6.3C-66.1-355.4-68.7-355.4-71.2-355.4z M-62.3-362.6
				c0,2,0,4,0,5.9c2.6,0,5.2,0,7.7,0c0-0.1,0-0.1,0-0.2c-0.1-0.7-0.1-1.3-0.2-2c-0.1-1.2-0.4-2.4-0.8-3.6c0-0.1-0.1-0.2-0.2-0.2
				c-2.1,0-4.2,0-6.4,0C-62.2-362.6-62.2-362.6-62.3-362.6z M-63.5-362.6c-0.1,0-0.1,0-0.1,0c-2.1,0-4.3,0-6.4,0
				c-0.1,0-0.2,0-0.2,0.1c-0.2,0.8-0.5,1.6-0.6,2.4c-0.2,0.8-0.3,1.7-0.4,2.6c0,0.3,0,0.6,0,0.8c2.6,0,5.1,0,7.7,0
				C-63.5-358.6-63.5-360.6-63.5-362.6z M-54.4-349.1C-54.3-349.1-54.3-349.1-54.4-349.1c1.1,0,2.2,0,3.3,0c0.1,0,0.1-0.1,0.2-0.1
				c0.1-0.3,0.3-0.5,0.4-0.8c0.7-1.5,1.1-3.1,1.3-4.8c0-0.2,0-0.5,0-0.7c-1.4,0-2.7,0-4.1,0C-53.4-353.3-53.7-351.2-54.4-349.1z
				 M-63.5-369.4c-0.2,0-0.4,0.1-0.6,0.1c-1.2,0.3-2.2,0.9-3.1,1.8c-0.9,0.9-1.6,1.9-2.1,2.9c-0.1,0.3-0.3,0.5-0.4,0.8
				c2.1,0,4.1,0,6.2,0C-63.5-365.7-63.5-367.5-63.5-369.4z M-62.4-342.4c0,0,0.1,0,0.1,0c0.1,0,0.2,0,0.3,0c1.2-0.2,2.2-0.8,3-1.5
				c1.2-1.1,2.1-2.4,2.8-3.9c0,0,0-0.1,0-0.1c-2.1,0-4.1,0-6.2,0C-62.4-346-62.4-344.2-62.4-342.4z M-56.1-363.8
				c0-0.1,0-0.1-0.1-0.2c-0.2-0.4-0.3-0.7-0.5-1.1c-0.6-1.1-1.4-2.1-2.4-2.9c-0.7-0.6-1.6-1.1-2.5-1.3c-0.2-0.1-0.4-0.1-0.6-0.1
				c0,1.9,0,3.8,0,5.6C-60.2-363.8-58.2-363.8-56.1-363.8z M-72.4-355.4c-1.3,0-2.6,0-3.9,0c0,0.1,0,0.2,0,0.3
				c0.1,0.5,0.1,1,0.2,1.5c0.3,1.6,0.8,3.1,1.6,4.5c0,0.1,0.1,0.1,0.2,0.1c0.7,0,1.4,0,2.1,0c0.3,0,0.6,0,0.9,0
				C-72.1-351.1-72.4-353.2-72.4-355.4z M-49.2-356.7c-0.1-0.5-0.1-1-0.2-1.5c-0.3-1.5-0.8-2.9-1.5-4.3c0-0.1-0.1-0.1-0.2-0.1
				c-1,0-2,0-3.1,0c0,0-0.1,0-0.1,0c0,0,0,0.1,0,0.1c0.6,1.8,0.9,3.7,1,5.7c0,0.1,0.1,0.1,0.2,0.1c1.3,0,2.5,0,3.8,0
				C-49.4-356.7-49.3-356.7-49.2-356.7z M-69.6-347.8C-69.6-347.8-69.6-347.8-69.6-347.8c0.7,1.5,1.6,2.9,2.8,3.9
				c0.8,0.7,1.7,1.2,2.7,1.4c0.1,0,0.3,0.1,0.5,0.1c0-1.8,0-3.7,0-5.5C-65.6-347.8-67.6-347.8-69.6-347.8z M-72.4-356.6
				c0.1-2,0.4-4,1-5.9c-0.1,0-0.1,0-0.1,0c-1,0-2,0-2.9,0c-0.1,0-0.1,0-0.2,0.1c-0.2,0.5-0.4,0.9-0.6,1.4c-0.5,1.1-0.8,2.2-0.9,3.4
				c0,0.3-0.1,0.7-0.1,1C-75-356.6-73.7-356.6-72.4-356.6z M-51.8-363.9c-1.6-2.2-3.6-3.7-6.1-4.7c0.3,0.3,0.6,0.6,0.9,1
				c0.9,1.1,1.6,2.3,2.2,3.7c0,0.1,0.1,0.1,0.2,0.1c0.9,0,1.8,0,2.7,0C-51.9-363.8-51.9-363.9-51.8-363.9z M-57.9-343.2
				c2.5-1,4.5-2.5,6.1-4.7c-0.1,0-0.2,0-0.2,0c-0.9,0-1.8,0-2.6,0c-0.1,0-0.2,0-0.2,0.2c-0.5,1.2-1.2,2.4-2,3.4
				C-57.2-344-57.5-343.6-57.9-343.2z M-68-368.4c-1.6,0.4-5.2,3.3-5.8,4.6c0.1,0,0.1,0,0.1,0c0.8,0,1.6,0,2.5,0
				c0.1,0,0.2,0,0.3-0.2c0.6-1.5,1.4-2.8,2.4-4C-68.3-368.1-68.2-368.2-68-368.4z M-68-343.4c-0.3-0.3-0.5-0.6-0.8-0.8
				c-0.9-1-1.6-2.2-2.1-3.5c0-0.1-0.1-0.2-0.2-0.2c-0.8,0-1.6,0-2.4,0c0,0-0.1,0-0.2,0C-72.2-345.8-70.3-344.4-68-343.4z"/>
		</g>
	</g>
	<g>
		<g>
			<g>
				<path d="M-91.3-411.8c0.6,0,1.1-0.5,1.1-1.1c0-0.4-0.2-0.7-0.4-0.9c0.4-1.7,1.9-3,3.7-3c2.1,0,3.9,1.7,3.9,3.8
					c0,2.1-1.7,3.9-3.9,3.9h-0.7v3.7h1.4v-2.4c2.6-0.3,4.5-2.5,4.5-5.2c0-2.9-2.3-5.2-5.2-5.2c-2.6,0-4.7,1.9-5.1,4.4
					c-0.3,0.2-0.4,0.5-0.4,0.9C-92.4-412.4-91.9-411.8-91.3-411.8z"/>
				<path d="M-110.8-391.6c0.4-2.6,2.7-3.6,5.3-3.6c4.2,0,8.3,0,12.5,0c2.7,0,5.2-2.1,5.4-5h1.4c0.2,2.9,2.6,5,5.4,5
					c4.2,0,8.3,0,12.5,0c2.6,0,5,1,5.3,3.6h0.1c0-0.5,0-1.2,0-2c0-3.1-2.5-5.4-5.4-5.4c-4.2,0-8.3,0-12.5,0c-2.7,0-5.1-2-5.4-4.8
					l0-0.5h-1.3l0,0c0,3.1-2.5,5.4-5.4,5.4c-4.2,0-8.3,0-12.5,0c-2.9,0-5.4,2.3-5.4,5.4C-110.8-392.8-110.8-392.1-110.8-391.6
					L-110.8-391.6z"/>
			</g>
		</g>
		<g>
			<g>
				<path d="M-129.6-404.7c0,1.3,1.1,2.4,2.4,2.4c1.3,0,2.4-1.1,2.4-2.4c0-1.3-1.1-2.3-2.3-2.3C-128.5-407-129.6-406-129.6-404.7z"
					/>
				<path d="M-142.7-402.3c1.3,0,2.4-1.1,2.3-2.4c0-1.3-1.1-2.4-2.4-2.4c-1.3,0-2.3,1.1-2.3,2.4C-145.1-403.3-144-402.3-142.7-402.3
					z"/>
				<path d="M-120.9-411.8c-0.2-0.2-0.4-0.2-0.7-0.1c-0.7,0.3-1.4,0.6-2.1,0.9c-0.4,0.1-0.8,0.2-1.2,0.3c0.2,0.1,0.3,0.1,0.4,0.2
					c2.2,1.1,3.5,2.9,3.7,5.4c0.2,2.8-1.5,5.3-4.1,6.3c-2.7,1.1-6.1-0.4-7.3-2.1c-1.6-2.2-1.5-5.3,0.2-7.6c1.4-1.8,3.3-2.8,5.5-3.5
					c1.5-0.4,3-0.9,4.4-1.6c1.7-0.8,2.8-2.2,3.3-3.9c0.1-0.4,0.2-0.8,0.3-1.3c0-0.1,0-0.2,0-0.3v-0.3h-0.5h-0.2v0.3v0
					c0,1.7-1.1,3-2.7,3.1c-0.1,0-0.2,0-0.3,0c-1,0-2.2-0.3-3.5-0.7c-0.7-0.3-1.4-0.6-2.2-1c-1.2-0.6-2.7-1.3-4.2-1.3
					c-1.1,0-2.1,0.4-2.8,1.3c-0.7-0.8-1.7-1.3-2.8-1.3c-1.5,0-2.9,0.7-4.2,1.3c-0.8,0.4-1.5,0.7-2.2,1c-1.3,0.5-2.5,0.8-3.5,0.8
					c-0.1,0-0.2,0-0.3,0c-1.6-0.1-2.7-1.4-2.7-3.1v0c-0.1-0.1-0.1-0.2-0.2-0.3h-0.5v0.3c0,0.1,0,0.2,0,0.3c0.1,0.4,0.1,0.9,0.3,1.2
					c0.6,2,2,3.5,4.2,4.4c1.2,0.5,2.5,0.8,3.8,1.2c1.8,0.5,3.3,1.4,4.6,2.7c1.6,1.7,2.3,3.6,1.8,5.9c-0.5,2.7-2.5,4.4-5.7,4.8
					c-2.5,0.3-5-1.1-6.1-3.5c-1.1-2.3-0.8-5.1,0.9-7c0.7-0.8,1.5-1.3,2.5-1.7c-0.2-0.1-0.3-0.1-0.4-0.1c-1-0.4-2-0.7-3-1.1
					c-0.3-0.1-0.5-0.1-0.8,0.1c-5.2,4.7-3.7,13.2,2.9,15.9c0.3,0.1,0.5,0.3,0.7,0.5c2.5,2.7,5.5,4.5,9.2,4.8
					c4.7,0.4,8.5-1.2,11.7-4.6c0.3-0.4,0.7-0.6,1.1-0.8C-117.1-398.7-115.7-407.1-120.9-411.8z M-135-393.1c-1-1.2-1.9-2.3-2.7-3.3
					c0.9-0.9,1.9-1.8,2.7-2.6c0.9,0.8,1.8,1.7,2.7,2.6C-133.1-395.4-134-394.3-135-393.1z"/>
			</g>
		</g>
	</g>
	<g>
		<g>
			<path d="M-55.3-435.3c0-5.8-4.6-10-10.4-10.3c-2.9-0.1-9.5,0.1-21.3,5.3c-6.4,2.8-17.3,7.4-23.9-0.5c-6.7,7.9-17.5,3.3-23.9,0.5
				c-11.7-5.2-18.4-5.4-21.3-5.3c-5.8,0.2-10.4,4.4-10.4,10.3h-0.6c0-6.1,4.3-10.5,11.1-11c14.8-1.1,22.7,5.3,34.3,6
				c5.9,0.4,10.3-4.5,10.4-10.1h1c0,5.6,4.5,10.5,10.4,10.1c11.6-0.7,19.4-7.1,34.3-6c6.8,0.5,11.1,4.9,11.1,11H-55.3z"/>
		</g>
	</g>
	<g>
		<g>
			<path d="M-55.3-325.5c0,5.8-4.6,10-10.4,10.3c-2.9,0.1-9.5-0.1-21.3-5.3c-6.4-2.8-17.3-7.4-23.9,0.5c-6.7-7.9-17.5-3.3-23.9-0.5
				c-11.7,5.2-18.4,5.4-21.3,5.3c-5.8-0.2-10.4-4.4-10.4-10.3h-0.6c0,6.1,4.3,10.5,11.1,11c14.8,1.1,22.7-5.3,34.3-6
				c5.9-0.4,10.3,4.5,10.4,10.1h1c0-5.6,4.5-10.5,10.4-10.1c11.6,0.7,19.4,7.1,34.3,6c6.8-0.5,11.1-4.9,11.1-11H-55.3z"/>
		</g>
	</g>
	<g>
		<g>
			<path d="M-89.1-265.2l-7.5-13.9c2.7,0,4.3-0.8,5.3-1.4c0.7-0.5,1.2-1.2,1.6-1.9c0,0,0.1-0.1,0.1-0.2c0.1-0.1,0.1-0.3,0.2-0.5
				c0.1-0.3,0.1-0.6,0.1-1c0-1.8-1.3-3.4-3-3.8c-0.3-0.1-0.6-0.1-0.9-0.1h0c-2.2,0-3.9,1.8-3.9,3.9c0,2.2,1.7,3.9,3.9,3.9
				c0.1,0,0.1,0,0.2,0c0.3,0,0.5,0,0.8-0.1c-1,0.5-2.3,0.9-4.3,0.9h-6.7v-16.1h0.9v-0.3h-7.8v0.3h0.9c0,22.6,0,29.3,0,30.3h-0.9v0.3
				h7.8v-0.3h-0.9v-14.2c0.3,0.5,6.4,11.6,7.5,14.2h-0.8v0.3h8.3v-0.3H-89.1z"/>
			<g>
				<path d="M-112.9-265.2V-282c0-5.4-3.5-7.7-6.6-8.1c-2.4-0.3-4.4-0.1-6.1,0.4c-2,0.5-4.1,1.5-5.3,3.2c-0.2,0.3-0.4,0.6-0.5,0.9
					c-0.2,0.5-0.3,1-0.3,1.5c0,0,0,0,0,0c0,0.3,0,0.5,0.1,0.8c0.4,1.8,1.9,3.1,3.8,3.1c0,0,0,0,0,0c2.2,0,3.9-1.7,3.9-3.9
					c0-0.1,0-0.3,0-0.4c-0.2-2-1.9-3.5-3.9-3.5c-0.7,0-1.4,0.2-2,0.6c0.8-0.7,2-1.5,3.9-2c3.3-0.7,7,1.3,7,5.3
					c0,2.5-1.3,4.5-3.6,5.3c-1.2,0.4-2.2,0.2-4.4,0.7c-3.7,0.9-6.3,3.2-6,7.1c0.3,3.6,3.3,6.5,7,6.5c0.1,0,0.3,0,0.3,0
					c3.6-0.1,6-2.6,6.7-5.2c0,2.2,0,4,0,4.4h-0.9v0.3h7.8v-0.3H-112.9z M-118.9-271.3c0,1.6-0.7,3.3-1.9,4.5
					c-0.1,0.1-0.2,0.2-0.3,0.3c-1.5,1.2-5.6,0.8-5.6-3.7c0-0.9,0-2.4,0-3.3c0-3.9,3.5-4.7,4.2-5.1c1.8-0.7,3.1-2.1,3.5-3.9
					C-118.9-279.6-118.9-271.3-118.9-271.3z"/>
			</g>
		</g>
	</g>
</g>
<g>
	<g>
		<g>
			<g>
				<path fill="#231F20" d="M10.5,88.3c2.4,0,5,0,7.5,0c5.1,0,24.3,0,26.7,0c2.7,0,5.2,2.2,5.2,5.2v-0.7c0,0,0-0.9,0-2.2
					c0-3-2.4-5.2-5.2-5.2c-2.2,0-20.2,0-26.2,0l0,0c-0.2,0-0.3,0-0.5,0c-0.3,0-0.6,0-0.8,0v0c-2.4,0-4.7,0-6.7,0
					c-2.8,0-4.6,2.2-4.6,5.2c0,1.3,0,2.2,0,2.2v0.7C5.9,90.5,7.8,88.3,10.5,88.3z"/>
				<path fill="#231F20" d="M49.9,100.5c0,3-2.5,5.2-5.2,5.2c-4.1,0-19.2,0-23.3,0c-2.8,0-5.2,2.2-5.2,5.2c0-3-2.5-5.2-5.2-5.2v0
					c-2.8,0-5.1-2.2-5.1-5.2v0.7c0,0,0,0.9,0,2.2c0,3,2.3,5.2,5.1,5.2l0,0c4.1,0,5.1,3.2,5.2,6.1h0c0.2-2.8,1.3-6.1,5.2-6.1
					c4.1,0,19.2,0,23.3,0c2.8,0,5.2-2.2,5.2-5.2c0-1.3,0-2.2,0-2.2L49.9,100.5z"/>
				<circle fill="#231F20" cx="19.3" cy="97.3" r="2.1"/>
				<circle fill="#231F20" cx="27.6" cy="97.3" r="2.1"/>
				<circle fill="#231F20" cx="36" cy="97.3" r="2.1"/>
			</g>
		</g>
		<g>
			<g>
				<path d="M75.7,104.4l8.1-8.1C79.5,96.8,76.2,100.2,75.7,104.4z"/>
				<path d="M94.1,105.5c0-4.9-3.8-8.9-8.6-9.2V85.4H64.1v29.3h21.4v0C90.3,114.4,94.1,110.4,94.1,105.5z M82.2,113.1h-1.5l3.2-3.2
					v1.5L82.2,113.1z M83.9,87.1v2.4c0,1.1-0.9,2-2,2c-1.5,0-3.6,0-5.1,0c-1,0-2,0.8-2,2c0-1.1-0.9-2-2-2c-1.5,0-3.6,0-5.1,0
					c-0.9,0-1.7-0.6-1.9-1.5v-2.9H83.9z M65.8,91.4c0.2,0.9,1,1.5,1.9,1.5c1.5,0,3.6,0,5.1,0c1,0,2,0.8,2,2c0-1.1,0.9-2,2-2
					c1.5,0,3.6,0,5.1,0c1,0,2-0.8,2-2v6.8l-8.2,8.2c0,0.9,0.2,1.7,0.5,2.5l7.7-7.7v1.5l-7.3,7.3c0.3,0.7,0.7,1.3,1.2,1.8l6.1-6.1
					v1.5l-5.3,5.3c0.3,0.3,0.7,0.6,1.1,0.9H65.8V91.4z"/>
			</g>
		</g>
		<g>
			<path d="M122.8,85.3c0.3,0,0.6,0,0.9,0c0,0,0.1,0,0.1,0c0.4,0,0.8,0.1,1.3,0.1c0.9,0.1,1.8,0.3,2.7,0.6c2.2,0.7,4.2,1.9,5.8,3.5
				c1.7,1.6,2.9,3.6,3.7,5.8c0.4,1.2,0.7,2.4,0.8,3.6c0,0.2,0,0.3,0.1,0.5c0,0.5,0,1,0,1.5c0,0,0,0.1,0,0.1
				c-0.1,0.6-0.1,1.2-0.2,1.7c-0.3,1.8-1,3.5-1.9,5c-1.3,2.2-3.1,3.9-5.4,5.2c-2.1,1.2-4.3,1.8-6.7,1.9c-0.8,0-1.6,0-2.4-0.1
				c-1.1-0.1-2.2-0.4-3.3-0.8c-1.7-0.6-3.3-1.6-4.6-2.8c-1.7-1.5-3-3.3-3.9-5.4c-0.6-1.5-1-3.1-1.1-4.7c-0.1-1.1,0-2.2,0.1-3.2
				c0.2-1.2,0.5-2.3,1-3.4c0.9-2.1,2.2-3.9,3.9-5.4c1.2-1.1,2.6-2,4.2-2.6c1.4-0.6,2.9-1,4.5-1.1C122.4,85.4,122.6,85.3,122.8,85.3z
				 M123.8,100.5c0,2.1,0,4.2,0,6.4c0.1,0,0.1,0,0.2,0c2.1,0,4.2,0,6.4,0c0.1,0,0.2,0,0.2-0.2c0.7-2,1-4,1.1-6.1c0,0,0-0.1,0-0.1
				C129,100.5,126.4,100.5,123.8,100.5z M114.9,100.6c0,0.1,0,0.1,0,0.2c0,1,0.1,2.1,0.3,3.1c0.2,1,0.4,2,0.8,3
				c0,0.1,0.1,0.1,0.2,0.1c2.1,0,4.1,0,6.2,0c0,0,0.1,0,0.2,0c0-2.1,0-4.2,0.1-6.3C120,100.6,117.4,100.6,114.9,100.6z M123.8,93.4
				c0,2,0,4,0,5.9c2.6,0,5.2,0,7.7,0c0-0.1,0-0.1,0-0.2c-0.1-0.7-0.1-1.3-0.2-2c-0.1-1.2-0.4-2.4-0.8-3.6c0-0.1-0.1-0.2-0.2-0.2
				c-2.1,0-4.2,0-6.4,0C123.9,93.4,123.9,93.4,123.8,93.4z M122.6,93.4c-0.1,0-0.1,0-0.1,0c-2.1,0-4.3,0-6.4,0c-0.1,0-0.2,0-0.2,0.1
				c-0.2,0.8-0.5,1.6-0.6,2.4c-0.2,0.8-0.3,1.7-0.4,2.6c0,0.3,0,0.6,0,0.8c2.6,0,5.1,0,7.7,0C122.6,97.3,122.6,95.4,122.6,93.4z
				 M131.7,106.9C131.8,106.9,131.8,106.9,131.7,106.9c1.1,0,2.2,0,3.3,0c0.1,0,0.1-0.1,0.2-0.1c0.1-0.3,0.3-0.5,0.4-0.8
				c0.7-1.5,1.1-3.1,1.3-4.8c0-0.2,0-0.5,0-0.7c-1.4,0-2.7,0-4.1,0C132.7,102.7,132.4,104.8,131.7,106.9z M122.6,86.6
				c-0.2,0-0.4,0.1-0.6,0.1c-1.2,0.3-2.2,0.9-3.1,1.8c-0.9,0.9-1.6,1.9-2.1,2.9c-0.1,0.3-0.3,0.5-0.4,0.8c2.1,0,4.1,0,6.2,0
				C122.6,90.3,122.6,88.4,122.6,86.6z M123.7,113.6c0,0,0.1,0,0.1,0c0.1,0,0.2,0,0.3,0c1.2-0.2,2.2-0.8,3-1.5
				c1.2-1.1,2.1-2.4,2.8-3.9c0,0,0-0.1,0-0.1c-2.1,0-4.1,0-6.2,0C123.7,110,123.7,111.8,123.7,113.6z M130,92.2c0-0.1,0-0.1-0.1-0.2
				c-0.2-0.4-0.3-0.7-0.5-1.1c-0.6-1.1-1.4-2.1-2.4-2.9c-0.7-0.6-1.6-1.1-2.5-1.3c-0.2-0.1-0.4-0.1-0.6-0.1c0,1.9,0,3.8,0,5.6
				C125.9,92.2,127.9,92.2,130,92.2z M113.7,100.6c-1.3,0-2.6,0-3.9,0c0,0.1,0,0.2,0,0.3c0.1,0.5,0.1,1,0.2,1.5
				c0.3,1.6,0.8,3.1,1.6,4.5c0,0.1,0.1,0.1,0.2,0.1c0.7,0,1.4,0,2.1,0c0.3,0,0.6,0,0.9,0C114,104.9,113.7,102.8,113.7,100.6z
				 M136.9,99.3c-0.1-0.5-0.1-1-0.2-1.5c-0.3-1.5-0.8-2.9-1.5-4.3c0-0.1-0.1-0.1-0.2-0.1c-1,0-2,0-3.1,0c0,0-0.1,0-0.1,0
				c0,0,0,0.1,0,0.1c0.6,1.8,0.9,3.7,1,5.7c0,0.1,0.1,0.1,0.2,0.1c1.3,0,2.5,0,3.8,0C136.7,99.3,136.8,99.3,136.9,99.3z
				 M116.5,108.1C116.5,108.2,116.5,108.2,116.5,108.1c0.7,1.5,1.6,2.9,2.8,3.9c0.8,0.7,1.7,1.2,2.7,1.4c0.1,0,0.3,0.1,0.5,0.1
				c0-1.8,0-3.7,0-5.5C120.5,108.1,118.5,108.1,116.5,108.1z M113.7,99.4c0.1-2,0.4-4,1-5.9c-0.1,0-0.1,0-0.1,0c-1,0-2,0-2.9,0
				c-0.1,0-0.1,0-0.2,0.1c-0.2,0.5-0.4,0.9-0.6,1.4c-0.5,1.1-0.8,2.2-0.9,3.4c0,0.3-0.1,0.7-0.1,1C111.1,99.4,112.4,99.4,113.7,99.4
				z M134.3,92.1c-1.6-2.2-3.6-3.7-6.1-4.7c0.3,0.3,0.6,0.6,0.9,1c0.9,1.1,1.6,2.3,2.2,3.7c0,0.1,0.1,0.1,0.2,0.1c0.9,0,1.8,0,2.7,0
				C134.2,92.1,134.2,92.1,134.3,92.1z M128.2,112.7c2.5-1,4.5-2.5,6.1-4.7c-0.1,0-0.2,0-0.2,0c-0.9,0-1.8,0-2.6,0
				c-0.1,0-0.2,0-0.2,0.2c-0.5,1.2-1.2,2.4-2,3.4C128.9,112,128.6,112.4,128.2,112.7z M118.1,87.6c-1.6,0.4-5.2,3.3-5.8,4.6
				c0.1,0,0.1,0,0.1,0c0.8,0,1.6,0,2.5,0c0.1,0,0.2,0,0.3-0.2c0.6-1.5,1.4-2.8,2.4-4C117.8,87.9,117.9,87.8,118.1,87.6z
				 M118.1,112.6c-0.3-0.3-0.5-0.6-0.8-0.8c-0.9-1-1.6-2.2-2.1-3.5c0-0.1-0.1-0.2-0.2-0.2c-0.8,0-1.6,0-2.4,0c0,0-0.1,0-0.2,0
				C113.9,110.2,115.8,111.6,118.1,112.6z"/>
		</g>
	</g>
	<g>
		<g>
			<g>
				<path d="M94.8,44.1c0.6,0,1.1-0.5,1.1-1.1c0-0.4-0.2-0.7-0.4-0.9c0.4-1.7,1.9-3,3.7-3c2.1,0,3.9,1.7,3.9,3.8
					c0,2.1-1.7,3.9-3.9,3.9h-0.7v3.7h1.4v-2.4c2.6-0.3,4.5-2.5,4.5-5.2c0-2.9-2.3-5.2-5.2-5.2c-2.6,0-4.7,1.9-5.1,4.4
					c-0.3,0.2-0.4,0.5-0.4,0.9C93.7,43.6,94.2,44.1,94.8,44.1z"/>
				<path d="M75.4,64.4c0.4-2.6,2.7-3.6,5.3-3.6c4.2,0,8.3,0,12.5,0c2.7,0,5.2-2.1,5.4-5h1.4c0.2,2.9,2.6,5,5.4,5
					c4.2,0,8.3,0,12.5,0c2.6,0,5,1,5.3,3.6h0.1c0-0.5,0-1.2,0-2c0-3.1-2.5-5.4-5.4-5.4c-4.2,0-8.3,0-12.5,0c-2.7,0-5.1-2-5.4-4.8
					l0-0.5h-1.3l0,0c0,3.1-2.5,5.4-5.4,5.4c-4.2,0-8.3,0-12.5,0c-2.9,0-5.4,2.3-5.4,5.4C75.3,63.1,75.3,63.9,75.4,64.4L75.4,64.4z"
					/>
			</g>
		</g>
		<g>
			<g>
				<path d="M56.5,51.3c0,1.3,1.1,2.4,2.4,2.4c1.3,0,2.4-1.1,2.4-2.4c0-1.3-1.1-2.3-2.3-2.3C57.6,49,56.5,50,56.5,51.3z"/>
				<path d="M43.4,53.7c1.3,0,2.4-1.1,2.3-2.4c0-1.3-1.1-2.4-2.4-2.4C42.1,49,41,50,41,51.3C41,52.6,42.1,53.7,43.4,53.7z"/>
				<path d="M65.2,44.2c-0.2-0.2-0.4-0.2-0.7-0.1c-0.7,0.3-1.4,0.6-2.1,0.9c-0.4,0.1-0.8,0.2-1.2,0.3c0.2,0.1,0.3,0.1,0.4,0.2
					c2.2,1.1,3.5,2.9,3.7,5.4c0.2,2.8-1.5,5.3-4.1,6.3c-2.7,1.1-6.1-0.4-7.3-2.1c-1.6-2.2-1.5-5.3,0.2-7.6c1.4-1.8,3.3-2.8,5.5-3.5
					c1.5-0.4,3-0.9,4.4-1.6c1.7-0.8,2.8-2.2,3.3-3.9c0.1-0.4,0.2-0.8,0.3-1.3c0-0.1,0-0.2,0-0.3v-0.3H67h-0.2v0.3v0
					c0,1.7-1.1,3-2.7,3.1c-0.1,0-0.2,0-0.3,0c-1,0-2.2-0.3-3.5-0.7c-0.7-0.3-1.4-0.6-2.2-1c-1.2-0.6-2.7-1.3-4.2-1.3
					c-1.1,0-2.1,0.4-2.8,1.3c-0.7-0.8-1.7-1.3-2.8-1.3c-1.5,0-2.9,0.7-4.2,1.3c-0.8,0.4-1.5,0.7-2.2,1c-1.3,0.5-2.5,0.8-3.5,0.8
					c-0.1,0-0.2,0-0.3,0c-1.6-0.1-2.7-1.4-2.7-3.1v0c-0.1-0.1-0.1-0.2-0.2-0.3h-0.5V37c0,0.1,0,0.2,0,0.3c0.1,0.4,0.1,0.9,0.3,1.2
					c0.6,2,2,3.5,4.2,4.4c1.2,0.5,2.5,0.8,3.8,1.2c1.8,0.5,3.3,1.4,4.6,2.7c1.6,1.7,2.3,3.6,1.8,5.9c-0.5,2.7-2.5,4.4-5.7,4.8
					c-2.5,0.3-5-1.1-6.1-3.5c-1.1-2.3-0.8-5.1,0.9-7c0.7-0.8,1.5-1.3,2.5-1.7c-0.2-0.1-0.3-0.1-0.4-0.1c-1-0.4-2-0.7-3-1.1
					C37.5,44,37.3,44,37,44.3c-5.2,4.7-3.7,13.2,2.9,15.9c0.3,0.1,0.5,0.3,0.7,0.5c2.5,2.7,5.5,4.5,9.2,4.8
					c4.7,0.4,8.5-1.2,11.7-4.6c0.3-0.4,0.7-0.6,1.1-0.8C69,57.3,70.4,48.9,65.2,44.2z M51.1,62.8c-1-1.2-1.9-2.3-2.7-3.3
					c0.9-0.9,1.9-1.8,2.7-2.6c0.9,0.8,1.8,1.7,2.7,2.6C53,60.5,52.1,61.7,51.1,62.8z"/>
			</g>
		</g>
	</g>
	<g>
		<g>
			<path d="M130.8,20.7c0-5.8-4.6-10-10.4-10.3c-2.9-0.1-9.5,0.1-21.3,5.3c-6.4,2.8-17.3,7.4-23.9-0.5c-6.7,7.9-17.5,3.3-23.9,0.5
				c-11.7-5.2-18.4-5.4-21.3-5.3c-5.8,0.2-10.4,4.4-10.4,10.3H19c0-6.1,4.3-10.5,11.1-11c14.8-1.1,22.7,5.3,34.3,6
				c5.9,0.4,10.3-4.5,10.4-10.1h1c0,5.6,4.5,10.5,10.4,10.1c11.6-0.7,19.4-7.1,34.3-6c6.8,0.5,11.1,4.9,11.1,11H130.8z"/>
		</g>
	</g>
	<g>
		<g>
			<path d="M130.8,130.4c0,5.8-4.6,10-10.4,10.3c-2.9,0.1-9.5-0.1-21.3-5.3c-6.4-2.8-17.3-7.4-23.9,0.5c-6.7-7.9-17.5-3.3-23.9-0.5
				c-11.7,5.2-18.4,5.4-21.3,5.3c-5.8-0.2-10.4-4.4-10.4-10.3H19c0,6.1,4.3,10.5,11.1,11c14.8,1.1,22.7-5.3,34.3-6
				c5.9-0.4,10.3,4.5,10.4,10.1h1c0-5.6,4.5-10.5,10.4-10.1c11.6,0.7,19.4,7.1,34.3,6c6.8-0.5,11.1-4.9,11.1-11H130.8z"/>
		</g>
	</g>
	<g>
		<g>
			<path d="M97,190.8l-7.5-13.9c2.7,0,4.3-0.8,5.3-1.4c0.7-0.5,1.2-1.2,1.6-1.9c0,0,0.1-0.1,0.1-0.2c0.1-0.1,0.1-0.3,0.2-0.5
				c0.1-0.3,0.1-0.6,0.1-1c0-1.8-1.3-3.4-3-3.8c-0.3-0.1-0.6-0.1-0.9-0.1h0c-2.2,0-3.9,1.8-3.9,3.9c0,2.2,1.7,3.9,3.9,3.9
				c0.1,0,0.1,0,0.2,0c0.3,0,0.5,0,0.8-0.1c-1,0.5-2.3,0.9-4.3,0.9h-6.7v-16.1h0.9v-0.3h-7.8v0.3h0.9c0,22.6,0,29.3,0,30.3h-0.9v0.3
				h7.8v-0.3h-0.9v-14.2c0.3,0.5,6.4,11.6,7.5,14.2h-0.8v0.3h8.3v-0.3H97z"/>
			<g>
				<path d="M73.2,190.8V174c0-5.4-3.5-7.7-6.6-8.1c-2.4-0.3-4.4-0.1-6.1,0.4c-2,0.5-4.1,1.5-5.3,3.2c-0.2,0.3-0.4,0.6-0.5,0.9
					c-0.2,0.5-0.3,1-0.3,1.5c0,0,0,0,0,0c0,0.3,0,0.5,0.1,0.8c0.4,1.8,1.9,3.1,3.8,3.1c0,0,0,0,0,0c2.2,0,3.9-1.7,3.9-3.9
					c0-0.1,0-0.3,0-0.4c-0.2-2-1.9-3.5-3.9-3.5c-0.7,0-1.4,0.2-2,0.6c0.8-0.7,2-1.5,3.9-2c3.3-0.7,7,1.3,7,5.3
					c0,2.5-1.3,4.5-3.6,5.3c-1.2,0.4-2.2,0.2-4.4,0.7c-3.7,0.9-6.3,3.2-6,7.1c0.3,3.6,3.3,6.5,7,6.5c0.1,0,0.3,0,0.3,0
					c3.6-0.1,6-2.6,6.7-5.2c0,2.2,0,4,0,4.4h-0.9v0.3h7.8v-0.3H73.2z M67.2,184.7c0,1.6-0.7,3.3-1.9,4.5c-0.1,0.1-0.2,0.2-0.3,0.3
					c-1.5,1.2-5.6,0.8-5.6-3.7c0-0.9,0-2.4,0-3.3c0-3.9,3.5-4.7,4.2-5.1c1.8-0.7,3.1-2.1,3.5-3.9C67.2,176.4,67.2,184.7,67.2,184.7z
					"/>
			</g>
		</g>
	</g>
</g>
<g>
	<g>
		<path d="M45.5-569.1L38-583.1c2.7,0,4.3-0.8,5.3-1.4c0.7-0.5,1.2-1.2,1.6-1.9c0,0,0.1-0.1,0.1-0.2c0.1-0.1,0.1-0.3,0.2-0.5
			c0.1-0.3,0.1-0.6,0.1-1c0-1.8-1.3-3.4-3-3.8c-0.3-0.1-0.6-0.1-0.9-0.1h0c-2.2,0-3.9,1.7-3.9,3.9c0,2.2,1.7,3.9,3.9,3.9
			c0.1,0,0.1,0,0.2,0c0.3,0,0.5,0,0.8-0.1c-1,0.5-2.3,0.9-4.3,0.9h-6.7v-16.1h0.9v-0.3h-7.8v0.3h0.9c0,22.6,0,29.3,0,30.3h-0.9v0.3
			h7.8v-0.3h-0.9v-14.2c0.3,0.5,6.4,11.6,7.5,14.2h-0.8v0.3h8.3v-0.3H45.5z"/>
		<g>
			<path d="M21.7-569.1v-16.8c0-5.4-3.5-7.7-6.6-8.1c-2.4-0.3-4.4-0.1-6.1,0.4c-2,0.5-4.1,1.5-5.3,3.2c-0.2,0.3-0.4,0.6-0.5,0.9
				c-0.2,0.5-0.3,1-0.3,1.5c0,0,0,0,0,0c0,0.3,0,0.5,0.1,0.8c0.4,1.8,1.9,3.1,3.8,3.1c0,0,0,0,0,0c2.2,0,3.9-1.7,3.9-3.9
				c0-0.1,0-0.3,0-0.4c-0.2-2-1.9-3.5-3.9-3.5c-0.7,0-1.4,0.2-2,0.6c0.8-0.7,2-1.5,3.9-2c3.3-0.7,7,1.3,7,5.3c0,2.5-1.3,4.5-3.6,5.3
				c-1.2,0.4-2.2,0.2-4.4,0.7c-3.7,0.9-6.3,3.2-6,7.1c0.3,3.6,3.3,6.5,7,6.5c0.1,0,0.3,0,0.3,0c3.6-0.1,6-2.6,6.7-5.3
				c0,2.2,0,4,0,4.4h-0.9v0.3h7.8v-0.3H21.7z M15.7-575.2c0,1.6-0.7,3.3-1.9,4.5c-0.1,0.1-0.2,0.2-0.3,0.3c-1.5,1.2-5.6,0.8-5.6-3.7
				c0-0.9,0-2.4,0-3.3c0-3.9,3.5-4.7,4.2-5.1c1.8-0.7,3.1-2.1,3.5-3.9C15.7-583.5,15.7-575.2,15.7-575.2z"/>
		</g>
	</g>
	<g>
		<g>
			<path fill="#231F20" d="M-155.9-594.6c2.4,0,5,0,7.5,0c5.1,0,24.3,0,26.7,0c2.7,0,5.2,2.2,5.2,5.2v-0.7c0,0,0-0.9,0-2.2
				c0-3-2.4-5.2-5.2-5.2c-2.2,0-20.2,0-26.2,0v0c-0.2,0-0.3,0-0.5,0c-0.3,0-0.6,0-0.8,0v0c-2.4,0-4.7,0-6.7,0
				c-2.8,0-4.6,2.2-4.6,5.2c0,1.3,0,2.2,0,2.2v0.7C-160.6-592.5-158.7-594.6-155.9-594.6z"/>
			<path fill="#231F20" d="M-116.6-582.4c0,3-2.5,5.2-5.2,5.2c-4.1,0-19.2,0-23.3,0c-2.8,0-5.2,2.2-5.2,5.2c0-3-2.5-5.2-5.2-5.2v0
				c-2.8,0-5.1-2.2-5.1-5.2v0.7c0,0,0,0.9,0,2.2c0,3,2.3,5.2,5.1,5.2l0,0c4.1,0,5.1,3.2,5.2,6.1h0c0.2-2.8,1.3-6.1,5.2-6.1
				c4.1,0,19.2,0,23.3,0c2.8,0,5.2-2.2,5.2-5.2c0-1.3,0-2.2,0-2.2L-116.6-582.4z"/>
			<circle fill="#231F20" cx="-147.2" cy="-585.7" r="2.1"/>
			<circle fill="#231F20" cx="-138.8" cy="-585.7" r="2.1"/>
			<circle fill="#231F20" cx="-130.5" cy="-585.7" r="2.1"/>
		</g>
	</g>
	<g>
		<g>
			<path d="M-90.8-578.6l8.1-8.1C-86.9-586.2-90.3-582.8-90.8-578.6z"/>
			<path d="M-72.3-577.5c0-4.9-3.8-8.9-8.6-9.2v-10.8h-21.4v29.3H-81v0C-76.1-568.6-72.3-572.6-72.3-577.5z M-84.3-569.9h-1.5
				l3.2-3.2v1.5L-84.3-569.9z M-82.6-595.9v2.4c0,1.1-0.9,2-2,2c-1.5,0-3.6,0-5.1,0c-1,0-2,0.8-2,2c0-1.1-0.9-2-2-2
				c-1.5,0-3.6,0-5.1,0c-0.9,0-1.7-0.6-1.9-1.5v-2.9H-82.6z M-100.7-591.6c0.2,0.9,1,1.5,1.9,1.5c1.5,0,3.6,0,5.1,0c1,0,2,0.8,2,2
				c0-1.1,0.9-2,2-2c1.5,0,3.6,0,5.1,0c1,0,2-0.8,2-2v6.8l-8.2,8.2c0,0.9,0.2,1.7,0.5,2.5l7.7-7.7v1.5l-7.3,7.3
				c0.3,0.7,0.7,1.3,1.2,1.8l6.1-6.1v1.5l-5.3,5.3c0.3,0.3,0.7,0.6,1.1,0.9h-13.8V-591.6z"/>
		</g>
	</g>
	<g>
		<path d="M-43.6-597.7c0.3,0,0.6,0,0.9,0c0,0,0.1,0,0.1,0c0.4,0,0.8,0.1,1.3,0.1c0.9,0.1,1.8,0.3,2.7,0.6c2.2,0.7,4.2,1.9,5.8,3.5
			c1.7,1.6,2.9,3.6,3.7,5.8c0.4,1.2,0.7,2.4,0.8,3.6c0,0.2,0,0.3,0.1,0.5c0,0.5,0,1,0,1.5c0,0,0,0.1,0,0.1c-0.1,0.6-0.1,1.2-0.2,1.7
			c-0.3,1.8-1,3.5-1.9,5c-1.3,2.2-3.1,3.9-5.4,5.2c-2.1,1.2-4.3,1.8-6.7,1.9c-0.8,0-1.6,0-2.4-0.1c-1.1-0.1-2.2-0.4-3.3-0.8
			c-1.7-0.6-3.3-1.6-4.6-2.8c-1.7-1.5-3-3.3-3.9-5.4c-0.6-1.5-1-3.1-1.1-4.7c-0.1-1.1,0-2.2,0.1-3.2c0.2-1.2,0.5-2.3,1-3.4
			c0.9-2.1,2.2-3.9,3.9-5.4c1.2-1.1,2.6-2,4.2-2.6c1.4-0.6,2.9-1,4.5-1.1C-44.1-597.6-43.8-597.7-43.6-597.7z M-42.7-582.5
			c0,2.1,0,4.2,0,6.4c0.1,0,0.1,0,0.2,0c2.1,0,4.2,0,6.4,0c0.1,0,0.2,0,0.2-0.2c0.7-2,1-4,1.1-6.1c0,0,0-0.1,0-0.1
			C-37.5-582.5-40.1-582.5-42.7-582.5z M-51.6-582.4c0,0.1,0,0.1,0,0.2c0,1,0.1,2.1,0.3,3.1c0.2,1,0.4,2,0.8,3
			c0,0.1,0.1,0.1,0.2,0.1c2.1,0,4.1,0,6.2,0c0,0,0.1,0,0.2,0c0-2.1,0-4.2,0.1-6.3C-46.5-582.4-49-582.4-51.6-582.4z M-42.7-589.6
			c0,2,0,4,0,5.9c2.6,0,5.2,0,7.7,0c0-0.1,0-0.1,0-0.2c-0.1-0.7-0.1-1.3-0.2-2c-0.1-1.2-0.4-2.4-0.8-3.6c0-0.1-0.1-0.2-0.2-0.2
			c-2.1,0-4.2,0-6.4,0C-42.6-589.6-42.6-589.6-42.7-589.6z M-43.9-589.6c-0.1,0-0.1,0-0.1,0c-2.1,0-4.3,0-6.4,0
			c-0.1,0-0.2,0-0.2,0.1c-0.2,0.8-0.5,1.6-0.6,2.4c-0.2,0.8-0.3,1.7-0.4,2.6c0,0.3,0,0.6,0,0.8c2.6,0,5.1,0,7.7,0
			C-43.9-585.6-43.9-587.6-43.9-589.6z M-34.7-576.1C-34.7-576.1-34.7-576.1-34.7-576.1c1.1,0,2.2,0,3.3,0c0.1,0,0.1,0,0.2-0.1
			c0.1-0.3,0.3-0.5,0.4-0.8c0.7-1.5,1.1-3.1,1.3-4.8c0-0.2,0-0.4,0-0.7c-1.4,0-2.7,0-4.1,0C-33.7-580.3-34.1-578.2-34.7-576.1z
			 M-43.8-596.4c-0.2,0-0.4,0.1-0.6,0.1c-1.2,0.3-2.2,0.9-3.1,1.8c-0.9,0.9-1.6,1.9-2.1,2.9c-0.1,0.3-0.3,0.5-0.4,0.8
			c2.1,0,4.1,0,6.2,0C-43.8-592.7-43.8-594.5-43.8-596.4z M-42.8-569.4c0,0,0.1,0,0.1,0c0.1,0,0.2,0,0.3,0c1.2-0.2,2.2-0.8,3-1.5
			c1.2-1.1,2.1-2.4,2.8-3.9c0,0,0-0.1,0-0.1c-2.1,0-4.1,0-6.2,0C-42.8-573-42.8-571.2-42.8-569.4z M-36.5-590.8c0-0.1,0-0.1-0.1-0.2
			c-0.2-0.4-0.3-0.7-0.5-1.1c-0.6-1.1-1.4-2.1-2.4-2.9c-0.7-0.6-1.6-1.1-2.5-1.3c-0.2-0.1-0.4-0.1-0.6-0.1c0,1.9,0,3.8,0,5.6
			C-40.6-590.8-38.5-590.8-36.5-590.8z M-52.8-582.4c-1.3,0-2.6,0-3.9,0c0,0.1,0,0.2,0,0.3c0.1,0.5,0.1,1,0.2,1.5
			c0.3,1.6,0.8,3.1,1.6,4.5c0,0.1,0.1,0.1,0.2,0.1c0.7,0,1.4,0,2.1,0c0.3,0,0.6,0,0.9,0C-52.4-578.1-52.8-580.2-52.8-582.4z
			 M-29.6-583.7c-0.1-0.5-0.1-1-0.2-1.5c-0.3-1.5-0.8-2.9-1.5-4.3c0-0.1-0.1-0.1-0.2-0.1c-1,0-2,0-3.1,0c0,0-0.1,0-0.1,0
			c0,0,0,0.1,0,0.1c0.6,1.9,0.9,3.7,1,5.7c0,0.1,0.1,0.1,0.2,0.1c1.3,0,2.5,0,3.8,0C-29.7-583.7-29.7-583.7-29.6-583.7z M-50-574.9
			C-49.9-574.8-49.9-574.8-50-574.9c0.7,1.5,1.6,2.9,2.8,3.9c0.8,0.7,1.7,1.2,2.7,1.4c0.1,0,0.3,0.1,0.5,0.1c0-1.8,0-3.7,0-5.5
			C-46-574.9-48-574.9-50-574.9z M-52.8-583.6c0.1-2,0.4-4,1-5.9c-0.1,0-0.1,0-0.1,0c-1,0-2,0-2.9,0c-0.1,0-0.1,0-0.2,0.1
			c-0.2,0.5-0.4,0.9-0.6,1.4c-0.5,1.1-0.8,2.2-0.9,3.4c0,0.3-0.1,0.7-0.1,1C-55.4-583.6-54.1-583.6-52.8-583.6z M-32.2-590.9
			c-1.6-2.2-3.6-3.7-6.1-4.7c0.3,0.3,0.6,0.6,0.9,1c0.9,1.1,1.6,2.3,2.2,3.7c0,0.1,0.1,0.1,0.2,0.1c0.9,0,1.8,0,2.7,0
			C-32.3-590.8-32.2-590.9-32.2-590.9z M-38.3-570.2c2.5-1,4.5-2.5,6.1-4.7c-0.1,0-0.2,0-0.2,0c-0.9,0-1.8,0-2.6,0
			c-0.1,0-0.2,0-0.2,0.2c-0.5,1.2-1.1,2.4-2,3.4C-37.6-571-37.9-570.6-38.3-570.2z M-48.4-595.4c-1.6,0.4-5.2,3.3-5.8,4.6
			c0.1,0,0.1,0,0.1,0c0.8,0,1.6,0,2.5,0c0.1,0,0.2,0,0.3-0.2c0.6-1.5,1.4-2.8,2.4-4C-48.7-595.1-48.5-595.2-48.4-595.4z
			 M-48.4-570.4c-0.3-0.3-0.5-0.6-0.8-0.8c-0.9-1-1.6-2.2-2.1-3.5c0-0.1-0.1-0.2-0.2-0.2c-0.8,0-1.6,0-2.4,0c0,0-0.1,0-0.2,0
			C-52.5-572.8-50.7-571.4-48.4-570.4z"/>
	</g>
	<g>
		<g>
			<path d="M-192-589.8c0.6,0,1.1-0.5,1.1-1.1c0-0.4-0.2-0.7-0.4-0.9c0.4-1.7,1.9-3,3.7-3c2.1,0,3.9,1.7,3.9,3.9
				c0,2.1-1.7,3.9-3.9,3.9h-0.7v3.7h1.4v-2.4c2.6-0.3,4.5-2.5,4.5-5.2c0-2.9-2.3-5.2-5.2-5.2c-2.6,0-4.7,1.9-5.1,4.4
				c-0.3,0.2-0.4,0.5-0.4,0.9C-193.1-590.3-192.6-589.8-192-589.8z"/>
			<path d="M-211.4-569.6c0.4-2.6,2.7-3.6,5.3-3.6c4.2,0,8.3,0,12.5,0c2.7,0,5.2-2.1,5.4-5h1.4c0.2,2.9,2.6,5,5.4,5
				c4.2,0,8.3,0,12.5,0c2.6,0,5,1,5.3,3.6h0.1c0-0.5,0-1.2,0-2c0-3.1-2.5-5.4-5.4-5.4c-4.2,0-8.3,0-12.5,0c-2.7,0-5.1-2-5.4-4.8
				l0-0.5h-1.3l0,0c0,3.1-2.5,5.4-5.4,5.4c-4.2,0-8.3,0-12.5,0c-2.9,0-5.4,2.3-5.4,5.4C-211.5-570.8-211.5-570.1-211.4-569.6
				L-211.4-569.6z"/>
		</g>
	</g>
	<g>
		<g>
			<path d="M-230.3-582.6c0,1.3,1.1,2.4,2.4,2.4c1.3,0,2.4-1.1,2.4-2.4c0-1.3-1.1-2.3-2.3-2.3C-229.2-585-230.3-583.9-230.3-582.6z"
				/>
			<path d="M-243.4-580.3c1.3,0,2.4-1.1,2.3-2.4c0-1.3-1.1-2.4-2.4-2.4c-1.3,0-2.3,1.1-2.3,2.4
				C-245.8-581.3-244.7-580.3-243.4-580.3z"/>
			<path d="M-221.6-589.7c-0.2-0.2-0.4-0.2-0.7-0.1c-0.7,0.3-1.4,0.6-2.1,0.9c-0.4,0.1-0.8,0.2-1.2,0.3c0.2,0.1,0.3,0.1,0.4,0.2
				c2.2,1.1,3.5,2.9,3.7,5.4c0.2,2.8-1.5,5.3-4.1,6.3c-2.7,1.1-6.1-0.4-7.3-2.1c-1.6-2.2-1.5-5.3,0.2-7.6c1.4-1.8,3.3-2.8,5.5-3.5
				c1.5-0.4,3-0.9,4.4-1.6c1.7-0.8,2.8-2.2,3.3-3.9c0.1-0.4,0.2-0.8,0.3-1.3c0-0.1,0-0.2,0-0.3v-0.3h-0.5h-0.2v0.3v0
				c0,1.7-1.1,3-2.7,3.1c-0.1,0-0.2,0-0.3,0c-1,0-2.2-0.3-3.5-0.7c-0.7-0.3-1.4-0.6-2.2-1c-1.2-0.6-2.7-1.3-4.2-1.3
				c-1.1,0-2.1,0.4-2.8,1.3c-0.7-0.9-1.7-1.3-2.8-1.3c-1.5,0-2.9,0.7-4.2,1.3c-0.8,0.4-1.5,0.7-2.2,1c-1.3,0.5-2.5,0.8-3.5,0.8
				c-0.1,0-0.2,0-0.3,0c-1.6-0.1-2.7-1.4-2.7-3.1v0c-0.1-0.1-0.1-0.2-0.2-0.3h-0.5v0.3c0,0.1,0,0.2,0,0.3c0.1,0.4,0.1,0.9,0.3,1.3
				c0.6,2,2,3.5,4.2,4.4c1.2,0.5,2.5,0.8,3.8,1.2c1.8,0.5,3.3,1.4,4.6,2.7c1.6,1.7,2.3,3.6,1.8,5.9c-0.5,2.7-2.5,4.4-5.7,4.8
				c-2.5,0.3-5-1.1-6.1-3.5c-1.1-2.3-0.8-5.1,0.9-7c0.7-0.8,1.5-1.3,2.5-1.7c-0.2-0.1-0.3-0.1-0.4-0.1c-1-0.4-2-0.7-3-1.1
				c-0.3-0.1-0.5-0.1-0.8,0.1c-5.2,4.7-3.7,13.2,2.9,15.9c0.3,0.1,0.5,0.3,0.7,0.5c2.5,2.7,5.5,4.5,9.2,4.8
				c4.7,0.4,8.5-1.2,11.7-4.6c0.3-0.4,0.7-0.6,1.1-0.8C-217.8-576.7-216.4-585.1-221.6-589.7z M-235.7-571.1c-1-1.2-1.9-2.3-2.7-3.3
				c0.9-0.9,1.9-1.8,2.7-2.6c0.9,0.8,1.8,1.7,2.7,2.6C-233.8-573.4-234.7-572.3-235.7-571.1z"/>
		</g>
	</g>
	<g>
		<g>
			<path d="M-263.9-543.3c-4.2,0-7.1-3.3-7.3-7.4c-0.1-2,0-6.8,3.8-15.1c2-4.5,5.3-12.3-0.3-17c5.6-4.8,2.4-12.5,0.3-17
				c-3.7-8.3-3.8-13.1-3.8-15.1c0.2-4.1,3.1-7.4,7.3-7.4v-0.4c-4.3,0-7.5,3.1-7.8,7.9c-0.8,10.6,3.8,16.1,4.3,24.4
				c0.3,4.2-3.2,7.4-7.2,7.4v0.7c4,0,7.5,3.2,7.2,7.4c-0.5,8.2-5.1,13.8-4.3,24.4c0.4,4.8,3.5,7.9,7.8,7.9V-543.3z"/>
		</g>
	</g>
	<g>
		<g>
			<path d="M-14.9-543.3c4.2,0,7.1-3.3,7.3-7.4c0.1-2,0-6.8-3.8-15.1c-2-4.5-5.3-12.3,0.3-17c-5.6-4.8-2.4-12.5-0.3-17
				c3.7-8.3,3.8-13.1,3.8-15.1c-0.2-4.1-3.1-7.4-7.3-7.4v-0.4c4.3,0,7.5,3.1,7.8,7.9c0.8,10.6-3.8,16.1-4.3,24.4
				c-0.3,4.2,3.2,7.4,7.2,7.4v0.7c-4,0-7.5,3.2-7.2,7.4c0.5,8.2,5,13.8,4.3,24.4c-0.4,4.8-3.5,7.9-7.8,7.9V-543.3z"/>
		</g>
	</g>
</g>
<g>
	<g>
		
			<line fill="none" stroke="#27AAE1" stroke-width="0.5" stroke-linecap="round" stroke-linejoin="round" x1="307" y1="-449.4" x2="307.5" y2="-449.4"/>
		
			<line fill="none" stroke="#27AAE1" stroke-width="0.5" stroke-linecap="round" stroke-linejoin="round" stroke-dasharray="1.0014,2.0028,1.0014,2.0028" x1="309.5" y1="-449.4" x2="314.5" y2="-449.4"/>
		
			<line fill="none" stroke="#27AAE1" stroke-width="0.5" stroke-linecap="round" stroke-linejoin="round" stroke-dasharray="1.0014,2.0028,1.0014,2.0028,1.0014,2.0028" x1="315.5" y1="-449.4" x2="350.6" y2="-449.4"/>
		
			<line fill="none" stroke="#27AAE1" stroke-width="0.5" stroke-linecap="round" stroke-linejoin="round" x1="351.6" y1="-449.4" x2="352.1" y2="-449.4"/>
	</g>
</g>
<g>
	<g>
		
			<line fill="none" stroke="#27AAE1" stroke-width="0.5" stroke-linecap="round" stroke-linejoin="round" x1="298.3" y1="-411.9" x2="298.8" y2="-411.9"/>
		
			<line fill="none" stroke="#27AAE1" stroke-width="0.5" stroke-linecap="round" stroke-linejoin="round" stroke-dasharray="0.9954,1.9907,0.9954,1.9907" x1="300.8" y1="-411.9" x2="305.8" y2="-411.9"/>
		
			<line fill="none" stroke="#27AAE1" stroke-width="0.5" stroke-linecap="round" stroke-linejoin="round" stroke-dasharray="0.9954,1.9907,0.9954,1.9907,0.9954,1.9907" x1="306.8" y1="-411.9" x2="350.6" y2="-411.9"/>
		
			<line fill="none" stroke="#27AAE1" stroke-width="0.5" stroke-linecap="round" stroke-linejoin="round" x1="351.6" y1="-411.9" x2="352.1" y2="-411.9"/>
	</g>
</g>
<g>
	<g>
		
			<line fill="none" stroke="#27AAE1" stroke-width="0.5" stroke-linecap="round" stroke-linejoin="round" x1="307" y1="-324.3" x2="307.5" y2="-324.3"/>
		
			<line fill="none" stroke="#27AAE1" stroke-width="0.5" stroke-linecap="round" stroke-linejoin="round" stroke-dasharray="1.0014,2.0028,1.0014,2.0028" x1="309.5" y1="-324.3" x2="314.5" y2="-324.3"/>
		
			<line fill="none" stroke="#27AAE1" stroke-width="0.5" stroke-linecap="round" stroke-linejoin="round" stroke-dasharray="1.0014,2.0028,1.0014,2.0028,1.0014,2.0028" x1="315.5" y1="-324.3" x2="350.6" y2="-324.3"/>
		
			<line fill="none" stroke="#27AAE1" stroke-width="0.5" stroke-linecap="round" stroke-linejoin="round" x1="351.6" y1="-324.3" x2="352.1" y2="-324.3"/>
	</g>
</g>
<g>
	<g>
		
			<line fill="none" stroke="#27AAE1" stroke-width="0.5" stroke-linecap="round" stroke-linejoin="round" x1="274.8" y1="-287.2" x2="275.3" y2="-287.2"/>
		
			<line fill="none" stroke="#27AAE1" stroke-width="0.5" stroke-linecap="round" stroke-linejoin="round" stroke-dasharray="0.9534,1.9069,0.9534,1.9069" x1="277.2" y1="-287.2" x2="282" y2="-287.2"/>
		
			<line fill="none" stroke="#27AAE1" stroke-width="0.5" stroke-linecap="round" stroke-linejoin="round" stroke-dasharray="0.9534,1.9069,0.9534,1.9069,0.9534,1.9069" x1="282.9" y1="-287.2" x2="350.6" y2="-287.2"/>
		
			<line fill="none" stroke="#27AAE1" stroke-width="0.5" stroke-linecap="round" stroke-linejoin="round" x1="351.6" y1="-287.2" x2="352.1" y2="-287.2"/>
	</g>
</g>
<g>
	<g>
		
			<line fill="none" stroke="#27AAE1" stroke-width="0.5" stroke-linecap="round" stroke-linejoin="round" x1="322.3" y1="-351.3" x2="322.8" y2="-351.3"/>
		
			<line fill="none" stroke="#27AAE1" stroke-width="0.5" stroke-linecap="round" stroke-linejoin="round" stroke-dasharray="1.1056,2.2112,1.1056,2.2112" x1="325.1" y1="-351.3" x2="330.6" y2="-351.3"/>
		
			<line fill="none" stroke="#27AAE1" stroke-width="0.5" stroke-linecap="round" stroke-linejoin="round" stroke-dasharray="1.1056,2.2112,1.1056,2.2112,1.1056,2.2112" x1="331.7" y1="-351.3" x2="350.5" y2="-351.3"/>
		
			<line fill="none" stroke="#27AAE1" stroke-width="0.5" stroke-linecap="round" stroke-linejoin="round" x1="351.6" y1="-351.3" x2="352.1" y2="-351.3"/>
	</g>
</g>
<g>
	<g>
		
			<line fill="none" stroke="#27AAE1" stroke-width="0.5" stroke-linecap="round" stroke-linejoin="round" x1="142.8" y1="-558.3" x2="142.8" y2="-557.8"/>
		
			<line fill="none" stroke="#27AAE1" stroke-width="0.5" stroke-linecap="round" stroke-linejoin="round" stroke-dasharray="1.107,2.2141,1.107,2.2141" x1="142.8" y1="-555.6" x2="142.8" y2="-550.1"/>
		
			<line fill="none" stroke="#27AAE1" stroke-width="0.5" stroke-linecap="round" stroke-linejoin="round" stroke-dasharray="1.107,2.2141,1.107,2.2141,1.107,2.2141" x1="142.8" y1="-549" x2="142.8" y2="-520.2"/>
		
			<line fill="none" stroke="#27AAE1" stroke-width="0.5" stroke-linecap="round" stroke-linejoin="round" x1="142.8" y1="-519.1" x2="142.8" y2="-518.6"/>
	</g>
</g>
<g>
	<g>
		
			<line fill="none" stroke="#27AAE1" stroke-width="0.5" stroke-linecap="round" stroke-linejoin="round" x1="110.1" y1="-665.8" x2="110.1" y2="-665.3"/>
		
			<line fill="none" stroke="#27AAE1" stroke-width="0.5" stroke-linecap="round" stroke-linejoin="round" stroke-dasharray="0.9509,1.9018,0.9509,1.9018" x1="110.1" y1="-663.4" x2="110.1" y2="-658.6"/>
		
			<line fill="none" stroke="#27AAE1" stroke-width="0.5" stroke-linecap="round" stroke-linejoin="round" stroke-dasharray="0.9509,1.9018,0.9509,1.9018,0.9509,1.9018" x1="110.1" y1="-657.7" x2="110.1" y2="-624.4"/>
		
			<line fill="none" stroke="#27AAE1" stroke-width="0.5" stroke-linecap="round" stroke-linejoin="round" x1="110.1" y1="-623.4" x2="110.1" y2="-622.9"/>
	</g>
</g>
<g>
	<g>
		
			<line fill="none" stroke="#27AAE1" stroke-width="0.5" stroke-linecap="round" stroke-linejoin="round" x1="368.3" y1="-665.8" x2="368.3" y2="-665.3"/>
		
			<line fill="none" stroke="#27AAE1" stroke-width="0.5" stroke-linecap="round" stroke-linejoin="round" stroke-dasharray="0.9509,1.9018,0.9509,1.9018" x1="368.3" y1="-663.4" x2="368.3" y2="-658.6"/>
		
			<line fill="none" stroke="#27AAE1" stroke-width="0.5" stroke-linecap="round" stroke-linejoin="round" stroke-dasharray="0.9509,1.9018,0.9509,1.9018,0.9509,1.9018" x1="368.3" y1="-657.7" x2="368.3" y2="-624.4"/>
		
			<line fill="none" stroke="#27AAE1" stroke-width="0.5" stroke-linecap="round" stroke-linejoin="round" x1="368.3" y1="-623.4" x2="368.3" y2="-622.9"/>
	</g>
</g>
<g>
	<g>
		
			<line fill="none" stroke="#27AAE1" stroke-width="0.5" stroke-linecap="round" stroke-linejoin="round" x1="239.2" y1="-558.3" x2="239.2" y2="-557.8"/>
		
			<line fill="none" stroke="#27AAE1" stroke-width="0.5" stroke-linecap="round" stroke-linejoin="round" stroke-dasharray="1.107,2.2141,1.107,2.2141" x1="239.2" y1="-555.6" x2="239.2" y2="-550.1"/>
		
			<line fill="none" stroke="#27AAE1" stroke-width="0.5" stroke-linecap="round" stroke-linejoin="round" stroke-dasharray="1.107,2.2141,1.107,2.2141,1.107,2.2141" x1="239.2" y1="-549" x2="239.2" y2="-520.2"/>
		
			<line fill="none" stroke="#27AAE1" stroke-width="0.5" stroke-linecap="round" stroke-linejoin="round" x1="239.2" y1="-519.1" x2="239.2" y2="-518.6"/>
	</g>
</g>
<g>
	<g>
		
			<line fill="none" stroke="#27AAE1" stroke-width="0.5" stroke-linecap="round" stroke-linejoin="round" x1="335.6" y1="-558.3" x2="335.6" y2="-557.8"/>
		
			<line fill="none" stroke="#27AAE1" stroke-width="0.5" stroke-linecap="round" stroke-linejoin="round" stroke-dasharray="1.107,2.2141,1.107,2.2141" x1="335.6" y1="-555.6" x2="335.6" y2="-550.1"/>
		
			<line fill="none" stroke="#27AAE1" stroke-width="0.5" stroke-linecap="round" stroke-linejoin="round" stroke-dasharray="1.107,2.2141,1.107,2.2141,1.107,2.2141" x1="335.6" y1="-549" x2="335.6" y2="-520.2"/>
		
			<line fill="none" stroke="#27AAE1" stroke-width="0.5" stroke-linecap="round" stroke-linejoin="round" x1="335.6" y1="-519.1" x2="335.6" y2="-518.6"/>
	</g>
</g>
<g>
	<g>
		
			<line fill="none" stroke="#27AAE1" stroke-width="0.5" stroke-linecap="round" stroke-linejoin="round" x1="191" y1="-647.1" x2="191" y2="-646.6"/>
		
			<line fill="none" stroke="#27AAE1" stroke-width="0.5" stroke-linecap="round" stroke-linejoin="round" stroke-dasharray="1.107,2.2141,1.107,2.2141" x1="191" y1="-644.4" x2="191" y2="-638.9"/>
		
			<line fill="none" stroke="#27AAE1" stroke-width="0.5" stroke-linecap="round" stroke-linejoin="round" stroke-dasharray="1.107,2.2141,1.107,2.2141,1.107,2.2141" x1="191" y1="-637.8" x2="191" y2="-609"/>
		
			<line fill="none" stroke="#27AAE1" stroke-width="0.5" stroke-linecap="round" stroke-linejoin="round" x1="191" y1="-607.9" x2="191" y2="-607.4"/>
	</g>
</g>
<g>
	<g>
		
			<line fill="none" stroke="#27AAE1" stroke-width="0.5" stroke-linecap="round" stroke-linejoin="round" x1="287.4" y1="-647.1" x2="287.4" y2="-646.6"/>
		
			<line fill="none" stroke="#27AAE1" stroke-width="0.5" stroke-linecap="round" stroke-linejoin="round" stroke-dasharray="1.107,2.2141,1.107,2.2141" x1="287.4" y1="-644.4" x2="287.4" y2="-638.9"/>
		
			<line fill="none" stroke="#27AAE1" stroke-width="0.5" stroke-linecap="round" stroke-linejoin="round" stroke-dasharray="1.107,2.2141,1.107,2.2141,1.107,2.2141" x1="287.4" y1="-637.8" x2="287.4" y2="-609"/>
		
			<line fill="none" stroke="#27AAE1" stroke-width="0.5" stroke-linecap="round" stroke-linejoin="round" x1="287.4" y1="-607.9" x2="287.4" y2="-607.4"/>
	</g>
</g>
<g>
	<g>
		
			<line fill="none" stroke="#27AAE1" stroke-width="0.5" stroke-linecap="round" stroke-linejoin="round" x1="401.3" y1="-558.3" x2="401.3" y2="-557.8"/>
		
			<line fill="none" stroke="#27AAE1" stroke-width="0.5" stroke-linecap="round" stroke-linejoin="round" stroke-dasharray="0.8534,1.7067,0.8534,1.7067" x1="401.3" y1="-556.1" x2="401.3" y2="-551.8"/>
		
			<line fill="none" stroke="#27AAE1" stroke-width="0.5" stroke-linecap="round" stroke-linejoin="round" stroke-dasharray="0.8534,1.7067,0.8534,1.7067,0.8534,1.7067" x1="401.3" y1="-551" x2="401.3" y2="-536.5"/>
		
			<line fill="none" stroke="#27AAE1" stroke-width="0.5" stroke-linecap="round" stroke-linejoin="round" x1="401.3" y1="-535.6" x2="401.3" y2="-535.1"/>
	</g>
</g>
<g>
	<g>
		
			<line fill="none" stroke="#27AAE1" stroke-width="0.5" stroke-linecap="round" stroke-linejoin="round" x1="201.9" y1="-411.9" x2="201.4" y2="-411.9"/>
		
			<line fill="none" stroke="#27AAE1" stroke-width="0.5" stroke-linecap="round" stroke-linejoin="round" stroke-dasharray="0.9954,1.9907,0.9954,1.9907" x1="199.4" y1="-411.9" x2="194.4" y2="-411.9"/>
		
			<line fill="none" stroke="#27AAE1" stroke-width="0.5" stroke-linecap="round" stroke-linejoin="round" stroke-dasharray="0.9954,1.9907,0.9954,1.9907,0.9954,1.9907" x1="193.4" y1="-411.9" x2="149.6" y2="-411.9"/>
		
			<line fill="none" stroke="#27AAE1" stroke-width="0.5" stroke-linecap="round" stroke-linejoin="round" x1="148.6" y1="-411.9" x2="148.1" y2="-411.9"/>
	</g>
</g>
<g>
	<g>
		
			<line fill="none" stroke="#27AAE1" stroke-width="0.5" stroke-linecap="round" stroke-linejoin="round" x1="193.2" y1="-324.3" x2="192.7" y2="-324.3"/>
		
			<line fill="none" stroke="#27AAE1" stroke-width="0.5" stroke-linecap="round" stroke-linejoin="round" stroke-dasharray="1.0014,2.0028,1.0014,2.0028" x1="190.7" y1="-324.3" x2="185.7" y2="-324.3"/>
		
			<line fill="none" stroke="#27AAE1" stroke-width="0.5" stroke-linecap="round" stroke-linejoin="round" stroke-dasharray="1.0014,2.0028,1.0014,2.0028,1.0014,2.0028" x1="184.7" y1="-324.3" x2="149.6" y2="-324.3"/>
		
			<line fill="none" stroke="#27AAE1" stroke-width="0.5" stroke-linecap="round" stroke-linejoin="round" x1="148.6" y1="-324.3" x2="148.1" y2="-324.3"/>
	</g>
</g>
<g>
	<g>
		
			<line fill="none" stroke="#27AAE1" stroke-width="0.5" stroke-linecap="round" stroke-linejoin="round" x1="177.9" y1="-362.6" x2="177.4" y2="-362.6"/>
		
			<line fill="none" stroke="#27AAE1" stroke-width="0.5" stroke-linecap="round" stroke-linejoin="round" stroke-dasharray="1.1056,2.2112,1.1056,2.2112" x1="175.1" y1="-362.6" x2="169.6" y2="-362.6"/>
		
			<line fill="none" stroke="#27AAE1" stroke-width="0.5" stroke-linecap="round" stroke-linejoin="round" stroke-dasharray="1.1056,2.2112,1.1056,2.2112,1.1056,2.2112" x1="168.5" y1="-362.6" x2="149.7" y2="-362.6"/>
		
			<line fill="none" stroke="#27AAE1" stroke-width="0.5" stroke-linecap="round" stroke-linejoin="round" x1="148.6" y1="-362.6" x2="148.1" y2="-362.6"/>
	</g>
</g>
<rect x="50.1" y="-680.2" fill="none" width="118.9" height="9.5"/>
<text transform="matrix(1 0 0 1 62.238 -673.7956)" font-family="'DIN-Regular'" font-size="9">5points_bracket_left.png</text>
<rect x="154" y="-660.2" fill="none" width="73.8" height="9.5"/>
<text transform="matrix(1 0 0 1 170.5895 -653.7956)" font-family="'DIN-Regular'" font-size="9">tailored.gif</text>
<rect x="105.5" y="-514.1" fill="none" width="73.8" height="9.5"/>
<text transform="matrix(1 0 0 1 119.3444 -507.6774)" font-family="'DIN-Regular'" font-size="9">expertise.gif</text>
<rect x="356.8" y="-453.4" fill="none" width="118.1" height="9.5"/>
<text transform="matrix(1 0 0 1 356.7809 -447.0109)" font-family="'DIN-Regular'" font-size="9">5points_vbracket_top.png</text>
<rect x="356.8" y="-416" fill="none" width="73.8" height="9.5"/>
<text transform="matrix(1 0 0 1 356.7809 -409.5602)" font-family="'DIN-Regular'" font-size="9">tailored.gif</text>
<rect x="71.2" y="-416" fill="none" width="73.8" height="9.5"/>
<text transform="matrix(1 0 0 1 98.9089 -409.5602)" font-family="'DIN-Regular'" font-size="9">expertise.gif</text>
<rect x="71.2" y="-366.6" fill="none" width="73.8" height="9.5"/>
<text transform="matrix(1 0 0 1 87.4606 -360.1754)" font-family="'DIN-Regular'" font-size="9">consultative.gif</text>
<rect x="71.2" y="-328.3" fill="none" width="73.8" height="9.5"/>
<text transform="matrix(1 0 0 1 93.3913 -321.902)" font-family="'DIN-Regular'" font-size="9">file_name.xxx</text>
<rect x="356.8" y="-355.2" fill="none" width="73.8" height="9.5"/>
<text transform="matrix(1 0 0 1 356.7809 -348.8424)" font-family="'DIN-Regular'" font-size="9">global.gif</text>
<g>
	<g>
		
			<line fill="none" stroke="#27AAE1" stroke-width="0.5" stroke-linecap="round" stroke-linejoin="round" x1="273.3" y1="-372.6" x2="273.8" y2="-372.6"/>
		
			<line fill="none" stroke="#27AAE1" stroke-width="0.5" stroke-linecap="round" stroke-linejoin="round" stroke-dasharray="0.972,1.944,0.972,1.944" x1="275.8" y1="-372.6" x2="280.6" y2="-372.6"/>
		
			<line fill="none" stroke="#27AAE1" stroke-width="0.5" stroke-linecap="round" stroke-linejoin="round" stroke-dasharray="0.972,1.944,0.972,1.944,0.972,1.944" x1="281.6" y1="-372.6" x2="350.6" y2="-372.6"/>
		
			<line fill="none" stroke="#27AAE1" stroke-width="0.5" stroke-linecap="round" stroke-linejoin="round" x1="351.6" y1="-372.6" x2="352.1" y2="-372.6"/>
	</g>
</g>
<rect x="356.8" y="-376.6" fill="none" width="73.8" height="9.5"/>
<text transform="matrix(1 0 0 1 356.7809 -370.1764)" font-family="'DIN-Regular'" font-size="9">transparent.gif</text>
<rect x="356.8" y="-328.7" fill="none" width="126.3" height="9.5"/>
<text transform="matrix(1 0 0 1 356.7809 -322.3136)" font-family="'DIN-Regular'" font-size="9">5points_vbracket_bottom.png</text>
<rect x="356.8" y="-291.3" fill="none" width="73.8" height="9.5"/>
<text transform="matrix(1 0 0 1 356.7809 -284.8629)" font-family="'DIN-Regular'" font-size="9">ak_5points.png</text>
<rect x="202.9" y="-514.1" fill="none" width="73.8" height="9.5"/>
<text transform="matrix(1 0 0 1 211.0329 -507.6774)" font-family="'DIN-Regular'" font-size="9">consultative.gif</text>
<rect x="298.8" y="-514.1" fill="none" width="73.8" height="9.5"/>
<text transform="matrix(1 0 0 1 317.9831 -507.6774)" font-family="'DIN-Regular'" font-size="9">global.gif</text>
<rect x="365.1" y="-532.1" fill="none" width="73.8" height="9.5"/>
<text transform="matrix(1 0 0 1 372.7604 -525.6774)" font-family="'DIN-Regular'" font-size="9">ak_5points.png</text>
<rect x="251.5" y="-660.2" fill="none" width="73.8" height="9.5"/>
<text transform="matrix(1 0 0 1 260.6862 -653.7956)" font-family="'DIN-Regular'" font-size="9">transparent.gif</text>
<rect x="311.5" y="-680.2" fill="none" width="114.6" height="9.5"/>
<text transform="matrix(1 0 0 1 318.6051 -673.7956)" font-family="'DIN-Regular'" font-size="9">5points_bracket_right.png</text>
</svg>
