<?xml version="1.0" encoding="utf-8"?>
<!-- Generator: Adobe Illustrator 18.1.1, SVG Export Plug-In . SVG Version: 6.00 Build 0)  -->
<svg version="1.1" id="Layer_1" xmlns="http://www.w3.org/2000/svg" xmlns:xlink="http://www.w3.org/1999/xlink" x="0px" y="0px"
     viewBox="0 0 31.4 129.8" enable-background="new 0 0 31.4 129.8" xml:space="preserve">
<path fill="#231F20" d="M22.1,7.3c0,0-2.8,0-4.8,0c-4.4,0-7.7,3.6-7.7,7.8c0,3.8,0,8.4,0,12.9h0v36.7c3.4-0.9,5.8-4,5.8-7.5
    c0-6.1,0-36,0-42.1c0-4.1,3.3-7.8,7.7-7.8H22.1z"/>
<path fill="#231F20" d="M15.5,114.2c0-6.1,0-36,0-42.1c0-3.5-2.4-6.6-5.8-7.5v40.6h0c0,3.2,0,6.3,0,9c0,4.1,3.3,7.8,7.7,7.8
    c2,0,4.8,0,4.8,0l1,0C18.7,122,15.5,118.3,15.5,114.2z"/>
</svg>
