<?xml version="1.0" encoding="utf-8"?>
<!-- Generator: Adobe Illustrator 18.1.1, SVG Export Plug-In . SVG Version: 6.00 Build 0)  -->
<svg version="1.1" id="Layer_1" xmlns="http://www.w3.org/2000/svg" xmlns:xlink="http://www.w3.org/1999/xlink" x="0px" y="0px"
     viewBox="0 0 264.2 178.8" enable-background="new 0 0 264.2 178.8" xml:space="preserve">
<path d="M252,174.1l-42.3-79.1c15.2,0,24.6-4.3,29.8-7.9c4.1-2.8,7-6.6,8.8-10.8c0.1-0.2,0.3-0.8,0.4-0.9c0.3-0.8,0.6-1.7,0.8-2.6
    c0.4-1.7,0.7-3.5,0.7-5.4c0-10.5-7.3-19.2-17-21.5c-1.6-0.4-3.3-0.6-5.1-0.6l0,0c-12.2,0-22.1,9.9-22.1,22.1
    c0,12.2,9.9,22.1,22.1,22.1c0.4,0,0.8,0,1.2,0c1.6,0,3.1-0.3,4.6-0.6c-5.4,2.6-13.3,4.9-24.3,4.9h-37.9V2.5h5V1h-43.9v1.5h5
    c0,128.3,0,166.2,0,171.7h-5v1.5h43.9v-1.5h-5V93.9c1.5,2.6,36.3,65.8,42.8,80.2H210v1.5h47.3v-1.5H252z"/>
<path d="M117.5,174.1V79.1c0-30.8-19.8-43.8-37.7-45.9c-13.6-1.7-24.8-0.5-34.4,2.2c-11.2,2.9-23.4,8.3-30.1,18.2
    c-1.1,1.6-2,3.4-2.8,5.3c-1.1,2.7-1.8,5.6-1.8,8.7c0,0,0,0,0,0c0,1.5,0.2,3,0.5,4.5c2.1,10.1,11,17.6,21.6,17.7c0,0,0,0,0.1,0
    c12.2,0,22.1-9.9,22.1-22.1c0-0.8,0-1.5-0.1-2.2c-1.1-11.2-10.6-19.9-22-19.9c-4.2,0-8.2,1.2-11.5,3.2c4.4-3.9,11.3-8.3,22.1-11.4
    C62.3,33,83.4,44.3,83.4,67c-0.1,14.4-7.6,25.5-20.1,30.1c-6.7,2.5-12.3,1.3-25,4.2c-20.8,4.8-36,18.3-34.2,40.3
    c1.7,20.2,18.9,37.1,39.6,37.1c0.5,0,1.5,0,1.5,0c20.2-0.7,34.2-14.5,38.2-29.8c0,12.7,0,22.4,0,25.1h-5v1.5h44v-1.5H117.5z
     M83.5,139.8c0,9.2-3.9,18.6-10.8,25.7c-0.5,0.5-1,1-1.6,1.5c-8.7,6.5-31.8,4.3-31.8-21.2c0-5.3,0-13.6,0-18.8
    c0-22.3,19.6-26.7,24-28.7c10.3-3.8,17.4-11.7,20.1-22.3C83.5,92.5,83.5,139.8,83.5,139.8z"/>
<polyline fill="none" stroke="#000000" stroke-width="0.5" stroke-miterlimit="10" points="-190.6,202.6 -190.6,207.2 -133.8,207.2 
    -133.8,203.3 "/>
<line fill="none" stroke="#000000" stroke-width="0.5" stroke-miterlimit="10" x1="-162" y1="207.8" x2="-162" y2="216.5"/>
<text transform="matrix(1 0 0 1 -191.9404 233.9214)"><tspan x="0" y="0" font-family="'DIN-LightAlternate'" font-size="10">Minimum size: </tspan><tspan x="-4.3" y="13" font-family="'DIN-LightAlternate'" font-size="10">20mm / 57pixels</tspan></text>
<path d="M-135,188.6l-9.4-17.6c3.4,0,5.5-1,6.7-1.8c0.9-0.6,1.6-1.5,2-2.4c0,0,0.1-0.2,0.1-0.2c0.1-0.2,0.1-0.4,0.2-0.6
    c0.1-0.4,0.1-0.8,0.1-1.2c0-2.3-1.6-4.3-3.8-4.8c-0.4-0.1-0.7-0.1-1.1-0.1l0,0c-2.7,0-4.9,2.2-4.9,4.9s2.2,4.9,4.9,4.9
    c0.1,0,0.2,0,0.3,0c0.3,0,0.7-0.1,1-0.1c-1.2,0.6-3,1.1-5.4,1.1h-8.4v-20.4h1.1v-0.3h-9.8v0.3h1.1c0,28.6,0,37.1,0,38.3h-1.1v0.3
    h9.8v-0.3h-1.1v-17.9c0.3,0.6,8.1,14.7,9.6,17.9h-1v0.3h10.6v-0.3H-135z"/>
<rect x="-198.1" y="314.1" width="72.9" height="73.2"/>
<g>
    <path fill="#FFFFFF" d="M-135,368.6l-9.4-17.6c3.4,0,5.5-1,6.7-1.8c0.9-0.6,1.6-1.5,2-2.4c0,0,0.1-0.2,0.1-0.2
        c0.1-0.2,0.1-0.4,0.2-0.6c0.1-0.4,0.1-0.8,0.1-1.2c0-2.3-1.6-4.3-3.8-4.8c-0.4-0.1-0.7-0.1-1.1-0.1l0,0c-2.7,0-4.9,2.2-4.9,4.9
        c0,2.7,2.2,4.9,4.9,4.9c0.1,0,0.2,0,0.3,0c0.3,0,0.7-0.1,1-0.1c-1.2,0.6-3,1.1-5.4,1.1h-8.4v-20.4h1.1v-0.3h-9.8v0.3h1.1
        c0,28.6,0,37.1,0,38.3h-1.1v0.3h9.8v-0.3h-1.1v-17.9c0.3,0.6,8.1,14.7,9.6,17.9h-1v0.3h10.6v-0.3H-135z"/>
    <g>
        <path fill="#FFFFFF" d="M-165,368.6v-21.2c0-6.9-4.4-9.8-8.4-10.3c-3-0.4-5.5-0.1-7.7,0.5c-2.5,0.6-5.2,1.8-6.7,4.1
            c-0.2,0.4-0.5,0.8-0.6,1.2c-0.3,0.6-0.4,1.2-0.4,1.9c0,0,0,0,0,0c0,0.3,0,0.7,0.1,1c0.5,2.2,2.4,3.9,4.8,3.9c0,0,0,0,0,0
            c2.7,0,4.9-2.2,4.9-4.9c0-0.2,0-0.3,0-0.5c-0.2-2.5-2.4-4.4-4.9-4.4c-0.9,0-1.8,0.3-2.6,0.7c1-0.9,2.5-1.9,4.9-2.5
            c4.2-0.9,8.9,1.6,8.9,6.7c0,3.2-1.7,5.7-4.5,6.7c-1.5,0.6-2.7,0.3-5.6,0.9c-4.6,1.1-8,4.1-7.6,9c0.4,4.5,4.2,8.3,8.8,8.3
            c0.1,0,0.3,0,0.3,0c4.5-0.1,7.6-3.2,8.5-6.6c0,2.8,0,5,0,5.6h-1.1v0.3h9.8v-0.3H-165z M-172.6,360.9c0,2.1-0.9,4.2-2.4,5.7
            c-0.1,0.1-0.2,0.2-0.4,0.3c-1.9,1.5-7.1,1-7.1-4.7c0-1.2,0-3,0-4.2c0-5,4.4-6,5.4-6.4c2.3-0.9,3.9-2.6,4.5-5
            C-172.6,350.4-172.6,360.9-172.6,360.9z"/>
    </g>
</g>
<path d="M-165,188.6v-21.2c0-6.9-4.4-9.8-8.4-10.3c-3-0.4-5.5-0.1-7.7,0.5c-2.5,0.6-5.2,1.8-6.7,4.1c-0.2,0.4-0.5,0.8-0.6,1.2
    c-0.3,0.6-0.4,1.2-0.4,1.9c0,0,0,0,0,0c0,0.3,0,0.7,0.1,1c0.5,2.2,2.4,3.9,4.8,3.9c0,0,0,0,0,0c2.7,0,4.9-2.2,4.9-4.9
    c0-0.2,0-0.3,0-0.5c-0.2-2.5-2.4-4.4-4.9-4.4c-0.9,0-1.8,0.3-2.6,0.7c1-0.9,2.5-1.9,4.9-2.5c4.2-0.9,8.9,1.6,8.9,6.7
    c0,3.2-1.7,5.7-4.5,6.7c-1.5,0.6-2.7,0.3-5.6,0.9c-4.6,1.1-8,4.1-7.6,9c0.4,4.5,4.2,8.3,8.8,8.3c0.1,0,0.3,0,0.3,0
    c4.5-0.1,7.6-3.2,8.5-6.6c0,2.8,0,5,0,5.6h-1.1v0.3h9.8v-0.3H-165z M-172.6,180.9c0,2.1-0.9,4.2-2.4,5.7c-0.1,0.1-0.2,0.2-0.4,0.3
    c-1.9,1.5-7.1,1-7.1-4.7c0-1.2,0-3,0-4.2c0-5,4.4-6,5.4-6.4c2.3-0.9,3.9-2.6,4.5-5C-172.6,170.4-172.6,180.9-172.6,180.9z"/>
<g>
    <defs>
        <rect id="SVGID_1_" x="-437.8" y="418.7" width="71.1" height="70.8"/>
    </defs>
    <clipPath id="SVGID_2_">
        <use xlink:href="#SVGID_1_"  overflow="visible"/>
    </clipPath>
    <path clip-path="url(#SVGID_2_)" fill="#D1D3D4" d="M-333.9,488.2l-36.7-68.7c13.2,0,21.4-3.7,25.9-6.9c3.5-2.4,6.1-5.7,7.7-9.3
        c0.1-0.2,0.3-0.7,0.3-0.8c0.3-0.7,0.5-1.5,0.7-2.3c0.4-1.5,0.6-3.1,0.6-4.7c0-9.1-6.3-16.7-14.8-18.7c-1.4-0.3-2.9-0.5-4.4-0.5h0
        c-10.6,0-19.2,8.6-19.2,19.2c0,10.6,8.6,19.2,19.2,19.2c0.4,0,0.7,0,1.1,0c1.3,0,2.7-0.2,4-0.5c-4.7,2.3-11.6,4.2-21.1,4.2h-32.9
        v-79.3h4.3v-1.3h-38.1v1.3h4.3c0,111.4,0,144.3,0,149.1h-4.3v1.3h38.2v-1.3h-4.3v-69.7c1.3,2.3,31.5,57.2,37.2,69.7h-4v1.3h41.1
        v-1.3H-333.9z"/>
</g>
<g>
    <path d="M-555,488.2l-36.7-68.7c13.2,0,21.4-3.7,25.9-6.9c3.5-2.4,6.1-5.7,7.7-9.3c0.1-0.2,0.3-0.7,0.3-0.8
        c0.3-0.7,0.5-1.5,0.7-2.3c0.4-1.5,0.6-3.1,0.6-4.7c0-9.1-6.3-16.7-14.8-18.7c-1.4-0.3-2.9-0.5-4.4-0.5h0
        c-10.6,0-19.2,8.6-19.2,19.2c0,10.6,8.6,19.2,19.2,19.2c0.4,0,0.7,0,1.1,0c1.3,0,2.7-0.2,4-0.5c-4.7,2.3-11.6,4.2-21.1,4.2h-32.9
        v-79.3h4.3v-1.3h-38.1v1.3h4.3c0,111.4,0,144.3,0,149.1h-4.3v1.3h38.2v-1.3h-4.3v-69.7c1.3,2.3,31.5,57.2,37.2,69.7h-4v1.3h41.1
        v-1.3H-555z"/>
    <g>
        <path fill="none" d="M-718.7,422.4c-3.8,1.7-20.9,5.5-20.9,24.9c0,4.5,0,11.7,0,16.3c0,22.2,20,24.1,27.6,18.4
            c0.5-0.4,0.9-0.9,1.4-1.3c5.9-6.2,9.3-14.3,9.3-22.3c0,0,0-41.1,0-55.3C-703.6,412.2-709.8,419-718.7,422.4z"/>
        <path d="M-671.8,488.2v-82.6c0-26.8-17.2-38-32.7-39.9c-11.8-1.5-21.5-0.5-29.8,1.9c-9.7,2.5-20.3,7.2-26.1,15.8
            c-1,1.4-1.8,3-2.4,4.6c-1,2.3-1.5,4.8-1.5,7.5c0,0,0,0,0,0c0,1.3,0.1,2.6,0.4,3.9c1.8,8.7,9.5,15.3,18.8,15.3c0,0,0,0,0,0
            c10.6,0,19.2-8.6,19.2-19.2c0-0.7,0-1.3-0.1-1.9c-1-9.7-9.2-17.3-19.1-17.3c-3.7,0-7.1,1-10,2.8c3.8-3.4,9.8-7.2,19.2-9.9
            c16.3-3.6,34.6,6.2,34.6,25.9c-0.1,12.5-6.6,22.1-17.5,26.2c-5.9,2.2-10.6,1.1-21.7,3.7c-18,4.2-31.2,15.9-29.7,35
            c1.5,17.5,16.4,32.2,34.4,32.2c0.4,0,1.3,0,1.3,0c17.5-0.6,29.7-12.6,33.2-25.8c0,11,0,19.5,0,21.8h-4.3v1.3h38.2v-1.3H-671.8z
             M-701.3,458.4c0,8-3.4,16.2-9.3,22.3c-0.5,0.5-0.9,0.9-1.4,1.3c-7.5,5.7-27.6,3.7-27.6-18.4c0-4.6,0-11.8,0-16.3
            c0-19.4,17.1-23.2,20.9-24.9c8.9-3.3,15.1-10.2,17.4-19.3C-701.3,417.3-701.3,458.4-701.3,458.4z"/>
    </g>
</g>
<text transform="matrix(1 0 0 1 -353.1987 456.5415)" font-family="'DIN-LightAlternate'" font-size="10">X: Height squared</text>
<rect x="-587.9" y="418.5" fill="none" stroke="#939598" stroke-width="0.3283" stroke-miterlimit="10" width="71.1" height="71.1"/>
<rect x="-800.5" y="418.5" fill="none" stroke="#939598" stroke-width="0.3283" stroke-miterlimit="10" width="71.1" height="71.1"/>
<rect x="-729.6" y="418.5" fill="none" stroke="#939598" stroke-width="0.3283" stroke-miterlimit="10" width="71.1" height="71.1"/>
<g>
    
        <rect x="-658.8" y="489.7" fill="none" stroke="#939598" stroke-width="0.3283" stroke-miterlimit="10" width="71.1" height="71.1"/>
    
        <rect x="-587.9" y="489.7" fill="none" stroke="#939598" stroke-width="0.3283" stroke-miterlimit="10" width="71.1" height="71.1"/>
    
        <rect x="-800.5" y="489.7" fill="none" stroke="#939598" stroke-width="0.3283" stroke-miterlimit="10" width="71.1" height="71.1"/>
    
        <rect x="-729.6" y="489.7" fill="none" stroke="#939598" stroke-width="0.3283" stroke-miterlimit="10" width="71.1" height="71.1"/>
</g>
<g>
    
        <rect x="-658.8" y="347.4" fill="none" stroke="#939598" stroke-width="0.3283" stroke-miterlimit="10" width="71.1" height="71.1"/>
    
        <rect x="-587.9" y="347.4" fill="none" stroke="#939598" stroke-width="0.3283" stroke-miterlimit="10" width="71.1" height="71.1"/>
    
        <rect x="-800.5" y="347.4" fill="none" stroke="#939598" stroke-width="0.3283" stroke-miterlimit="10" width="71.1" height="71.1"/>
    
        <rect x="-729.6" y="347.4" fill="none" stroke="#939598" stroke-width="0.3283" stroke-miterlimit="10" width="71.1" height="71.1"/>
</g>
<g>
    
        <rect x="-658.8" y="276.2" fill="none" stroke="#939598" stroke-width="0.3283" stroke-miterlimit="10" width="71.1" height="71.1"/>
    
        <rect x="-587.9" y="276.2" fill="none" stroke="#939598" stroke-width="0.3283" stroke-miterlimit="10" width="71.1" height="71.1"/>
    
        <rect x="-800.5" y="276.2" fill="none" stroke="#939598" stroke-width="0.3283" stroke-miterlimit="10" width="71.1" height="71.1"/>
    
        <rect x="-729.6" y="276.2" fill="none" stroke="#939598" stroke-width="0.3283" stroke-miterlimit="10" width="71.1" height="71.1"/>
</g>
<g>
    <g>
        
            <line fill="none" stroke="#939598" stroke-width="0.4669" stroke-miterlimit="10" x1="-511.1" y1="418.4" x2="-510.6" y2="418.4"/>
        
            <line fill="none" stroke="#939598" stroke-width="0.4669" stroke-miterlimit="10" stroke-dasharray="0.8796,1.7593,0.8796,1.7593" x1="-508.8" y1="418.4" x2="-504.4" y2="418.4"/>
        
            <line fill="none" stroke="#939598" stroke-width="0.4669" stroke-miterlimit="10" stroke-dasharray="0.8796,1.7593,0.8796,1.7593,0.8796,1.7593" x1="-503.6" y1="418.4" x2="-441.1" y2="418.4"/>
        
            <line fill="none" stroke="#939598" stroke-width="0.4669" stroke-miterlimit="10" x1="-440.2" y1="418.4" x2="-439.8" y2="418.4"/>
    </g>
</g>
<line fill="none" stroke="#000000" stroke-width="0.25" stroke-miterlimit="10" x1="-360.1" y1="489.4" x2="-360.1" y2="418.1"/>
<g>
    <g>
        
            <line fill="none" stroke="#939598" stroke-width="0.4669" stroke-miterlimit="10" x1="-511.1" y1="489.3" x2="-510.6" y2="489.3"/>
        
            <line fill="none" stroke="#939598" stroke-width="0.4669" stroke-miterlimit="10" stroke-dasharray="0.8796,1.7593,0.8796,1.7593" x1="-508.8" y1="489.3" x2="-504.4" y2="489.3"/>
        
            <line fill="none" stroke="#939598" stroke-width="0.4669" stroke-miterlimit="10" stroke-dasharray="0.8796,1.7593,0.8796,1.7593,0.8796,1.7593" x1="-503.6" y1="489.3" x2="-441.1" y2="489.3"/>
        
            <line fill="none" stroke="#939598" stroke-width="0.4669" stroke-miterlimit="10" x1="-440.2" y1="489.3" x2="-439.8" y2="489.3"/>
    </g>
</g>
<polygon fill="#FFFFFF" stroke="#000000" stroke-width="0.25" stroke-miterlimit="10" points="-360.1,417.5 -362.7,425.3 
    -357,425.3 "/>
<polygon fill="none" stroke="#000000" stroke-width="0.25" stroke-miterlimit="10" points="-478.1,418.3 -480.8,410.6 -475.1,410.6 
    "/>
<polygon fill="none" stroke="#000000" stroke-width="0.25" stroke-miterlimit="10" points="-478.1,489.5 -480.8,497.2 -475.1,497.2 
    "/>
<polygon fill="#FFFFFF" stroke="#000000" stroke-width="0.25" stroke-miterlimit="10" points="-360.1,489.8 -362.7,482 -357,482 "/>
<line fill="none" stroke="#000000" stroke-width="0.25" stroke-miterlimit="10" x1="-366.8" y1="496.5" x2="-438.1" y2="496.5"/>
<polygon fill="#FFFFFF" stroke="#000000" stroke-width="0.25" stroke-miterlimit="10" points="-438.7,496.5 -430.9,499.1 
    -430.9,493.5 "/>
<polygon fill="#FFFFFF" stroke="#000000" stroke-width="0.25" stroke-miterlimit="10" points="-366.4,496.5 -374.1,499.1 
    -374.1,493.5 "/>
<rect x="-437.7" y="418.5" fill="none" stroke="#939598" stroke-width="0.3283" stroke-miterlimit="10" width="71.1" height="71.1"/>
<rect x="-658.8" y="418.5" fill="#FFFFFF" width="71.1" height="71.1"/>
<rect x="-658.8" y="418.5" fill="none" stroke="#939598" stroke-width="0.3283" stroke-miterlimit="10" width="71.1" height="71.1"/>
<g>
    <defs>
        <rect id="SVGID_3_" x="-658.8" y="418.7" width="71.1" height="70.8"/>
    </defs>
    <clipPath id="SVGID_4_">
        <use xlink:href="#SVGID_3_"  overflow="visible"/>
    </clipPath>
    <path clip-path="url(#SVGID_4_)" fill="#D1D3D4" d="M-555,488.2l-36.7-68.7c13.2,0,21.4-3.7,25.9-6.9c3.5-2.4,6.1-5.7,7.7-9.3
        c0.1-0.2,0.3-0.7,0.3-0.8c0.3-0.7,0.5-1.5,0.7-2.3c0.4-1.5,0.6-3.1,0.6-4.7c0-9.1-6.3-16.7-14.8-18.7c-1.4-0.3-2.9-0.5-4.4-0.5h0
        c-10.6,0-19.2,8.6-19.2,19.2c0,10.6,8.6,19.2,19.2,19.2c0.4,0,0.7,0,1.1,0c1.3,0,2.7-0.2,4-0.5c-4.7,2.3-11.6,4.2-21.1,4.2h-32.9
        v-79.3h4.3v-1.3h-38.1v1.3h4.3c0,111.4,0,144.3,0,149.1h-4.3v1.3h38.2v-1.3h-4.3v-69.7c1.3,2.3,31.5,57.2,37.2,69.7h-4v1.3h41.1
        v-1.3H-555z"/>
</g>
</svg>
