<?xml version="1.0" encoding="utf-8"?>
<svg version="1.1" id="Layer_1" xmlns="http://www.w3.org/2000/svg" xmlns:xlink="http://www.w3.org/1999/xlink" x="0px" y="0px"
     viewBox="0 0 79.4 112.3" enable-background="new 0 0 79.4 112.3" xml:space="preserve">

<path d="M38.6,6c-17.7,0-32,14.3-32,32c0,5.7,1.5,11,4,15.6c3.9,8.7,9.8,14.6,15.9,25.3c8,14,12,26.5,12,26.5
    s4.1-12.6,12-26.5c6.1-10.7,11.9-16.6,15.9-25.3c2.6-4.6,4.1-9.9,4.1-15.6C70.5,20.3,56.2,6,38.6,6z M38.6,57.1
    C28,57.1,19.4,48.6,19.4,38c0-10.6,8.6-19.2,19.2-19.2c10.6,0,19.2,8.6,19.2,19.2C57.7,48.6,49.1,57.1,38.6,57.1z"/>
<circle cx="38.6" cy="38" r="13.4"/>

</svg>
