<?xml version="1.0" encoding="utf-8"?>
<svg version="1.1" id="Layer_1" xmlns="http://www.w3.org/2000/svg" xmlns:xlink="http://www.w3.org/1999/xlink" x="0px" y="0px"
	 viewBox="0 0 130 116" enable-background="new 0 0 130 116" xml:space="preserve">

	<path d="M107.6,62.1v-0.3c0-5-3.6-8.5-9-9c-0.9-0.1-1.7-0.1-2.6-0.1c-0.1,0-0.2,0-0.3,0V9.3H33.2v43.5
		c-0.4,0-0.8,0-1.2,0c-0.8,0-1.7,0-2.6,0.1c-5.3,0.4-9,4-9,9v0.4l0,0c-0.1,30.8-11.9,31-11.9,31v14h110.9v-14
		C119.5,93.3,107.7,93,107.6,62.1z M63.8,93C56.2,93,50,86.8,50,79.1c0-7.6,6.2-13.8,13.8-13.8s13.8,6.2,13.8,13.8
		C77.7,86.8,71.5,93,63.8,93z M92.5,53c-3.8,0.4-7,1.3-10.2,2.3c-3.3,1-6.4,1.9-10.1,2.2c-4.1,0.3-7.4-3.2-7.5-7.3v-0.4h-1.6v0.4
		c0,4.2-3.5,7.5-7.5,7.3c-3.7-0.2-6.7-1.2-10.1-2.2c-2.8-0.9-5.8-1.7-9.3-2.2V12.6h56.1V53H92.5z"/>
	<circle cx="63.8" cy="79.1" r="6.9"/>

</svg>
