<?xml version="1.0" encoding="utf-8"?>
<svg version="1.1" id="Layer_1" xmlns="http://www.w3.org/2000/svg" xmlns:xlink="http://www.w3.org/1999/xlink" x="0px" y="0px"
     viewBox="0 0 123.4 93.9" enable-background="new 0 0 123.4 93.9" xml:space="preserve">

<g>
    <path d="M113.5,49.2c0,6.4-5.2,11.1-11.1,11.1c-8.7,0-20.4,0-29.1,0c-5.9,0-11.1,4.7-11.1,11.1v8.3
        c0-6.4,5.2-11.1,11.1-11.1c8.7,0,20.4,0,29.1,0c5.9,0,11.1-4.7,11.1-11.1c0-2.8,0-6.8,0-6.8"/>
    <path d="M10.9,49.2c0,6.4,5.2,11.1,11.1,11.1c8.7,0,20.4,0,29.1,0c5.9,0,11.1,4.7,11.1,11.1v8.3
        c0-6.4-5.2-11.1-11.1-11.1c-8.7,0-20.4,0-29.1,0c-5.9,0-11.1-4.7-11.1-11.1c0-2.8,0-6.8,0-6.8"/>
</g>
<circle cx="62.2" cy="42.8" r="6.7"/>
<circle cx="62.2" cy="16.2" r="6.7"/>

</svg>
