<?xml version="1.0" encoding="utf-8"?>
<svg version="1.1" id="Layer_1" xmlns="http://www.w3.org/2000/svg" xmlns:xlink="http://www.w3.org/1999/xlink" x="0px" y="0px"
     viewBox="0 0 129.4 84.7" enable-background="new 0 0 129.4 84.7" xml:space="preserve">

<g>
    <g>
        <path d="M64.3,6.7c-9.2,0-16,7.5-16,16c0,12.5,0-9,0,3.5c0,8.5-6.8,16-16,16h-12c9.2,0,16-7.5,16-16
            c0-12.5,0,9,0-3.5c0-8.5,6.8-16,16-16c4,0,9.8,0,9.8,0"/>
    </g>
    <g>
        <path d="M64.3,78c-9.2,0-16-7.5-16-16c0-12.5,0,9,0-3.5c0-8.5-6.8-16-16-16h-12c9.2,0,16,7.5,16,16
            c0,12.5,0-9,0,3.5c0,8.5,6.8,16,16,16c4,0,9.8,0,9.8,0"/>
    </g>
    <path d="M78.3,41.7c0-4-3.2-7.2-7.2-7.2c-4,0-7.2,3.2-7.2,7.2c0,4,3.2,7.2,7.2,7.2C75,49,78.3,45.7,78.3,41.7z"/>
    <path d="M106.8,41.7c0-4-3.2-7.2-7.2-7.2c-4,0-7.2,3.2-7.2,7.2c0,4,3.2,7.2,7.2,7.2C103.6,49,106.8,45.7,106.8,41.7z"/>
</g>

</svg>
