<?xml version="1.0" encoding="utf-8"?>
<!-- Generator: Adobe Illustrator 18.1.1, SVG Export Plug-In . SVG Version: 6.00 Build 0)  -->
<svg version="1.1" id="Layer_2" xmlns="http://www.w3.org/2000/svg" xmlns:xlink="http://www.w3.org/1999/xlink" x="0px" y="0px"
	 viewBox="0 0 623.6 737" enable-background="new 0 0 623.6 737" xml:space="preserve">
<g>
	<g>
		<path fill="#231F20" d="M350.1,49.3c-0.3-0.2-0.5-0.4-0.7-0.6c0.2,0.4,0.4,0.8,0.7,1.2C350.1,49.9,349.9,49.1,350.1,49.3z"/>
		<path fill="#231F20" d="M349,48.2c0,0.1,0,0.1,0,0.2c0.1,0.1,0.2,0.2,0.3,0.3C349.2,48.5,349.1,48.3,349,48.2z"/>
		<path fill="#231F20" d="M395.6,114.7c0,0.1-0.1,0.2-0.1,0.2c0.1,0.3,0.2,0.6,0.2,0.8C395.8,115.4,395.7,115.1,395.6,114.7z"/>
	</g>
	<path d="M366.3,385.3c1.6-5.4,4.1-9.9,8.3-12.7c6.4,20.5,11.9,44.4,10.5,65.6c0.7-8.8-4.8-42.4-13.4-48.3
		c-6.2,13.5,1.2,25.9-3.1,38.7c-2.9,8.7-12.5,11.8-19.3,16.6c-4.2,3-5.7,7.4-7.9,12c-4.2,8.6-14.1,20.8-13.6,30.5
		c3.9-11.6,4.1-26.9,10.8-37.2c4.6-7.2,15.8-9,19.8-16.2C364.8,422.5,361.9,400.4,366.3,385.3z"/>
	<path d="M319.7,484.1c-0.2-5.9-9.5-13.9-13.1-17.9c-6.9-7.7-13.5-16.6-21.2-23.5c-4.4-4-10.4-7.4-13.5-12.6
		c-4.2-6.8-7.7-14.9-11.3-22.1c-2-4.1-4.3-7.9-6.4-11.9c-0.9-1.8-1.9-4.3-4.5-4.2c-0.5-1.8-3-7.4-4.7-8c-0.1,0-4.3,0.6-4.6,0.7
		c-4.2,2.4-3.1,9.6-3,13.6c0.2,5.5,0.6,11,1.2,16.5c1.1,9.5,2.5,20.1,7.2,28.7c-0.5-0.9,2.1-8.5,2-10.5c-0.3-4.3-0.9-8.7-1.3-13
		c-0.9-9.2-2.2-18.3-3.4-27.5c-0.1-1-1.1-4.8,0-5.5c1.5-1,3.4,2.7,4.1,3.9c3.6,6,8.6,13.2,9.4,20.3c0.6,5.5,1,11,2.3,16.4
		c1.2,5.2,4.6,7.4,9,10.2c5.4,3.4,11.4,4.7,16.5,8.8c2.8,2.2,4.9,4.9,7.7,7.1c3.7,2.9,6.1,5.9,9.2,9.4c1.7,1.9,4.6,3.3,5.6,5.5
		c-5.1-6.5-11-12.5-16.9-18.3"/>
	<path d="M231.2,449.2c1.7,11.6,3.6,23.2,4.2,35c1.1,25.2,1.8,50.3,3.1,75.4c1.3,24.3-3.6,47.6,5.2,70.4c8.6,22,6.3,47,16.7,68.5
		c-28.9-6-54.1,5.8-82.5,8.4c-24.4,2.2-44.7-5.4-68.2-8.9c-21.7-3.2-47.5-9.2-69.4-5.7c-8.3,1.3-20.4,0.5-27.9,3.3
		c-0.5-16.6,3.2-35.4,6.1-51.6c7.5-41.4,11.2-83.3,22-124.1c4.5-16.9,7.7-34.2,10.5-51.4c1.7-10.5-1.7-25,7.2-33.2
		c5.3-5,13.4-5.3,20-7.9c13.1-5.2,24.7-12.1,37.5-17.4c17.6-7.3,35.9-8.9,53.3-18c12.1-6.4,25.1-12.9,34.7-22.1
		c7.1-6.8,15.3-17.6,25.9-17.6c-1.1,21.2-2,43.2-1.7,64.9C228.1,427.9,229.6,438.6,231.2,449.2z"/>
	<path d="M401,436.2c2.3,29.2,10.6,57.5,12.4,86.5c3.2,52.3,5.1,108.3-1.5,160.5c6.8,5.1,15.4,2.7,23.2,2c23.9-2,48.8,0.1,72.6,3.3
		c29.8,4,58.5,14.5,88.9,13.3c1.2-6.8,9.3-7.8,14.8-10.3c-2.4-12.7-9.2-24.9-11.5-38.3c-4.1-24-4.6-48.6-8.3-72.6
		c-4-26-11.3-52-14.8-77.7c-3.5-25.8-6-49-6.2-75.4c-0.1-11.9-1.3-18.6-11.8-25.1c-15.2-9.4-38.5-17.5-56-20
		c-17.2-2.4-34.5-5.2-51.1-10.4c-12.5-3.9-27.8-7.9-37.5-17.1c-3.4-3.2-5.3-9.3-8.1-13.4c-3-4.3-10.7-17.1-16.3-17
		c3.6,6.5,9.3,10.3,10.3,18.9c0.8,7.5-0.2,15-0.8,22.5c-0.6,7.7,0.4,14.7,0.8,22.3C400.7,404.2,399.7,420.3,401,436.2z"/>
	<path fill="#231F20" d="M272.1,181.3c0.7,0.3,8.3,1.8,6.8,3.4c-1.5,1.5-5.2-0.4-6.9,0.4c1.3-0.6,2.3-1.1,3.9-1c0.1-0.3,0.1-1,0-1.3
		C274.7,182.5,272.7,182.3,272.1,181.3z"/>
	<path fill="#231F20" d="M247.5,184.1c-0.7,1-5.6,2.3-6.2,4.1c3.9-2.6,5.5-1.5,9.1-0.7c-1.9-0.1-2.6-2.5-2.1-3.2"/>
	<path fill="#231F20" d="M261.9,174.3c5.8-0.9,10.8,3.1,15.6,5.6c0,0,0.3-0.3,0.3-0.3c-1.5-3.3-6-4.1-9.1-4.9c-3.7-1-6.9-0.8-10.7,0
		c-3.8,0.8-7.3,2.3-11,3.2c-4,1-6,2.9-7.3,6.9c3.3-3.5,5.5-6,10.1-7.3C253.6,176.3,257.9,174.9,261.9,174.3z"/>
	<path fill="#231F20" d="M319.8,233.5c-1.4-1.4-4.2-0.3-5.8,0.6c-1.6,0.9-4.7,2.3-5.7,3.6c2.9,1,9.4-3,12.3-4.2"/>
	<path fill="#231F20" d="M289.6,237.1c-1.8-0.5-3.2-1.6-5-2c-1.4-0.3-2.9-0.2-4.4-0.4c0.7,2.2,8.4,3.2,10.5,3
		c-0.7,0-0.7-0.4-1.1-0.8"/>
	<path fill="#231F20" d="M268.7,167.5c-3.4-0.1-6.9,0.6-10.1,0.4c-2.5-0.1-4.5,0.7-7,1c-2.8,0.3-5.1,1.3-7.8,1.8
		c-2.1,0.4-5.1-0.4-6.9,0.4c0.5,0.4,1.2,0.7,1.9,0.8c-1.3,0.1-2.4,0.1-3.7,0c0.1,0.3,0.1,0.9,0.3,1.3c-0.6,0-1.3,0.3-1.9,0.3
		c0.3,0.3,0.5,1,0.8,1.3c-1.5,0.1-3.5,0.4-2.6,2.3c-1.8,0.3-3.4,1.7-5.2,1.8c0-1,1.3-1.7,1.6-2.6c0.1-0.3-0.7-2.9,0.7-2.9
		c-0.2,0-0.5,0-0.7,0c0.4-0.2,0.7-0.6,1.1-0.8c-0.3,0-0.8-0.1-1-0.2c0.6-1.1,2.1-1.4,3.2-1.8c0.6-0.2,2-1.1,2.4-1.2
		c1.5-0.3,2.7-0.6,3.7-1.2c1.3-0.8,2.1-1.5,3.7-1.6c1.2-0.1,2.2,0.3,3.4,0c1.6-0.4,2.6-1.1,4.3-1.2c2.3-0.1,4.6-0.3,6.8-1.1
		c1.3-0.4,2.1-0.8,3.4-1c1.3-0.2,2.5,0.1,3.8-0.2c0.2,0.4,4.7,2,5.6,2.2"/>
	<path fill="#231F20" d="M326.1,162.3c2.7,1.1,6.2-1,9-1c0,0.1,0,0.2-0.1,0.2c2.6-0.6,3.8-0.3,6.3-0.4c0.1,0.3-0.2,0.1-0.1,0.4
		c1.1-0.6,2.4-1,3.6-1c0,0.3,0,0.5-0.1,0.8c1.2-0.3,2.5-0.7,3.8-0.6c0.1,0.3,0.1,0.2,0.1,0.6c2-0.8,4.9-0.4,7-0.1
		c1.4,0.2,2.6,1.5,4.2,1.3c0.1,0.2,0,0.3,0.1,0.6c0.9,0,1.7-0.3,2.6-0.3c-0.2,0.2-0.4,0.6-0.7,0.9c1.7,0.6,4.6,0.7,5.8,2.1
		c-0.5-0.4-0.8-1-1.2-1.5c0.5,0.1,1-0.1,1.4-0.1c-0.3-0.2-0.6-0.5-1.2-0.6c0.4,0.1,0.8,0.1,1.2,0.2c-0.6-0.8-1.4-1.5-1.8-2.4
		c0.2,0,0.4,0,0.6-0.1c-1-0.3-2.2-0.3-3-1c0.2-0.2,0.5-0.4,0.6-0.6c-2.1-0.1-4.3-0.1-6.4-0.3c-0.1-0.2-0.1-0.3-0.1-0.5
		c-0.8-0.1-1.7,0-2.4-0.2c0.1-0.2,0.1-0.3,0.2-0.5c-5.1-0.3-10.5,0.1-15.6,0c-1.4,0-1.7-0.7-2.7-0.9c-1.5-0.3-3.2,0.7-4.7,0.8
		c-2.3,0.2-3.9-0.5-6,1c0.7-0.1,1.5-0.4,2.2-0.5c-1.2,0.7-2.5,1.1-3.6,2c0.6,1,1.7,1.3,2.8,1.4c-0.1,0.1-0.2,0.3-0.3,0.4
		c0.8-0.4,0.8,0.2,1,0.2"/>
	<path fill="#231F20" d="M317.7,176.3c3.5-2.7,6.8-5.8,11.2-6.4c4.1-0.5,7.8-0.7,12-0.4c3.7,0.3,7,0.7,10.6,1.8
		c4.1,1.3,5.5,3.4,6.8,7.3c-2-0.3-3.1-3.4-4.6-4.7c-1.4-1.2-3.7-1.6-5.3-2.3c-3.5-1.5-7.6-1.7-11.4-1.7c-3.8,0-8,0.9-11.6,2.2
		c-3.3,1.2-5.1,3.7-8.2,5.1"/>
	<path fill="#231F20" d="M324.2,180.9c-0.5-0.9,0.7-1.8,1.3-2.3c1-0.8,2.1-1.4,3.1-2.2c-0.1,0.1-0.2,0.1-0.3,0.2
		c-0.3-0.1-1.3,0.5-1.6,0.6c-0.3,0.2-0.7,0.3-1,0.6c-1.1,0.8-2.1,1.6-3.4,2c-1.2,0.4-2.5,0.5-3.7,1c-4,1.8,0.8,2.1,2.8,1.6
		c1.1-0.3,2.3-0.6,3.5-0.5c1.2,0.1,2.3,0.4,3.4,0.1c-0.5-0.5-1.5-0.4-2.2-0.4C325.5,181.6,324.5,181.4,324.2,180.9z"/>
	<path fill="#231F20" d="M348.7,177.7c0.9,0.4,1.4,1.7,2.4,2.3c-0.1-0.1-0.3-0.8-0.4-0.9c0.2,0,0.4,0.1,0.6,0.2
		c0.3,0.1,0.6,0,0.8,0.1c0.5,0.1,0.9,0.3,1.4,0.6c0.8,0.4,1.6,0.8,2.5,1c-0.7-0.9-2.3-1.3-3.4-1.8c-1.4-0.7-2.9-1.3-4.5-1.6"/>
	<path fill="#231F20" d="M273.3,264.8c0.3,0,0.7,0.1,0.9,0.1c-0.1,0,2.1,3.8,2.5,4.1c0.6,0.4,1.5,0.6,2.2,0.7c1.7,0.4,3,1.3,4.8,1.4
		c1.5,0.1,2.4,1,3.8,1.3c0.8,0.2,1.8,0.1,2.7,0.1c3.6,0.1,7.3,0.5,11,0.8c3.7,0.3,6.7,0.8,10.4,0.3c2.7-0.4,5.1-1.5,7.5-2.7
		c2.1-1.1,4.5-2,6.6-3.3c0.8-0.5,1.3-1.2,2.2-1.4c0.9-0.3,2-0.2,2.9-0.6c2.3-1.1,1.5-3.4,1.6-5.4c0.1-1.4,1-1,2.5-1
		c2,0,3.6,0.8,5.5,1.2c-0.2,1.2-2.8,2.4-3.8,3c-1.8,1.1-3.6,2-5.6,2.8c-3.8,1.5-7.7,2.6-11.1,4.8c-5.6,3.7-11.7,5.8-18.4,4.8
		c-6.4-0.9-13-1.7-19.4-3.1c-2.9-0.7-4.8-2.3-7.5-3.4c-2.2-0.9-5.3-1.4-7.3-2.8c-0.8-0.5-2.7-1.4-3-2.3c-0.3-1.2,1.2-1.3,2.2-1.7
		c2-0.8,4-1.6,6.2-1.7C271.6,261.2,273.2,263.9,273.3,264.8z"/>
	<path fill="none" d="M254.3,241.5c-1,2.1-3.9,4-5.5,6.1c-1.7,2.3-1.6,5.2-1.4,8c1.1-4.3,4-12.4,8.7-14.2"/>
	<path fill="#231F20" d="M356.5,256.6c0.9-5.2,0.1-10.2-2.6-14.7c1.6,1.3,2.9,4.7,3.8,6.6c0.7,1.4,0.8,2.9,0.5,4.5
		C357.9,254.2,356.6,255.4,356.5,256.6z"/>
	<path fill="#231F20" d="M253.1,243.7c-1.1,1.1-2.1,2.2-3,3.3c-0.8,0.9-2.2,1.8-2.5,3c-0.5,1.6,0.8,3.7,1.3,5
		c-1.9-4.9,3.3-9.7,6.6-12.5"/>
	<path fill="#231F20" d="M332.3,330.9c-6.2,3.6-11.6,5.5-18.7,6.8c-4.1,0.8-8.6,0.9-12.8,0.7c-3.2-0.2-6.4-0.8-9.5-1.2
		c-1.3-0.2-3.1-0.2-4.4-0.6c-1.3-0.5-1.9-1.7-3.6-1.6c2.4,4.2,11.5,3.9,15.7,4c4,0.1,7.9,0.8,12,0.8c8.1,0,15.9-2.5,21.3-9.1"/>
	<path fill="#231F20" d="M367,296.7c2-5.1,6.6-8.7,9.2-13.5c2.8-5.1,5.5-10.8,7.7-16.2c1.9-4.6,1.8-10.1,2.4-15.1
		c0.8-6.7,1.1-13.3,1.6-20.1c0.9,2.2,1.3,6.3,3.4,6.9c3,0.8,6.2-3.5,7.8-5.4c-0.5,3.3-3.9,6.5-6.5,8.2c-3.1,2.1-3.4,2.4-4.1,6.1
		c-1.2,5.9-2.2,11.8-2.9,17.7c-0.7,5.5-3,11.1-3.5,16.5c-0.6,5.5,0.9,10.9,1,16.4c0.2-7-2.5-14.4-2.5-21.6c0,2.8-4.4,8.1-5.9,10.5
		C372.5,290.6,370.1,294,367,296.7z"/>
	<g>
		<path fill="#231F20" d="M287.5,33.5c4.3,0.9,8.3,2.9,12.7,3.6c2.1,0.3,5.8,2.1,7.6,0.6c-1.1-1.4-2.4-2.8-4.1-3.7
			c2.4-1.2,6.9,1.6,9,2.8c3.3,1.9,6.4,4.3,10.3,4.7c-0.8-4.1-5.3-5.5-7.7-8.3c0.4,0.2,0.8,0.5,1.2,0.7c5,3.1,10.3,6.1,15.4,9.1
			c2.6,1.5,8.6,2.6,9.4,6.1c-0.9-0.5-2.1-0.9-3.2-0.9c2,1.2,4.8,4.6,4.8,7c-1.5-0.5-2.2-2.3-4.2-1.4c1,0.4,4.3,4.4,6.1,7.8
			c1.1-0.4,2.3-0.7,3.4-0.9c1.1-0.2,8.4-1.4,9.2-0.5c-2.1-2.6-6.7-1.7-9.8-1.7c3.9-1.1,7.9-2.1,11.9-2.9c-1.5-1.4-4.8-1.4-6.9-1.4
			c1-1.1,2.7-2.1,4.7-2.9c-0.4-0.4-0.7-0.9-0.9-1.4c-2.3,0.4-6.5,1.5-7.1-1.6c-3.6-3.5-5.4-9.6-10.5-11.3c-1.7-0.6-3.8,0.4-5.5,0
			c-0.7-0.2-2.3-1.4-3.1-1.8c-3.1-1.6-5.8-2-8.7-2.9c-2-0.6-4.5-0.6-6.6-1.3c-3.1-1.1-2.5-1.7-5.5-1.1c-3,0.6-5.1,0.7-8,0.3
			c-3.5-0.5-6.5,0.7-10,0.2c-3-0.4-5.2,0.4-8.1,1.4c-0.2,0.1-0.4,0.1-0.6,0.2C284.2,32.6,285.8,33.1,287.5,33.5z"/>
		<path fill="#231F20" d="M397.8,153.5c0.2-1,0.4-1.9,0.8-2.8c0.1,0.1,0.1,0.3,0.2,0.4c0.2-2-0.2-3.6-0.7-5.5
			c0.3,0.1,0.8,0.1,1.1,0.2c-0.3-3.2-1-6.4-1.7-9.6c1.7-1.9-0.6-6.7-1.9-8.6c0.5,0.7,0.8,0.6,1.4,0.9c-0.2-3.4-2.4-5.9-2.2-9.3
			c0.1-1.6,0.9-3.2,0.6-4.9c-0.1-0.8-1.5-2.2-1.4-3c-0.5,2.4-0.7,4.9-1.4,7.3c-1.1-1-1.4-3.2-2.7-4.5c-0.2,2.2,1,4.2,1.3,6.4
			c0.3,2.6-0.1,5.3,0.1,8c0.2,4.1,0.4,8.3-1.4,12.2c-3.2-3.2-1.9-10.1-2.8-14.2c-1.1,2-1.4,4.5-2,6.6c-1.3-2.9-0.9-6.3-0.8-9.4
			c0.1-3.8,2.2-11,0.7-14.4c-1.8,1.7-1.9,4.6-2.6,7c-0.3-0.9,1-17.8-3.1-16.7c-0.7,0.2-0.7,1-1.6,0.9c-1-2.3-2.5-4.1-2.1-7.2
			c-0.4-0.2-0.7-0.1-0.7,0.4c-0.7-2.6-2.4-5.1-2.8-7.8c-0.1,1.2-0.5,2.3-0.6,3.4c-1.7-4.9-2.7-12.6-8.6-12.8c0.6,2,0,5.5,0.7,7.4
			c-0.4-0.9-6.4-7.6-7.4-8.2c0,0.3,0,0.6-0.1,0.9c-0.7-2.1-4.5-9.2-6.2-10.1c-3-1.7,1.1,7.1,0.9,8.1c-2.5-2.9-5.1-7.8-9.1-8.8
			c0-0.1,0-0.2,0-0.3c-1-0.4-1.9-0.6-2.5,0c-0.4-0.6-1.1-1.2-1.3-1.8c-0.1,0.3-0.1,0.7-0.1,1c-0.4-0.4-0.7-0.3-1-1.2
			c0,0,0.1,0.7-0.2,0.5c-1.2-0.9-1.8-2.6-2.9-3.8c0,0.8-0.4,1.6-0.4,2.3c-1.1-1.2-1.9-2.9-2.9-4.2c0,0.2-0.2,0.6-0.3,1
			c-0.5-2.3-5.8-8.8-8.9-8.2c-1.9,0.4-0.7,7.7,0.5,8.2c-7.2-3.1-17.4-9.8-25.7-9.3c2.5,4.8,8.5,6.7,12.3,10.2
			c-1.8,0.2-11.1-0.1-11.2-3.2c0.2,4.7-5.8,3.6-9.7,1.6c-2.3,6-8.3-0.8-12.9,0.8c0.9,1.2,1.6,2.6,2.6,3.8c-3-0.7-6.5-1.9-9.4-3
			c-0.5-0.2-8.3-5.4-8.5-4.4c-0.4,3.6,5.6,5.5,5.2,8.6c-3.8,0.6-5.8-4.3-10.2-2.9c1.5,1.6,3.8,3.3,5.6,4.8c1.1,0.9,4,2.2,4.1,3.3
			c-3.9,0.3-7.6,0.1-11.6-0.3c-1.9-0.2-3.6-0.1-5.6,0.1c-2.7,0.2-5.3,1.4-7.8,1.6c0.9-1.7,2.8-2.4,4.5-2.9
			c-2.2-4.2-11.6,0.8-15.2-0.5c0.2-6.5,9.4-6.9,12.1-11.2c-4.8-0.3-7.2,2.7-11.5,4.1c2.6-5.5,11.4-6.2,15.4-10
			c-0.9-2.3-7.1-1.3-11.4-0.7c-0.5,0.3-1,0.6-1.6,1c-2.1,1.4-4.7,1.8-6.8,3.1c-1.4,0.8-3.7,2.4-4.4,3.8c-1.3,2.3,0.7,2.4,0.2,4.2
			c-0.2,0.9-2,1.6-2.6,2.1c-2.1,1.6-2.9,3-4.2,5.1c-0.9,1.4-2.3,3-2.9,4.5c-0.8,2.3,0.7,2.8,0.7,4.4c0,2.6-2.4,4.5-4.2,6.4
			c-2.9,3-3.4,4.5-2.9,8.4c0.4,2.8-0.5,5.3-0.8,8.1c-0.7,5.3-1.5,10.7-1.3,16c0.1,2.2,1.3,3,1.5,4.9c0.3,2.4-1.7,5.1-2.2,7.3
			c-0.6,2.7-1.4,7.7-0.1,10.2c0.3-0.1,0.8-0.1,1.1-0.2c-0.6,1.9-0.9,4.4-0.9,6.4c0.1,2.1,1.1,3,1.3,4.8c0.5,4.9,0.2,10,0.5,14.9
			c0.1,2,0.8,3.8,0.9,5.8c0.1,1.4-0.2,2.9,0.3,4.3c0.6,1.6,2,1.9,3.1,2.9c1.2,1.2,1.8,2.7,2.2,4.2c0.9,3.2,1,6.7,1,10
			c0,4.2,0.7,8.4,0.7,12.7c0,3.4,0.1,7,0.6,10.5c0.4,2.7,0.6,5.4,4.2,4.8c0.2-3.3-0.8-5.4-1.4-8.6c-0.7-3.7-1-7.6-1.3-11.4
			c-0.7-9-2.5-19.2,1.5-27.8c0,0.2-0.1,0.5-0.1,0.7c0.9-2.2,1.7-4.6,1.9-7c-0.5,1.2-1.4,2.4-1.8,3.7c0.6-4.8,1.3-9.5,2.3-14.2
			c-2.6,1.7-3.9,5.8-5.5,8.5c0.3-2.7,1.2-5.7,1.2-8.4c-0.5,1.2-1.3,2.4-1.8,3.6c-0.5-3.6,0.7-7.1,1.7-10.5c-0.3,0.8-0.8,1.5-1.1,2.3
			c0.6-3.5,2.1-6.9,2.2-10.5c-0.8,1-1.5,2.3-2.1,3.7c0.8-3.3,0.8-7.1,1.6-10.1c0.9-3.7,2.7-7.5,3.4-11.2c-0.3,0.2-0.6,0.4-0.9,0.7
			c0.5-1.8,1.1-3.7,1.3-5.5c-0.2,0.3-0.5,0.5-0.9,0.7c2.6-8.9,6.8-16.1,9.9-24.9c-0.4-0.1-0.8,0-1.3-0.1c3.5-2.6,1.2-3.8,2.2-6.1
			c0.9-2,3.5-5.9,4.3-6.7l0.5,1.9c0.4-1,0.7-1.6,1.8-1.8c0.3,0.4,0.7,0.8,1.1,1.3c6.3-4.5,13.9-3.8,20.9-2.7
			c5.2,0.8,4.3,0.3,8.1-1.7c0.7-0.3,3.4-1.2,3.7-1.4c2.4-1.4,6.3-2.5,7.4-5c1.2,0.8,3,0.7,4.1,1.3c0.6-1.7,0.5-3.5,0-3.8
			c4.7,0.7,8.9,2.7,13.8,1.9c2.3-0.4,3.6-0.9,5.2-0.9c7.2-0.3,13.1,4.7,18.7-0.1c3.8,5.8,8.5-1.3,11.7-1.9c1.7-4.5,12,2.4,14.3,3.8
			c1.1,0.7,2.3,0.6,3.3,1.5c0.7,0.6,0.2,2,0.6,2.3c1.3,0.9,1.9,1.7,3.6,1.6c-0.3-0.6-0.5-1.7-0.8-2.2c4,5.5,9.5,9.6,13.2,15.1
			c3.3,5,6,10.9,8.1,15.9c0.3,0.8,1.7,0.9,1.9,1.7c0.2,1.2-0.8,1.6-0.4,2.8c0.6,2,1.7,3.6,2.3,5.3c0.3,0.7,1.3,0.4,1.6,1.5
			c0.4,1.2-0.4,4.4-0.2,6.1c0.8,5.2,4.9,8.8,4.4,14.2c-0.2,2.3-0.4,4,0.5,6.3c0.9,2.3,1.8,4.1,2.3,6.5c0.6,2.7,0.9,5.7,1.8,8.2
			c0.7,1.9,2,3.3,2.4,5.3c0.3,1.6-0.1,3.4,0,5c0.1,3.1,0.4,6.3,0.3,9.4c-0.2,3.7,1,7.6,0.4,11.2c-0.5,3.1-1.2,5.8-1,8.9
			c0.2,3.9,0.1,9,1.4,12.7c0.8-0.4,1.7-0.3,2.6-0.3c0.3-6.1-0.7-12.2-0.2-18.3c0.3-4,1.6-7.8,1.6-11.9c0-2-0.2-4.2,0.3-6.1
			c0.5-2.1,2-3.3,3-5.1c1-1.9,0.8-3.8,1-5.9c0.1-1.1,0.7-1.2,0.8-2.4c0.2-1.4-0.3-2.9-0.2-4.3C397.6,156.1,397.6,154.8,397.8,153.5z
			"/>
	</g>
	<path fill="#231F20" d="M345.2,176.8c-0.6-0.2-1.4-0.4-2.1-0.6c0.1,0.2,0.2,0.5,0.2,0.7c0,0.9-0.8,1.7-1.7,1.7
		c-0.9,0-1.7-0.8-1.7-1.7c0-0.6,0.3-1.1,0.8-1.4c-1.4-0.4-2.8-0.7-3.6-0.8c-1.7-0.2-4.7,0.5-6.6,1c-0.4,0.9-0.6,1.9-0.6,2.9
		c0,1.2,0.3,2.3,0.8,3.4c0.5,0.2,1.2,0.3,1.9,0.6c2.3,0.7,8.4,0.7,12.2-0.7c0.5-1,0.7-2.1,0.7-3.3
		C345.4,178,345.3,177.4,345.2,176.8z"/>
	<path fill="#231F20" d="M267,180c-0.4-0.1-0.8-0.2-1.4-0.3c0.3,0.3,0.5,0.7,0.5,1.2c0,0.9-0.8,1.7-1.7,1.7c-0.9,0-1.7-0.8-1.7-1.7
		c0-0.6,0.3-1.2,0.9-1.5c-1-0.1-2-0.1-3,0c-2,0.2-5.5,1.5-8,2.5c0,0.3,0,0.5,0,0.8c0,2,0.8,3.8,2,5.1c0.8,0.1,1.7,0.1,2.8,0.1
		c2.6-0.1,6.6-1,9.3-1.7c0.6-1.1,0.9-2.3,0.9-3.5C267.5,181.7,267.3,180.8,267,180z"/>
	<path fill="#231F20" d="M294.4,240.8c1.7,0.6,3.7,0.6,5.4,0.6c0.7,0,5.2-1.2,5.4-1.1c-1.1-0.6-4.9-0.2-6.3-0.4
		c-2.1-0.3-5.4-1-6.7-3c-0.7-1-0.2-6.1-1.4-6.3c-0.1,1.7,0.1,3.7-0.6,5.2c-0.8,2.1-2.2,0.5-3.9,0.6c0.6,0.9,2.5,0.8,3.5,1.3
		c0.9,0.4,1.2,0.9,1.9,1.5C292.5,240,293.4,240.5,294.4,240.8z"/>
	<path fill="#231F20" d="M251.7,198.5c-5.6,1.2-8.9-0.8-13.8-2.2c0,0.4,0,0.8,0,1.2c0.8,0.3,1.3,0.9,2.1,1.1
		c-0.9,0.6-2.1,1.5-2.8,2.4c3.2-1,4.1-1.2,7.6-1.2c2.8,0,5.3,0,7.6-1.6"/>
	<path fill="#231F20" d="M356.5,190.2c-1.3,0.5-2.6,0.8-4,1c-0.6,0.1-1.2,0.2-1.7,0.3c-1.2,0.2-3.1,0.6-4.3,0.1
		c1.5-0.1,3.1,0,4.6-0.3c1.5-0.3,2.9-1.2,4.3-1.8c0.3-0.1,0.7-0.3,1-0.4c0.7-0.2,1.2-0.4,1.9-0.8c0.4-0.3,3.3-1.9,2.2-2.6
		c0.2-0.3,0.6-0.2,0.6-0.6c0-0.4-1.2-0.9-0.9-1.2c0.3-0.3,0.9,0.9,1.1,1c0.9,0.1,0.1-3.8,0.1-4.2c0.9,1.2,0.9,3.1,1,4.6
		c0.4,0,1,0.1,1.4,0.1C363.6,187.2,358.3,189.6,356.5,190.2z"/>
	<path fill="#231F20" d="M288.6,185c-0.5-3.5-1.5-6.9-4.1-9.4c-1.3-1.2-6.5-3.8-5.9-6.1c0.9,0.4,2.1,0.6,2.9,1.1
		c3.4,2.4,6.2,5.5,7.5,9.5c1.4,4.6,0.5,9.5,1.2,14.2c0.2,1.4,0.4,2.8,0.4,4.2c-0.1,1.5,0.1,3.6-0.6,5.1c-0.7-0.9-0.2-3.4-0.2-4.5
		c0-1.3-0.1-2.5-0.1-3.8c0-1.5,0-3-0.2-4.5c-0.1-1-0.3-2-0.4-2.9C288.8,187,288.7,186,288.6,185z"/>
	<path fill="#231F20" d="M311.1,184.2c1.1-0.2,0.5-1.9,0.3-2.6c-0.3-1.4-0.2-2.2,0.2-3.7c0.1-0.3,0.2-0.5,0.2-0.9
		c-0.3,0.1-0.5,0.3-0.8,0.3c-0.2-1.2,1.4-2.5,0.9-3.8c-1.2,0.2-1.7,2.6-2,3.5c-0.5,1.8-1,3.5-1.3,5.3c-0.1,0.7-0.7,7.8,0.8,7.8
		c0.1-0.6,0-1.2,0-1.8c0-0.4,0.7-6.4,0.9-6.3C311,182.3,311,183.3,311.1,184.2z"/>
	<path fill="#231F20" d="M234.9,303.7c0.1,0.8,0.2,1.5,0.3,2.3c0.4,4.3-0.2,9.4,1.6,13.3c0.9-9.7,0.3-18.3-2.5-27.5
		c-3.2-10.5-5.9-21.1-9-31.4c-0.8-2.7-1.9-5.6-3.1-8.2c-1.7-3.7-2.1-10.2-5.6-12.3c-4.2-2.5-7.4-3.9-7.4-9.6c0-2.6-0.3-3.2-1.7-5.2
		c-1.1-1.5-1.9-3.7-3.1-4.9c0,2.1,1,4.5,1.7,6.6l1.4,1.2c0,9.8,2.9,15.3,10.6,21c1.9,1.4,1.8,0.6,2.6,3.2c0.7,2.1,1.5,4.3,2.4,6.3
		c0.7,1.7,1.3,3.5,1.9,5.3c-0.5-1-1-2-1.3-3.1c2.8,10.6,6.9,20.6,9.2,31.5C233.5,295.9,234.4,299.8,234.9,303.7z"/>
	<path fill="#231F20" d="M403.7,186.8c-0.4-0.7-4.3-8.4-4.7-8.1c-1.4,0.9-2.1,3.1-2.5,4.7c0.1-2.5,1.7-5.2,3-7.3
		c0.2-0.4,4.5-5.3,4.8-4.5c1.8,7,0.6,15.5,0.6,22.8C404.9,191.8,405,189.1,403.7,186.8z"/>
	<path fill="#231F20" d="M205.2,190c-1.2-1.2-3.7-3.9-5.3-4.2c-0.8,1.7,0.5,4.3,0.5,6.2c0,2-0.6,4-0.7,6c-0.1,3.3,1.3,10.6,3.7,12.5
		c-0.9-5-0.9-9.7-0.7-14.7c0.1-1.1-0.6-3.1,0-4.1c0.6-0.9,2.4-0.7,2.9-1.7c-0.3,0-0.4-0.1-0.6-0.3"/>
	<path fill="#231F20" d="M301.5,263.1c-1.2,0-2.2-0.4-3.2-0.8c-0.5-0.2-1.1-0.4-1.7-0.6c-1.7-0.4-3.7-1-5.5-1.2
		c-1.3-0.2-2.7-0.3-4.6-0.3c-0.9,0-1.9,0-2.8,0c-0.8,0-1.5,0-2.2,0l0-0.6l0.7-0.1c2.1-0.2,4.2-0.5,6.4-0.5c1.1,0,2.1,0.1,3.1,0.2
		c1.2,0.2,2.3,0.5,3.4,0.8c1.4,0.4,2.8,0.8,4.2,0.9c0.4,0,0.8,0,1.3,0c2.4,0,5-0.4,7.6-1.1c1-0.3,2.1-0.7,3.1-1.2
		c1.9-0.8,3.8-1.6,5.9-1.6l0.1,0.6c-2.8,0.7-5.5,1.8-8.1,2.8c-2,0.8-4,1.5-6.1,2.2c-0.2,0.1-0.4,0.1-0.6,0.2
		C302.1,263.1,301.8,263.1,301.5,263.1L301.5,263.1z"/>
	<path fill="#231F20" d="M301.6,292.7c-0.3,0-0.6,0-0.9,0c-2.4-0.2-5.4-1.4-6.6-1.9l0.2-0.5c3.3,0.5,6.6,0.6,9.4,0.7
		c0.5,0,1,0,1.5,0l2.6,0l0.8,0c0.4,0,0.9,0.1,1.5,0.1c0.6,0.1,1.3,0.2,1.9,0.2c0.4,0,0.7,0,0.9-0.1l0.2,0.5
		c-1.6,0.5-3.1,0.8-4.7,0.8l0,0c-0.4,0-0.7,0-1.1,0c-0.2,0-0.5,0-0.7,0c-0.8,0-1.6,0.1-2.5,0.2C303.3,292.6,302.5,292.7,301.6,292.7
		z"/>
	<path fill="#231F20" d="M327.9,157.4c-7.6,0.5-13.7,5.1-16.9,11.9c3.7-0.5,22.7-8.5,24.9-11.9"/>
</g>
</svg>
