<?xml version="1.0" encoding="utf-8"?>
<!-- Generator: Adobe Illustrator 18.1.1, SVG Export Plug-In . SVG Version: 6.00 Build 0)  -->
<svg version="1.1" id="Layer_2" xmlns="http://www.w3.org/2000/svg" xmlns:xlink="http://www.w3.org/1999/xlink" x="0px" y="0px"
	 viewBox="0 0 623.6 737" enable-background="new 0 0 623.6 737" xml:space="preserve">
<g>
	<path d="M229.8,273.7c-6.7,1.3-11.3,5.3-18.8,3.2c-7.2-2-8.3-7.1-13.5-11c-3.2-2.4-12.2-1-12.3-7.2c-2.4,6.1,8.5,10.6,12.3,13.7
		c6.3,5.1,11.3,7.5,19.6,7.9c8.7,0.5,17.3-1.8,26-2.2c6.7-0.4,19.2-0.8,18.7-10.8c-0.2-3.5-2.8-5-4.4-7.7c1.3,1.7,1.3,3.9,1.4,6
		C258.8,277.3,236.7,272.4,229.8,273.7z"/>
	<path d="M356,285.4c2.6-1.4,6.5-6.1,7.3-7.2c1.5-2.1,6-6.4,7.4-9.3l-0.3,1.2c3.7-5.6,8.5-12.8,9.6-19.6c-1.3,2.4-4.9,11.7-7.9,11.7
		c-0.4-3.1,2.5-5.1,2.4-7.9c-1.1,0.5-1.7,2.8-2.6,4c-0.9,1.1-2.1,1.7-3.3,2.5c-1.8,1.1-4.5,3.3-6.5,3.7c0,0.4,0.2,0.7,0.6,0.8
		c0.9-0.7,2-0.7,2.9-1c0.9,2.4-1.8,3.8-3.8,4.5c-1.2,0.4-2,0.5-2.6,0.7c0.8-10.4-0.2-21.2,0.7-31.6c0.6-6.1,2.3-12.6,4.8-18.5
		c2.8-4.6,6.5-9.1,10.2-12.5c4-3.6,4.2-3.5,5-9.4c1.2-8.4,2.5-16.8,3.3-25.3c2.5-25.7,12-57.4-0.9-80.1
		c-8.8-15.5-17.1-28.8-30.4-40.9c-5.8-5.2-12.4-6-19.5-9.2c-9.6-4.4-17.8-5.9-28-8.3c-5.9-1.4-11.3-4.3-17.3-5.5
		c-8.7-1.7-17.8-1.5-26.7-1.4c-23.1,0.2-51.7,5.4-69.7,22.5c-7.2,6.8-12.9,15.7-17.8,25.5c-7.4,15-12.6,31.9-17.1,46
		c-1.3,4-2.1,8-2.7,12.1c-1.3,8.9-2.2,17.5-2.2,26.7c0.6-4.4,1.1-9.9,2.2-14.7c1.1-4.8,1.3-9.8,2.4-14.6c0.9-4.2,2.4-8.3,4.2-12.2
		c2.4-4.9,4.6-9.3,8.1-13.5c10.2-12.1,25.7-29.1,42.9-29.1c17.1,0,34.8,2.8,51.7,4.9c10.6,1.3,22.6,0.9,32.8,3.8
		c11.2,3.2,22.7,7.2,32.4,13.7c6.8,4.6,14.9,7.3,20.9,13c6.9,6.6,9.6,19.2,10.6,28.4c0.7,6.6,2.6,13.4,2,20
		c-0.2,2.2-0.8,4.4-1.1,6.5c-0.5,3.5-1.2,6.5-2.7,9.5c-0.4,0.9-2.5,3-2.9,3.9c-0.8,2.2-0.3,2.2-0.4,4.2c-0.2,3.1-0.5,6-0.5,9
		c0,8.2,1.5,16.4,1.5,24.6c0,2.1-0.1,4.3-0.2,6.4c-0.6,3.1-1.1,6.2-1.7,9.3c-2.9,13.7-3.4,27.9-6.1,41.6c-1.1,5.4-1.7,13.4-5.6,17.3
		c-4.6,4.7-11,9.3-16.2,13.9c-7.9,7-17,12.2-26.1,17.4c-4.2,2.5-5.9,5.1-9.4,8.2c-3,2.6-7.1,3.7-10.4,5.8c-3.7,2.3-7.3,6-10.5,8.9
		c3.6-7.4,5.6-15.9,9.7-23c1.1-1.9,10.4-12.9,8.9-15.2c0,0,0,0,0-0.1c0.3,0.2,0.6,0.5,0.9,0.7c-0.2-0.6-0.3-1.2-0.4-1.8
		c2-5.7,1.7-11.2-2.1-16.6c-4.4-6.3-10.2-13.7-15.5-19c3.9,6.4,12.8,16.7,16.1,26.3c-0.2-0.2-0.3-0.5-0.5-0.7c-2-2.9-5.1-4-6.7-6.3
		c-1.4-0.2-2.3-2.2-4.2-2.6c-0.1,0.6-0.1,1.2-0.1,1.8c-2.5-4.4-7.6-5.8-12.3-6.2c-5-0.4-10.3,1.9-15,1.1c-1.5-0.3-7.2-2.2-8.2-0.4
		c-0.9-0.2-1.9-0.8-2.5,0c-0.8-0.2-1.8-0.5-2.7-0.4c0.1,0.2,0.2,0.2,0.2,0.4c-2.5-2.8-5.6-2-8.4-1.7c-2.7,0.3-4.9-0.5-7.5-0.6
		c-3-0.1-5.5,0.8-8.5-0.1c-0.9-0.3-2.7-1.5-3.5-1.5c0,0-2.2,0.4-1.8,0.6c-1.6-0.9-3.8-0.5-4.8-1.8c-4.7,0-8.7-3.5-12.8-5.1
		c0.2,0.1,0.3,0.1,0.4,0.3c-3.4-1.8-7.7-1.5-11.6-2.1c0.2-0.2,0.5-0.1,0.7-0.4c-0.7-0.1-3-0.4-2.7-0.5c-1.1-0.7-2.5-0.8-4-0.5
		c0.1-3.1,2.5-4.7,3.4-7.5c-1.6,0.6-3,1.9-4.4,3c-1.1,0.8-2.4,1.7-3.6,2.6c-2.5,1.9-4.9,4-6.1,6.7c-0.4,0.9-0.7,1.9-1,2.8
		c-1.3,1.9-3.3,4.6-3,6.8c0.2-0.4,0.6-0.7,0.9-0.9c-0.1,2.3-1.2,4.6-0.6,6.9c0.1-0.3,0.4-0.7,0.5-0.8c-0.2,2.4,0,4.3,0.8,6.6
		c0.6,1.5,0.9,3,0.8,4.6c0.1-0.2,0.4-0.3,0.5-0.4c0.4,2.2,1,4,0.9,6.2c0,2.2-0.2,4.4-0.3,6.6c-0.2,3-0.3,6.2-0.9,9.2
		c0.7-3.7-2.3-9.7-3.4-13.5c-1.7-5.7-5-10-8.3-14.7c-4.4-6.2-7.3-14-10.3-20.9c-1.8-4.2-2-8.7-3.4-13c-1.8-5.4-3.7-9.7-2.6-15.6
		c0.3-1.7,0.7-3.4,1.1-5c0.7-2.3,2.4-5.6,2.1-7.9c-1,2-1.7,4.2-2.8,6.1c-1.2,2.4-1.7,5.5-2.6,7.9c-1.2,3.3-0.7,7.2-0.9,10.7
		c-0.2,4.3-1,8.4-0.4,12.8c0.2,1.2,0.7,5.3,1.8,6.1c-0.3,0.5-0.6,1.2-0.6,1.8c0.1,1.4,1.2,1.5,1.4,2.2c0.3,1.3-0.3,2.6,0.1,3.9
		c1.7,6.1,3.2,12,5.1,18c1.8,5.7,4.2,12.4,7.1,17.6c0.8,1.5,1.5,3.2,2.4,4.7c0.5,0.8,2.1,1.9,2.4,2.4c2.3,4.2,4.8,10.9,5.4,15.6
		c0.7,6.1-0.3,12.4,0,18.6c0.3,6.5,2.6,10.1,3.9,16.1c0,0,0.3,0.2,0.7,0.7c-5.4,3.9-10.9,7.1-16.3,10.5c-22,13.6-49.6,21.3-70,36.8
		c-5.7,4.4-10.2,9.4-16,13.6c-9.9,7.1-24.7,10.5-33,19.1c7.8-8,34.7-9.9,45.7-12.2c17.2-3.6,35.4-8.4,52.2-14.3
		c-12.2,4.2-32.4,9.7-44.1,7.8c3.1-7.1,9.4-7.4,14.4-11.1c11.3-8.3,22.5-16.9,35-23.4c10-5.2,23.8-13.7,34.3-16.9
		c8.2,11.6,10.8,28.2,13.5,43.1c3.3,1.7,5.5,4.6,7.2,8.1c-2.9-10.1-5.7-20.5-7.9-30.6c-1.4-6.6-3.2-13.3-4-20c2,1.3,4.1,2.5,6,3.9
		c8.6,6.2,18.1,7.9,28.5,9.3c3.3,0.5,6.4-0.7,9.7-0.3c3.3,0.4,6.5,1.5,9.7,2c7.7,1.3,17.9,2.1,25.6-0.1c2-0.6,4.6-3.1,7.2-4.1
		c5.8-2.1,12.4-1.9,17.9-4.5c4.9-2.3,7.9-7.1,12.5-9.7c2.8-1.5,5.5-2.7,8-4.6c8.2-6.3,17.2-12.3,24.9-18.9
		c7.6-6.5,14.9-11.7,21.1-19.8c4.3-5.6,5.9-11.6,8.5-17.8c3-7.1,4.9-12,5.9-19.6C353.4,297.5,354.5,291.4,356,285.4z M261.8,336.9
		c-0.1,2.8-1.4,5.9-4.3,6.7c-0.5,2.3-0.8,4.5-1.1,6.9c-0.5-1.4-1.6-2.7-2.3-3.9c0,0.4-0.2,0.7-0.5,1c0-0.2-0.7-1.3-0.8-1.6
		c-0.3,1.4-1.4,1.9-2,2.9c-2.7-0.9-2.9,2.4-6.1,2.3c-0.1-0.3-0.3-0.6-0.6-0.8c-1,0-0.9,0.3-1.8,0c0.3,0.1-4.9,3.3-5.7,3.5
		c-2.3,0.6-5,0.1-7.4,0.2c-3.6,0.2-10.8,3-12.8-1.3c-2.1,0.3-1.3,0.2-2.9-1c-0.4,0-0.3,0.5-0.7,0.4c-1.4-0.3-2.5-0.8-3.6-1.8
		c-0.2,0-0.3,0.1-0.3,0.2c-0.4-0.7-1-1.5-1.3-2.2c-0.3,0.2-0.1,0.7-0.4,0.9c-1.1-0.9-0.6-0.9-2-1.1c0-0.3,0.1-0.8,0-1.1
		c-0.8-0.4-2.4-0.7-3.9-0.5c-0.5,0.1-0.5,0.8-0.8,1.1c-0.1-0.4-0.5-1.4-0.6-1.7c-0.3,0.2-0.8,0.9-1.3,0.9c-0.1-1-0.9-2.4-0.7-3.7
		c-0.5,0.7-1.5,1.2-2,2.3c0,0-0.7-0.7-0.4-0.9c-1.7,0.4-2.7,1.5-3.3,3.2c0-0.4-0.6-2.2-0.4-3.1c-2.5,1.3-5.2,4.8-7.6,5
		c0.7-3.9-4.8-5.1-6.9-6.9c-2.8-2.5-4.6-6.2-6.5-9.4c-2.4-3.9-1.1-11-5.1-13.7c-0.2-2.5,0.7-5.8-1.4-7.5c2.1-6.2,4.9-12.6,3.3-19.3
		c-0.5-2.1-3.5-5.7-1.6-7.8c0.2,0.5,0.5,0.9,0.7,1.4c-1.8-5.5,8.7-2.4,10.9-1.7c1.7,0.6,3.5,1.3,5.4,1.6c1.6,0.3,3.4-1.2,5.1,0.6
		c0.6-0.7,1.8-0.9,2.5-1.5c0.2,0.5,0.4,0.9,0.5,1.5c1.9-0.2,3,2.2,5.2,1.6c0.2,0.3,0.2,0.8,0.5,1c0.4,0.3,7.9-0.4,8.5-0.7
		c0-0.4,0.2-0.8,0.2-1.2c1.5,1.5,3.8,2.4,5.9,3c1.4,0.3,2.9,0.7,4.4,0.7c0.7,0,1.8-0.5,2.3,0c0.6-0.2,1.3-0.2,1.9-0.2
		c0.3-1,3.8,0.1,4.5,0.2c-0.2-0.2-0.2-0.5-0.3-0.7c4,0.9,8.1,1.5,12.1,2.5c2.5,0.6,4.8,1.6,7.3,2.2c1.3,0.3,2.7,0.6,4,0.7
		c1.2,0.1,2.4-0.6,3.6-0.5c0.1,0.1,0,0.2,0.1,0.4c1.5,0.3,2.5,0.3,3.8,0.5c1.8,0.3,4,0.8,5.7,0.8c1.2,1.3,3.4,0.8,4.9,0.6
		c1.5-0.2,3.1,0,4.4-0.5c0.3,0.7-0.4,1.3-0.7,2c1.9-0.5,3.7-1.4,5.6-2c1-0.3,1.4-0.5,2.2,0c1.4,0.9,0.5,0.7,0.2,1.8
		c-0.4,1.5-0.2,2.9-0.6,4.4c-0.2,0.6-0.5,1.4-0.6,2c0,0.4,0.2,0.8,0.2,1.3c-0.7,3.7-3.9,6.5-5.2,10
		C268.7,324.1,269.3,333.8,261.8,336.9z"/>
	<path d="M214.1,325.4c-3.8,0-8.4,0.3-12.1-0.6c-4-0.9-7.2-3.8-11.1-5l-1.1,0.6c2.1,2.3,5.2,4.4,7.7,6.1c3.6,2.7,5.2,2.4,9,3.2
		c8.7,1.9,20,2.5,28.3-2.9C229.7,324,220.4,325.4,214.1,325.4z"/>
	<path d="M235.4,306.3c-7.2-2.8-13.3-2.5-22.8-1.9c-10.3-4.4-18.1-3.3-22.8-4.2c-4.7-0.8-15-8.1-15-8.1s9.4,10,14.7,10
		c5.3,0,12.8,0.8,21.1,5.3c13.3-1.4,34.2,3.1,37.8,3.1c3.6,0,18.1-3.9,20.3-5.6C263.5,307.1,242.7,309.1,235.4,306.3z"/>
	<path d="M170.9,202.4c1.5-0.3,3-0.6,4.6-0.9c-0.3,1-0.4,2.1-0.4,3c0,2.4,1,4.8,2.8,6.5c-2.5,0.2-4.9,0.1-7.3-0.6
		c9.8,3,21.8,2.2,32.1,2.8c0.1,0.7-0.2,1.3-0.8,1.9c-0.1,0.3-0.3,0.6-0.4,1c0.1,0,0.2,0,0.3,0c0,0.2,0,0.5,0,0.7
		c1.3,0.1,2.6-2.3,2.8-3.4c0,0,0,0,0,0c0,0,0-0.1,0-0.1c0.1-0.8-0.1-1.5-0.4-2.2c-0.2-0.4-0.4-0.9-0.7-1.3c-0.2-0.3-1-1.1-1.1-1.4
		c0,0.1,0,0.2-0.1,0.4c-0.4-0.5-0.8-1.1-1.2-1.5c-3.8-3.6-8.2-6.6-13.3-8.2c-4.1-1.2-8-1-12.2-0.8c-4.1,0.2-10.7-1.4-13.5,2.4
		c1.6,0,3.2-0.2,4.8,0.4c-2.2,0.6-8.8,3.7-9.7,5.1c1.7-0.4,3.5-0.2,5.1-1c-0.7,0.4-1.4,1.1-1.9,1.4
		C164.3,205.7,167.1,203.2,170.9,202.4z M190.7,203.9c0.1,0.2,0.1,0.4,0.1,0.6c0,1.1-0.9,1.9-1.9,1.9c-1.1,0-1.9-0.9-1.9-1.9
		c0-0.7,0.4-1.3,0.9-1.6C188.8,203.2,189.8,203.5,190.7,203.9z M199.8,208.1c0.2,0.3,0.9,1.7,1.2,2.9c-3.5,0.6-6.5,0.1-10-0.3
		c0,0,0,0,0.1,0c1.4-1.3,2.1-3.4,2.3-5.3c0-0.1,0-0.3,0-0.4c0.5,0.2,0.9,0.3,1.4,0.5C196.5,206,198.5,206.5,199.8,208.1z"/>
	<path d="M308,224.3c-1.9-1.6-5-3.4-7.4-4.2c2.2-0.5,4.5-0.1,6.8,0.4c-2.7-0.7-4.9-2.4-7.6-3.2c-2.7-0.8-5.4-0.8-8.1-1.3
		c-4.2-0.8-7.8-2.7-12.1-3.3c-3.6-0.5-8.9-0.2-12.1,1.8c-1.8,1.1-3.2,3-5,4.2c-1.8,1.2-4.4,1.6-4.9,3.9c6.3-0.3,11.5,5.4,17.6,4.2
		c-3,0.6-10.4-3.7-12-6.2c4.9-2.2,9.9-4.1,15.1-4.9c-1.6,2-1.9,5.5-1.1,7.6c1.4,3.5,4,4.3,7.5,4.5c4.4,0.2,9.2,1.1,10.2-4.7
		c0.1-0.6,0.1-1.1,0.1-1.6c0-1.7-0.6-2.9-1.5-3.8c1.2,0.5,2.4,1.1,3.6,1.9C299.9,221.2,304.5,224.8,308,224.3z M289.7,221.7
		c-1.1,0-1.9-0.9-1.9-1.9c0-1.1,0.9-1.9,1.9-1.9c1.1,0,1.9,0.9,1.9,1.9C291.7,220.9,290.8,221.7,289.7,221.7z"/>
	<path d="M261.3,228.2c1.3,0.8,2.3,1.8,3.4,2.8l1.8,0.9C265,230.6,263.2,228.8,261.3,228.2z"/>
	<path d="M279.3,240.6c6.7,1.9,13.3,0,19.1-3.4c-4,0.2-7.7,2.3-12.1,2.1c-6.9-0.3-12.9-2.6-18.9-6.1c-1-0.6-1.9-1.4-2.8-2.2
		l-2.5-1.3C267.9,234.4,272.2,238.5,279.3,240.6z"/>
	<path d="M177.4,171.2c-9-2.2-24.3,1.9-27.7,11.9c3,1.4,9.6-3.5,13.5-3.3c4.9,0.2,9,2.6,13.3,4.8c9.6,4.9,18.7,2.3,28.7,2.8
		c0.5-3.7-3-4.4-5.2-6.6l2.4,1.4C196.3,176.4,185.1,173.1,177.4,171.2z"/>
	<path d="M315.8,200.8c1.5,0.4,3,0.6,4.3,1c2,0.6,1.3,2.4,3.6,1.4c-1.2-4.3-6.1-5.6-9.7-7.1c-4.6-1.9-8.1-4.2-12.2-7.1
		c-3-2.1-7.7-2.7-11.5-3.5c-9.6-1.9-29.4-0.1-37.3,6.3l1.4,0.5c7.4,2.4,17.1,3.5,25.4,4.3c8.4,0.8,21.2-3.1,28,3.4
		C311.1,198.9,312.9,199.9,315.8,200.8z"/>
	<path d="M212.6,416c1.3,1.6,3,2.7,5,3.7C216,418.5,214.3,417.3,212.6,416C212.6,416.1,212.6,416,212.6,416z"/>
	<path d="M296.9,468.3c-7.6,0.3-17.1-11.6-22.2-16.3c-4.6-4.2-10.8-6.6-14.7-11.7c-0.9-1.2-6.9-11-7.3-10.8c10.2-5,19.4-9.3,28.6-16
		c4.1-3,8.1-7,11.6-10.7c3-3.3,7.7-7.1,9.2-11.2c-0.6,1.5-4.4,3.7-5.6,4.8c-2.1,1.8-4.2,3.6-6.3,5.4c-2.8,2.5-5.6,4.9-8.8,7
		c-6.9,4.7-14.4,8.6-22.3,11.3c-8.7,3-18.6,4.8-27.7,3c-4-0.8-9.4-1.6-13.8-3.7c1.6,1.2,3.2,2.4,4.8,3.6c4.8,3.4,2.2,9.8,0.5,14.7
		c-4.2,12.5-13.5,21.6-20.2,32.5c5.5-4,10.1-11.4,13.8-17.1c3.3-5.2,7.1-10.1,9.8-15.6c1.2-2.4,1.6-5.2,3.9-6.5
		c2.2-1.2,5.4-0.5,7.8-0.5c3.1,0,7.2-0.6,9.8,0.8c2.4,1.3,3.3,3.9,5.1,5.8c1.8,1.8,3.4,2.1,5.4,3.4c5,3.2,9.1,8.4,13.3,12.5
		c3.5,3.3,7.5,9.3,11.8,11.4c1.9,0.9,3.8,0.7,5.7,1.9c1.5,1,2.8,2.7,4.3,3.8c11.3,8.1,22.4-11.5,23.5-20.9
		C311.9,454.7,305.1,468,296.9,468.3z"/>
	<path d="M118.6,430.9c1.2-0.4,2.3-0.8,3.3-1.2C120.8,430.1,119.7,430.5,118.6,430.9z"/>
	<path d="M582.5,529.9c-10.3-19.1-7.7-52.2-26.9-65.3l-152-89.2c-2.4-0.2-4.3-2.2-6.7-2.7c-2.1-0.4-4.3,0.5-6.4-0.6
		c-4.6-2.4-4.7-6.9-10.1-8.4c-1.1-0.3-2.7-0.3-3.4-0.9c-0.6-0.5-0.7-2-1.5-2.7c-1.6-1.4-3.5-1.3-5.6-1c-0.3-0.9,0.2-1.9-0.3-2.8
		c-4.3-2.8-7.4-7.1-11.4-10.3c-1.8-1.4-3.6-1.9-5.5-3c-1.2-0.8-4.1-2-5-2.7c3.6,2.9,6.4,6.5,9.6,9.6c3.1,3,6.4,5.2,7.1,9.8
		c0.8,4.9-0.6,10.4-1.9,15.2c-2.9,10.6-7.8,20.5-11.4,30.9c6.2-6.8,10.4-15.5,13.8-24.1c1.1-2.8,3.6-19.4,7.7-18.7
		c0.9,4.4,0.7,8.7,0.1,13.2c-0.7,5-0.9,10.7-2.3,15.5c3.3-4.8,4.6-12.1,6-17.9c0.7-2.8,0.9-5.2,4.3-4.4c3.9,0.9,3.8,5.9,6.4,8.1
		c2.1,1.7,2.6,0.1,4.2,0.6c1.7,0.6,3,2.2,4.1,3.7c1.7-1.3,2.7-0.8,4.5-0.4c7.2,2,13.7,6.1,20.2,9.7c12,6.5,24,13.8,36.2,20
		c17.7,8.9,37.5,15.7,53.1,28c13.3,10.5,24.8,20.9,36.6,32.9c6.5,6.6,8.4,15.6,9.5,24.5c1.6,12.3-0.3,14.7,9.2,22.4
		c11.6,9.4,21.9,22.4,28.3,36c3.3,7,6.4,14.6,9.7,21.7C598.8,559.9,590.6,544.8,582.5,529.9z"/>
	<path d="M169.8,222.1c0.3,0.5,0.8,1,1.3,1.3c1,0.6,2.1,1,3.3,1.2c2.9,0.5,5.9,0,8.8-0.6c3.5-0.8,10.4-0.9,12.3-4.6
		c-1.5-0.5-3.4,1.1-4.9,1.6c-3.2,1-7.2,0.9-10.5,1.1c-3.6,0.2-8.2,0.2-11.1-2.2c0.1,0.1,0.3,1.1,0.4,1.3
		C169.5,221.4,169.6,221.8,169.8,222.1z"/>
	<path d="M224.5,463c0,33.6-7.1,65.5-12,98.5c-3.4,23-7.6,46.1-10,69.2c-2.8,26.4-1.4,52.7-1.4,79.7c0.1-26.4,5.3-59.2,7.8-87.8
		c1.8-20.7,6.2-41.3,7.8-62c2.3-28,10.9-56.2,9.1-84.7L224.5,463z"/>
</g>
</svg>
