<?xml version="1.0" encoding="utf-8"?>
<!-- Generator: Adobe Illustrator 18.1.1, SVG Export Plug-In . SVG Version: 6.00 Build 0)  -->
<svg version="1.1" id="Layer_2" xmlns="http://www.w3.org/2000/svg" xmlns:xlink="http://www.w3.org/1999/xlink" x="0px" y="0px"
	 viewBox="0 0 623.6 737" enable-background="new 0 0 623.6 737" xml:space="preserve">
<g>
	<path fill="#231F20" d="M371,287.3c2.4,0.4,4.7,1.7,7.1,2c-3.2-2.5-10-2.5-13.2-5.7c2-1.6,6.4-0.1,8.2-2.7
		c-2.3-0.7-5.2,0.4-7.4-0.9c2.4-1.6,6.3-3.7,7.9-6.1c-1.4,0.3-2.6,1.3-3.9,1.9c-1.3,0.6-5,2.2-6.3,1.5c-1.5-0.8,0.1-1.3,1.3-2.3
		c1.8-1.4,3.1-3.3,4.2-5.3c-2.6,0.9-4.5,5.3-8.1,3.8c2-2.1,3.1-3.4,4.2-6.1c-1.8,1.9-5.3,5-8.2,3.5c0.5-1,2-1.3,2.7-2.1
		c0.3-0.3,0.2-0.8,0.7-1.1c-1.6,0.5-3.6,1.8-5.4,1.4c-2-0.5-1.1-2.4,0.5-2.9c-1.1,0.5-2.5,1.1-3.7,0.7c0.3-0.2,0.6-0.5,0.9-0.6
		c-0.5,0.2-5.5,1.7-3.7-0.5c-1.4,0.4-3.5,0.9-4.9,0.3c0.6,0.2,0.9-2.5,1-2.8c-2.6-0.4-4.7,2-7.2,1.6c0.2-0.3,0.4-1,0.8-1.4
		c-2.9,0.6-5.3,1.7-8.2,2.2c-7.5,1.2-14.3,5.2-20.7,9.2c-1.6,1-5.4,1.8-4.8,4.3c0.5,2,2.8,1.5,4.4,1.6c1.9,0.1,3.8,1,5.7,0.7
		c-1.2-3.5-4.3-0.8-6.2-2.9c0.4-2.7,3.3-2.9,5.3-3.9c2.8-1.5,5.5-3.3,8.4-4.5c2.6-1.1,5.4-1.6,8.2-1.9c-3.8,1.7-6.5,5.6-6.5,10
		c0,2.4,0.8,4.7,2.1,6.5c4,1.2,9.4,2.3,15.6,2.3c2.7-2,4.4-5.2,4.4-8.8c0-5-3.4-9.3-8-10.6c3.1,0.1,5.8,0.9,9,2.8
		c2.2,1.3,4.6,2.3,6.7,3.7c2,1.3,4.3,3.4,5.7,5.4c1.2,1.7,1.1,2.4,0.5,4c-0.9,2.3-3.7,3.5-6.2,3.9c2.4-0.3,5.8,0,8,1.1
		c0.9,0.4,1.6,1,2.8,1.4c3.4,1.1,6.3,2.9,9.6,4.3c-0.7-1.7-3.2-4-4.7-4.9c-1.8-1-4.1-0.8-5.7-2C365.7,286.3,369.3,287.1,371,287.3z
		 M341.5,271.7c1.5,0,2.7,1.2,2.7,2.7c0,1.5-1.2,2.7-2.7,2.7c-1.5,0-2.7-1.2-2.7-2.7C338.8,273,340,271.7,341.5,271.7z"/>
	<path fill="#231F20" d="M304.2,250.2c-0.9,1.3-2.2,1.5-3,2.8c1.2,3,2.4,2.4,5.9,2.3c-0.3,0.9-1.1,1.6-1.4,2.4
		c7.6-2,15.3-4,23.1-5.7c6.1-1.4,12.1-1.5,18.3-2.2c7.5-0.8,15.3-3.1,22.8-0.4c3.2,1.1,7.4,2.9,9.5,5.6c1.4,1.8,3.1,5.3,5.5,5.9
		c1.1-2.9-0.9-4.6-2.6-6.5c-2.3-2.4-3.7-4.9-6.5-6.9c-7.5-5.4-16.7-6.6-25.9-5.1c-4.7,0.7-9,2.1-13.7,2.1c-4.9,0-9.7,1.3-14.5,0.7
		c-2.8-0.4-10.7-1.6-12.8,1.3c0.2,0,0.4,0,0.6,0.1c-1.1,0.8-2.6,0.6-3.7,1.4C304.9,248.7,304.8,249.3,304.2,250.2z"/>
	<path fill="#231F20" d="M232,230.4c-1.4-0.2-2.8-0.4-4.1-0.6c-4.8-0.8-9.3-1.9-14.2-2.8c-10.5-1.9-18.3-7.9-29.3-4
		c-8.8,3.1-17.6,11.4-18.9,21c2-3.8,9-13.6,13.6-14.8c0,0.3,0,0.5-0.2,0.6c6.8-2,14.3-4.3,21-1.4c11.8,5,24,8.2,35.8,12.3
		c2.9,1,6.5,1.2,9.3,2.8c-0.1-2.4-2.1-4.4-1.8-7.3C243.6,232.8,234.3,230.6,232,230.4z"/>
	<path fill="#231F20" d="M363.5,293.5c-1.9,0.6-3.6,1.6-5.5,2.2c-2,0.5-4.4,2.1-6.5,2C353.7,297.8,363.9,296.7,363.5,293.5z"/>
	<path fill="#231F20" d="M215.5,252.1c0.8,0.1,1.6,0.2,2.4,0.4c-0.5-0.1-1-0.2-1.5-0.4C216.1,252.1,215.8,252.1,215.5,252.1z"/>
	<path fill="#231F20" d="M187,272.7c3-0.6,6.2,0.3,9.3,0.4c2.5,0.1,5.3,0.9,8,1.1c4,0.8,9,1.4,14.6,1c2.5-2.2,4-5.5,3.8-9.1
		c-0.3-4.4-3.1-8-7-9.5c5.2,1.5,8.3,5.3,12.4,8.4c1.8,1.3,9.2,4.3,7.8,7.6c-0.6,1.4-5.6,2.2-7,2.4c3.7-0.8,9.4,0.3,12.1-3.3
		c-2.6-2.4-6.2-4.3-9.1-6.6c-1.7-1.3-2.5-1.6-3.7-3.3c-1.2-1.6-2.5-3-4.1-4.2c-3-2.2-6.6-3.4-10.2-4c-2.4-0.4-4.9-0.3-7.3-0.3
		c2.8-0.6,6-1.4,9-1.4c-1.4-0.2-2.9-0.4-4.4-0.5l3.3,0c0.7,0.2,1.4,0.3,2,0.5c1.1,0.1,2.2,0.3,3.2,0.7c-0.6-0.1-1.2-0.2-1.8-0.3
		c2.6,0.7,5.3,1.5,7.4,2.9c2.8,1.9,5.9,3.9,9.1,5.4c-1-2.5-3.9-3.2-5.9-4.7c-2.3-1.7-4.6-3-7.3-3.9c-4.3-1.4-9.4-2.2-13.9-1.2
		c-1.5,0.4-14.8,4.4-14.5,0.1c-0.1,1.6,1.6,3.4,2.9,4.3c-2.6-0.1-6.1-0.3-8.1-2.2c1.3,1.6,2.5,2.9,4.3,4c-2.8,0.9-6.8,1.9-9.7,0.7
		c0.4,0.2,1,1.3,1.5,1.6c0.7,0.5,1.4,0.3,2.1,0.6c2.4,1-0.3,1.8-1.5,2.1c-2.7,0.6-5.2,0.1-7.8,0.3c1.1,0.8,7,3.6,6.3,5.1
		c-0.4,0.9-2.5,0.5-2.7,1.5c-0.2,0.7,0.9,1.1,1.3,1.5c-1.2,1,0.8,3,1.7,3.3C184.4,274.1,185.7,272.9,187,272.7z M220,262.5
		c0.1,1.5-1,2.8-2.5,2.9c-1.5,0.1-2.8-1-2.9-2.5c-0.1-1.5,1-2.8,2.5-2.9C218.6,259.9,219.9,261,220,262.5z M191.5,262.5
		c1.9-1.6,4.2-2.7,6.3-4c4.2-2.7,9.2-3.3,14-2.7c-0.3,0-0.7,0-1,0c-6.1,0.4-10.7,5.7-10.3,11.8c0.1,1.9,0.8,3.7,1.8,5.2
		c-2.2-0.4-4.5-0.9-6.7-1.4c-1.9-0.4-4.4-0.5-6.1-1.3c-1.2-0.5-2.1-1.6-3.2-2.2C188.3,266.4,189.6,264.2,191.5,262.5z"/>
	<path fill="#231F20" d="M187.6,253.1c-0.3-0.4-0.6-0.8-0.9-1.2C186.9,252.3,187.3,252.7,187.6,253.1z"/>
	<path fill="#231F20" d="M257.3,370.5c5,4.4,15.4,1.9,19.5,0c4.1-1.9,10.7-6.9,14.5-7.9c3.8-0.9,8.5-1.6,3.1-2.5
		c-5.3-0.9-11.3,2.8-14.2,5c-2.8,2.2-5.3,5-7.9,5.3c-1.6,0.2-6,1-10.4-0.5c-2.7-0.9-3.4,0.5-7.5-5.8c-3.6-5.4-8-7.6-10.7-8.5
		C249.2,358,252.9,366.6,257.3,370.5z"/>
	<path fill="#231F20" d="M241.7,355.1c-0.3,0-0.4-0.1-0.4-0.1C241.4,355,241.5,355.1,241.7,355.1z"/>
	<path fill="#231F20" d="M243.8,355.6c-0.7-0.3-1.4-0.5-2.1-0.5C242.1,355.2,242.8,355.3,243.8,355.6z"/>
	<path fill="#231F20" d="M268.5,389c-6.6,1.3-15.7-3.7-24.6-3.8c-2.1,0-4.2-0.5-6.3-0.9c-2.8-0.6-5.6-1.3-8.3-2c-3-0.8-6-1.6-9-2.3
		c-2.8-0.7-5.6-1.4-8.5-1.9c-1.9-0.4-3.9-0.7-5.9-0.8c-0.4-0.1-0.8-0.1-1.3,0c-0.2,0-0.4,0.1-0.7,0.1c-0.5,0.1-1,0.2-1.5,0.4
		c0,0,0,0,0,0c-0.1,0.1-0.2,0.1-0.3,0.1c0,0,0.1,0,0.2,0c0,0,0,0,0,0c0.3,0.1,0.9-0.1,1.3,0c0.4,0.1,0.8,0.2,1.2,0.4
		c0,0,0.1,0,0.1,0c0.7,0.3,1.4,0.9,2,1.3c0.9,0.6,1.9,1.3,2.8,1.9c2.6,1.9,5.1,3.9,7.4,6.1c5.8,5.5,10.4,11.8,16.6,17
		c7.3,6.2,17.2,7.4,26.5,8.4c23.8,2.7,39.8-4.8,48.2-13c2-1.9,3.9-4,6.1-5.8c2.3-1.9,5.4-3.6,8.1-5.1c0.8-0.4,1.6-0.8,2.4-1.2
		c4-1.1,4.1-2.4,4.1-2.4s-18.6,2.1-28.6,1.9C290.5,387.3,275.1,387.7,268.5,389z M309.6,390.7c-0.5,0.4-1.1,1-1.7,1.6
		c-5.7,6.2-11,12.7-18.8,16.1c-8.8,3.8-19.4,4.6-28.9,3.5c-6.9-0.8-13.6-3.1-19.4-7c-6.6-4.4-10.6-10.7-15.8-16.5
		c-2.1-2.3-4.1-4.6-6.7-6.5c14.9,6.3,34,16.4,46.2,16.6C276.3,398.7,296.5,393.7,309.6,390.7z"/>
	<path fill="#231F20" d="M238,420.6c0,0,11.6,8.9,27.1,8.6c15.4-0.3,25.3-6.2,25.3-6.2C263.4,433.9,238,420.6,238,420.6z"/>
	<path fill="#231F20" d="M193.2,379.4c0.2,0.1,0.4,0.1,0.6,0c0.6-3.9-1.9-8.2,0-12c1-2.2,3.8-3.3,5.6-4.9c1.8-1.7,3.2-3.7,4.8-5.6
		c3-3.5,6.1-7,9.2-10.5c0,0-18.2,14.3-21.7,17.8c-2.7,2.7-1.3,7.6-0.2,10.9C191.8,376.7,192.8,377.9,193.2,379.4z"/>
	<path fill="#231F20" d="M343.4,379.4c-0.9-3.5-18.7-20.8-18.7-20.8s12.2,15.6,14.8,19.5c2.6,3.9,0.4,8.7,0.4,8.7
		S344.3,382.9,343.4,379.4z"/>
	<path fill="#231F20" d="M259.1,269.1c-1.2-3.5-7-14.8-11.4-15c3.5,4.1,8.1,11.6,8.1,17.2c0.2-0.2,0.5-0.6,0.8-1
		c5.1,3.7-1.9,14.7,0.4,19.1c-0.5-1,2.7-8.4,3-10.1C260.3,275.8,260.1,272.4,259.1,269.1z"/>
	<path fill="#231F20" d="M177.4,365.1c-0.9-1.7-2-2.6-2.8-4.6c0.8,2,1.8,3.7,2.5,5.9c0.6,1.7,0.9,3.6,1.5,5.4
		c1.1,3.5,2.3,8,4.1,10.3c-0.6-3.7-2.3-7.6-3.4-10.9C178.6,369.1,178.3,366.7,177.4,365.1z"/>
	<path fill="#231F20" d="M348.7,393.2c-0.3,0.4-2.1,4.6-2.1,4.6c2.5-0.6,4.2-4.9,5.3-6.9c1.1-2,3.8-8.2,5.9-8.8
		c-3.2,0.9-5.5,4.2-6.9,7C350.2,390.5,349.5,391.8,348.7,393.2z"/>
	<path fill="#231F20" d="M197.9,290l-4.4-2c-0.3-0.1-0.7-0.2-1-0.3C194.1,288.7,196,289.6,197.9,290z"/>
	<path fill="#231F20" d="M193.5,288L193.5,288c1,0.3,2,0.6,3,0.9C195.4,288.5,194.4,288.2,193.5,288z"/>
	<path fill="#231F20" d="M217.8,291.1c-1.9,1.4-9.4-0.3-11.6-0.5c-3.3-0.4-6.5-0.9-9.7-1.7C203.1,291.1,212.2,295.1,217.8,291.1z"/>
	<path fill="#231F20" d="M517.5,591c-11.1-39.1-14.2-19.4-17.3-49.8c-3.1-30.4,4.1-57.8,4.1-57.8s3.8-26.3-20.7-73.7
		c-24.6-47.4-25.2-111.4-28.7-165.7c-3.5-54.3-21.8-115.2-54.3-168.8c-32.5-53.6-123.8-82-148-42.5c-49.5,2.4-65.4,39.1-65.4,39.1
		s-59.5,18-38.7,45.3c-30.6,2.2-34.3,23.4-34.6,31.3c23.1-12.8,53.2-7,53.2-7s-32.1-4-55.5,12.8c-5.5,7-19.1,26.2-19.1,45.2
		c0,20.9,7.9,33.5,11.5,54c12.8-51.8,39.4-69.9,39.4-69.9c-25.9,25.9-35.2,55.5-37.6,87.1c1,20-1.2,35.3,2.1,63.6
		c-0.8,51.2,8,120.8,58.9,140.8c0.3-0.2,0.6-0.5,0.9-0.7c-37.5-18.6-48.8-65.6-51.4-103.8c9.1,24.1,23.4,43.5,31.8,64.2
		c11.4,28,15.9,42.5,23.5,37.7c7.6-4.8,16.9-18.3,19-37c-11.1-13.5-31.8-36.3-42.5-97.2c-6.5-36.9-2-70.1,8.7-105.8
		c2.3-7.6-1.3-19.5,3.9-25.7c-0.9-0.5-2.4-1.9-3.7-2.6c1.3-5.4,5-10,6.7-15.6c-0.6,0.1-1.2,0.3-1.8,0.7c3.2-13.1,8.4-20.8,17.4-30.6
		c2.1-2.3,4.3-3.3,6.6-5.2c0.3-0.2,1.5-2.1,1.7-2.4c0.1-0.1,1.2-2.7,1-2.4c0.9-1.2,0.5-2,3.2-3c1.2-0.5,1.8-0.5,3.1-0.7
		c1.5-0.2,3.2,0.4,4.5,0.1c1.6-0.3,2.1-1,3.3-1.4c3.7-1,10.9,0.2,13.6-2.3c-0.4-0.8-0.1-1.6-0.3-2.4c15-3.6,30.5-1.3,45.4,1.5
		c12.7,2.4,24.9,9.5,37.4,11.3c5.4,0.8,12.9-2,18.4-2.5c12.1-1.1,30.4-1.9,41.3,5c-3.2,0.1-5.9,1.1-9.1,1.1
		c18.9,6.6,29.1,25.8,35.3,43.5c7.7,22,4.7,37,3.7,59.5c-0.9,20.6,4.4,41.6,2.2,62.3c-1.4,13.5-7.9,33.6-11,52.6
		c-3.1,19-17,43.1-26.7,52.8c0,0-32.2,29-41.5,36c-9.3,6.9-28,23.5-51.2,21.4c-23.2-2.1-43.2-21.4-51.5-29.4
		c25.2,31.8,51.2,32.9,51.2,32.9s23.2,1.4,46-18.7c22.8-20.1,23.9-18.7,23.9-18.7s-39.1,52.2-25.2,80.6
		c13.8,28.4,18.3,30.1,18.3,31.1c0,1-6.2,11.4,10.7,45c4.9,9.8,10.6,16.6,16.1,22.4c-2.8,29.9-17.5,89.5-92.4,73.9
		C158.4,681.9,134,494.3,134,494.3l-21.4,7.3c0,0,38.3,189.1,146,217.1c83,21.6,92.4-53.3,92.3-88.7c12.9,13.1,24.8,20.9,25,46.7
		c0,0,116.2,44.3,141.1,24.2C542,680.9,528.5,630.1,517.5,591z M138.2,129.1c0,0-5.5-4.1-16.5,6c0,0,5.5-13.7,22.4-14.2
		C144.2,120.9,139.1,125,138.2,129.1z M163.8,101.2c0,0-10.5-1.8-9.6,16.9c0,0-19.7-24.3,31.1-42.1
		C162,89.3,163.8,101.2,163.8,101.2z M284.2,38.9c-9.9-1.8-24,0.8-33.6,3.5c-35,9.8-44.3,46.8-37.8,78.8c-8.2-27.9-3.7-66.8,26.5-80
		c44.5-19.4,86.1,3.2,118.2,33.9c9.2,8.8,17.3,18.7,26.1,27.9C357,75.6,323.2,46,284.2,38.9z M382.2,417.5
		c-5-52.2,22.1-107.3,27.1-138.4c5-31.1-4-83.2-4-83.2s15.8,55.4,2.8,105.5c-13,50.1-57,118.4,27.3,246.5
		C416.3,532.9,387.2,469.7,382.2,417.5z"/>
	<path fill="#231F20" d="M258.8,549.7c3.6-0.6,7.4-3.9,9.5-6.6c2.3-3,3.2-7.1,4-10.7c0.6-2.5,1.3-4.9,1.9-7.5
		c0.6-3,2.2-7.9,2.2-11.7c0.7-3.5,1.6-7.1,1.2-10.6c-1.7,2.2-1.7,7.3-2.3,10.3c-1.1,5.9-2.7,11.2-4.6,16.9c-1.6,4.7-3.9,12.5-9,14.8
		c-4.4,1.9-7.4-3.1-11.1-2.3C249.8,546.9,254.3,550.4,258.8,549.7z"/>
	<path fill="#231F20" d="M231.9,540.3c-3.2-6.7-4.7-13.7-7-20.7c-1-3-2.2-5.8-3.2-8.7c-0.9-2.6-3.3-7.3-3.1-10
		c-0.5,6,3.6,13.4,4.8,19.3C224,522.9,224.3,548.6,231.9,540.3z"/>
</g>
</svg>
