<?xml version="1.0" encoding="utf-8"?>
<!-- Generator: Adobe Illustrator 18.1.1, SVG Export Plug-In . SVG Version: 6.00 Build 0)  -->
<svg version="1.1" id="Layer_2" xmlns="http://www.w3.org/2000/svg" xmlns:xlink="http://www.w3.org/1999/xlink" x="0px" y="0px"
	 viewBox="0 0 623.6 737" enable-background="new 0 0 623.6 737" xml:space="preserve">
<g>
	<g>
		<path d="M213.9,234.4c1.6,0.3,3.1-1,4.4-2.4c-0.8,1-1.5,2.2-2.3,3.2c6.8-4.7,10.8-8.2,19-9.9c3.1-0.7,6.3-0.8,9.5-0.7
			c6.3,0.3,12.6,1.6,18.7,2.5c5.2,0.8,10.7,2.8,16,2.6c-2.9-4.7-12.5-5.1-17.3-6.9c-6.6-2.4-13.8-5.6-21-5.5
			c-3.6,0-12.8-0.3-15.4,2.4c0.8,0.2,1.6,0.5,2.4,0.7c-2.5,1.1-4.6,3.7-7.4,4.5C219.7,225.1,214.5,233.3,213.9,234.4z"/>
		<path d="M378.2,231.7c0.6-0.3,2.1-1.7,2.9-2.3c-1.1-1.8-2.2-4.9-4-6.2c-2.6-1.8-6.3-1.7-9-3c-7.1-3.5-9.4-3.7-17.5-2
			c-7.4,1.5-14.3,3-21,5.9c-7.5,3.3-8,6-10,11.8c0.8-1.3,1.6-2.5,2.8-3.3c1.2-0.8,2.6-0.1,3.9-0.5c2.5-0.8,4.9-2.4,7.6-2.8
			c3.9-0.6,8-0.3,12-0.7c4.6-0.5,9.1-2.6,13.6-2.8c-0.2,0.4-0.7,1.4-1,1.9c2.2-0.2,4.4-1.5,6.5-0.3c0.1,2.2,2.6,2.3,4.6,1.5
			c0.9,0.7,1,0.5,2.4,1c-0.2,0.3-0.4,0.6-0.7,0.8c2,0.3,4.4,0,6.3-0.3c-0.6,0.5-1,1-1.8,1.4C376.7,231.8,377.5,231.9,378.2,231.7z"
			/>
		<path d="M318.5,239.4c0.5-1.2,0.9-2.3,1.2-3.3c-0.9,1.5-1.7,3.1-2.7,4.4L318.5,239.4z"/>
		<path d="M269.5,255.8c2-0.6,7.2,0,4.9-3.8c-0.9-1.6-2.3-2.7-3.2-4.2c-0.9-1.5-1.8-3.3-2.9-4.6c-2.4-2.7-7.3-3.2-10.6-3.7
			c-2.2-0.3-4.2-0.8-6.5-0.9c-1.7,0-3.5,0.3-5.2,0.7c2.9-0.4,6-0.2,8.5,0.4c3.1,0.7,5.9,1.3,8.5,3.2c2.3,1.7,4.1,3.4,6.1,5.2
			c1.4,1.2,4.7,3.1,4.5,5.3c-3.6,0.1-5.5-1-8.7-2.3c-3.8-1.7-9.5-5-13.8-4.4c-2,0.3-4.4,1-6.3,1.9c-2.1,1-4.1,2.4-5.9,3.9
			c-2.1,1.9-5.5,3.7-6.1,6.7c1.9-0.3,3.9,0.5,5.8,0.4c-0.7-0.8-1.8-1-2.2-2c-0.7-0.1-1.5-0.1-2.1,0.2c3.6-2.2,6.4-5.2,9.8-7.3
			c-0.1,0.6-0.2,1.3-0.2,2.2c0,4.5,3.7,8.2,8.2,8.2c4.5,0,8.2-3.7,8.2-8.2c0-1.3-0.3-2.3-0.7-3.1c0.7,0.3,1.4,0.6,2.1,1
			c2.9,1.6,7,3.2,4.4,6.8C267.4,257.2,268.4,256.1,269.5,255.8z M255.7,253.3c-1.1,0-2.1-0.9-2.1-2.1c0-1.1,0.9-2.1,2.1-2.1
			c1.1,0,2.1,0.9,2.1,2.1C257.7,252.3,256.8,253.3,255.7,253.3z"/>
		<path d="M246,239.3c-1.5,0.2-2.9,0.6-4.1,1.2C243.3,240.1,244.7,239.6,246,239.3z"/>
		<path d="M361,244.8c1.4-0.1,2.9-1.2,4.2-1.9c0-1.4-3.6-2.9-4.8-3.4c-2.2-0.8-4.5-1.2-6.8-1.7c-2.2-0.5-4.1-1.5-6.4-1.2
			c-2,0.2-4.4,0.9-6.5,1.7c-3,0.5-6.2,3.6-8.5,5.3c-2.8,2.1-5.5,4.1-7.9,6.5c2.1-0.2,4-1.2,6.2-1.2c1.2,0,2.2,0.2,3.5,0.2
			c-2.3-2.7,0.4-4,2.8-5.9c0.3-0.2,0.5-0.4,0.8-0.6c0,0.1,0,0.2,0,0.3c0,4.5,3.7,8.2,8.2,8.2c4.5,0,8.2-3.7,8.2-8.2
			c0-2.3-0.8-3.6-2-4.4c0.7,0.1,1.4,0.3,2.1,0.5c2.9,0.8,7,1,9,3.7C362.4,243.4,361.7,244.1,361,244.8z M349.3,243.6
			c-1.1,0-2.1-0.9-2.1-2.1s0.9-2.1,2.1-2.1c1.1,0,2.1,0.9,2.1,2.1S350.4,243.6,349.3,243.6z"/>
		<path d="M355.8,234.2c-3.2-0.8-6.4-1.3-9.8-1.2c-3.5,0.1-7.1,0.2-10,2.2c-3.1,2.1-6.1,4.3-9.2,6.3c5-3.3,10.8-6,16.8-6.9
			c3.5-0.5,7.5-0.4,10.9,0.6c3.5,1,7.1,2.5,10.8,2.3C364.7,234.8,358.1,234.7,355.8,234.2z"/>
		<path d="M279.7,350.3c-1.9-0.2-3.7-1-5.6-1.1c-2.2-0.1-6,1.6-6.6,3.8l1.1-0.8c-1.1,0.8-2.4,2.1-1.7,3.6c1.7-0.2,2.4-1.9,3.5-3
			c1.3-1.2,2.8-1.7,4.4-1.7c2.8,0,5.7,1,8.4,1.4c2.3,0.3,4.8,0.9,7.1,0.5c2.5-0.4,4.7-1.1,7.3-1.1c4.8,0,9.2,0.3,14-0.2
			c2.8-0.3,5.4-1.2,8.2-1.3c3.2-0.1,6.1-0.3,9.2-1c2.7-0.5,5.4-0.9,7.8-2.4c2.2-1.4,6.7-5.3,9.4-3.6c-0.6-3.5-6-0.2-7.5,0.6
			c-3,1.4-6.6,2.4-9.8,3c-2.7,0.5-4.7,0.8-7.5,0.8c-2.9,0-5.1,0.5-7.9,1.2c-2.9,0.7-5.6-0.1-8.5,0.1c-2.7,0.2-5.5,1.2-8.3,1.5
			c-2.7,0.3-5.3,0-8-0.2C285.8,350,282.8,350.6,279.7,350.3z"/>
		<path d="M309.4,364.4c-3.2,0-6.1,1.7-9.2,2.1c-1.8,0.3-7.1-1.5-3.7,1.7c2.8,2.7,6.2,2,9.5,0.8c2.5-0.9,5-0.6,7.5-1.2
			c2.2-0.5,7.7-1.2,8.2-4c-1.8,0.1-3.6,0.8-5.4,0.9C313.9,365,311.6,364.4,309.4,364.4z"/>
		<path d="M286.7,322.1c3,3,10.9,0.4,14.8,1.3c4.9,1.1,9.4,3.3,14.4,0.7c3.7-2,7.6-3.5,11.6-5c1.3-0.5,2.5-0.8,3.8-1.4
			c0-0.1,0-0.5,0-0.6c-2.6-0.8-5.6-0.2-7.9,1.3c-2.2,1.4-3.9,3.9-6.4,4.8c-1.2,0.5-2,0.1-3.2,0.2c-1.6,0.2-2.8,1.2-4.5,0.7
			c-1.2-0.3-4-1.8-5.4-3c-3-1.7-13.2-9.3-13.7-4.3c-0.3,3.2,5.2,1.7,4.9,3.9C294.5,323.9,287.9,320.7,286.7,322.1z"/>
		<path d="M302.9,320.1c0.1,0.3,0.4,0.6,0.8,0.9c0.3,0.1,0.5,0.2,0.6,0.3L302.9,320.1z"/>
		<path d="M329.5,412.8c5.1-2.2,11-4.8,15.4-8.1c5.1-3.9,10.1-7.5,15.3-11.3c1-0.7,2.3-1.8,3.6-3c-15.5,12.9-33.7,20.9-53.3,24.7
			C314.6,418.1,325.2,414.7,329.5,412.8z"/>
		<path d="M364.6,389.8c0.9-0.8,1.8-1.6,2.6-2.4c-1.2,1-2.3,2.1-3.4,3.1C364.1,390.2,364.4,390,364.6,389.8z"/>
		<path d="M228.6,381.2c6.1,4.6,12.1,9.3,18.4,13.8c7.8,5.6,20.9,13.9,30.8,13c-4.6-1.6-9.4-2.1-13.9-4.5c-4.6-2.4-8.6-5.5-13.1-8
			c-11-6.2-19.8-16.9-29.5-24.8h-1.2c-4.1-3.3-6.1-9.2-8.9-13.7c-4.9-8-5.6-19.5-12.1-26.4c1.2,3.6,1.8,8.1,2.7,12.6
			C208.3,358.1,215.1,371.1,228.6,381.2z"/>
		<path d="M201.3,342c0.2,0.4,0.4,0.8,0.5,1.2c0,0,0,0,0-0.1C201.6,342.8,201.4,342.4,201.3,342z"/>
		<path d="M314.5,472.6c-0.5-0.6-1.1-1.2-1.7-1.7c6.6,9,11.6,19.9,11.3,30.1C324.5,490.3,321.2,480.3,314.5,472.6z"/>
		<path d="M324.1,501.1c0,0.6-0.1,1.3-0.1,1.9C324,502.4,324,501.7,324.1,501.1z"/>
		<path d="M407.1,476.3c0.3,0.4,0.5,0.7,0.7,1.1C407.6,477.1,407.4,476.7,407.1,476.3z"/>
		<path d="M381.2,455.8c-29.8-9.8-42.6,41.7-41.5,62.4c3.7-15,9.9-44.4,22.9-54.3c10.6-8.1,36.7,2,44.4,12.4
			C402.3,469.7,388.5,458.2,381.2,455.8z"/>
		<path d="M388.1,347.6c1-6.3,2-12.5,3-18.9c0.1-0.7,0.2-1.5,0.4-2.3c1.1-5.9,2.4-11.9,3-17.9c0.3-2.8,0.8-6.3,0.1-9.1
			c-0.1-0.5-0.3-1-0.4-1.4c0-1.3,0.1-2.6,0.1-4c0.3-4.8,4.2-10.2,7.9-13c2.6-2,5.4-3,7.1-6c1.4-2.3,2.2-5.2,1.7-7.8
			c0.2,1.9-0.8,4.5-1.5,6c-0.7,1.5-2,2.9-3.4,3.9c-1.7,1.2-3.6,1-5.5,1.6c-1,0.3-2.3,1.5-3.2,2.1c-0.6,0.4-1.1,0.7-1.7,1.1
			c-0.4,0.3-0.7,0.6-0.9,1c1.4-6.6,4.4-13,6.5-19.1c0.5-1.4,1.2-4.8,2.2-5.7c1-0.9,3.5-0.3,5-1.8c2.9-2.6,2.9-7.6,5-10.5
			c2.5-3.5,6.2-5.7,8.1-10.2c2.6-6.1-0.4-10.5-2.3-16.2c-3.5-10.3,1.2-18.5,3.3-28.4c1.3-6.1,4.2-11.6,3.2-18
			c-1.6-10.4-8.2-21.1-12.8-30.5c3.2,4.3,6.8,9,10.2,13.4c-2.9-9.5-9.5-17.2-13.6-26.1c-3.9-8.5-10.3-14.6-18.7-19
			c-1.1-0.6-2.3-1.1-3.5-1.7c-3.8-6.3-10.4-11.7-14.2-18.2c-3-5-7-8.7-11.8-8.9c-0.5-0.2-1.1-0.4-1.8-0.5c-3-0.4-5.7,2.9-8.2,2.7
			c-2.2-0.2-2.5-2.1-4-3.1c-1.7-1.1-4.3-1.9-6.3-2.5c-5.4-1.5-11-1.2-16.6-1.2c-6.5-0.1-8.4-3.4-13.7-6.2
			c-6.2-3.3-13.9-1.5-20.5-0.5c-7.2,1.1-13.5,0.4-20.8,0.4c-9.7,0-21.5,2.7-30.6,5.9c-5.8,2-12.4,3.4-17.7,6.3
			c-4.2,2.2-8.1,5.5-12.1,7.9c-5.3,3.3-9.8,7.2-14.9,10.7c-3,2-5.7,3.6-7.9,6.5c-2.3,3-3.5,6.7-5.9,9.6c-2.9,3.3-7.2,4.6-10,7.9
			c-3.5,4.3-0.6,7.4-3.1,11.5c-2.7,4.3-7.3,7.5-10.4,11.8c-3,4.1-5.4,7.8-6.8,12.6c-2.1,6.7,1.1,13.2-1.5,19.4
			c-2.7,6.5-8.9,10.8-11.9,17.2c-4.2,9-4.9,18.5-1.5,27.8c-0.2-6.6-0.4-15,5.5-19.4c2,5.9,6.5,9.9,5.6,16.6
			c-0.9,7.2-3.9,13.6-1.3,21.1c-0.4-2.4,0-8.2,3.2-5.6c1.4,1.1,0.5,5.8,1.1,7.8c1.7,5,5.5,8.4,6.6,13.5c1.1,5.1,0.3,6.4,6.4,5.6
			c0.2,1.7,1,3,2.6,3.6c-0.4,3.5,1.8,4,4.1,5.3c2.8,1.6,3.2,0.7,5.3,4c3.3,5.2,6.7,5.2,12.2,6.8c0.7,6,5.8,11.4,7.8,16.9
			c-1.8-7.9-3.3-15.8-4.5-23.7c-0.8-5.1,0.1-10.1,0-15.2c-0.1-4.6-1.2-8.9-0.9-13.5c0.5-7.4,6-10.1,2.7-17.6
			c-2.2-5-3.5-9.5-0.4-14.6c2.2-3.6,5.8-5.4,7.1-9.4c0.9-2.8,2.7-9.8-1.3-10.5c0.8-3.1,4.5-7.6,0.5-9.9c0.9-2.4,3.3-4,4.9-5.8
			c-0.5-0.4-0.9-0.6-1.4-0.9c-3.2-2.1-4.2,3.8-3.6-1.9c0.2-2,2.5-5.6,3.6-7.1c0.8-1.1,1.6-1.9,2.6-2.7c-2.9,1.5-5.7,3.3-8.2,5
			c-9.1,6.4-16.9,16.3-16.3,28.1c-0.7-2.5-0.7-4.8-0.4-7.5c0.4-4.3,3.1-10.7,5.8-14c4.6-5.5,12.6-9.8,18.9-13.1
			c6-3.2,13.6-5.4,18.9-9.5c5.7-4.3,8.3-11.5,13.4-16.3c-1,9.7-10.1,16-18.8,20.6c-2.2,1.2-4.4,2.2-6.5,3.2c3.6-1.1,7.4-1.5,11-2.5
			c7.1-1.8,12.7-6.5,17.2-12.1c5.6-6.9,8.2-11.2,17.4-11.8c-0.6-4.5,15-1.7,17.9-1.3c4.2,0.6,7.4,1.2,7.4,1.7
			c0.4-2.5-3.7-4.1-2.2-5.7c0.7-0.7,7.6,1.1,8.5,1.2c3.2,0.4,7.3,0.7,10.4,1.5c2.2,0.5,3.3,2.2,5.9,1.9c0.4,4.6,5.4,2.9,8.1,1.4
			c3.5-1.9,3.1-3.2,6.8-2.8c1.3,0.1,1,1.5,2.7,1.3c2.3-0.2,2.3-1.7,3.8-3.1c2.2-2.1,4.3-3.8,6.4-5.5c1-0.1,2-0.2,2.9-0.4
			c0,0.2,0.1,0.5,0.1,0.7c2.8-2.9,6.4-5.7,9.8-7.9c0.4,2.8-2.7,5.5-4.4,7.5c5-2.2,6.8-7.6,12.5-7.8c3.1-0.1,4.9,2.2,7.1,4
			c3.2,2.5,3.2,3.5,4,7.4c0.7,3.7,3.7,6,7.4,6.2c-0.3,0.9-0.3,2-0.9,2.9c2.5,2.3,4.9,4.6,6.8,7.5c-2.1,0.1-4.4-0.5-6.4-0.9
			c2.2,4,7.4,6,8.8,11c-3.2,0.5-2.2,1.7-1.3,3.6c1.3,2.7,7.4,12,2.4,12.9c3.9,3.4,4.8,6.1,4.1,10.7c-0.6,3.6,1.7,9.2-2.9,9.9
			c3.2,5.6,9.4,2.6,11.4,10.5c1.9,7.5,0.6,16.1-0.5,23.3c-0.6,3.6,0.8,6.3,1.4,9.5c1,5,0.2,10,0,14.9c-0.4,10,0.2,20.1,0.4,30.2
			c0,0.4-0.1,0.9-0.2,1.3c-0.4,2.2-0.1,4.1-0.2,6.3c0,0.9,0,1.9,0,2.8c-0.5,4.9-2.2,9.7-3,14.6c-1.1,6.6,0.7,13.9-1.7,20.3
			c-3,7.9-6.4,15.1-8,23.7c-2.4,13.2-4.4,22.8-13.8,31.9c2.7-2.3,5.6-4.2,8-4.1c0.4,5.2,0.9,8.5-0.8,13.7c-2,6.3-2.9,12.1-4,18.6
			c-0.8,4.4-1.9,8.4-2.4,12.5c-0.5,4.4-2.6,8.1-5,11.7c-6.7,10.5-17.2,23.5-17.4,36.5c1.4-5.1,4.6-9.3,6.9-14
			c2.5-5,4.6-9.7,8.1-14.2c7.3-9.4,11.1-21.1,14.9-32.3c3.8-11.4,6.8-22.2,7.8-34.4c0.8-8.8,1.8-17.4,3.3-26.3
			c0.4-2.4,0.8-4.7,1.2-7.1c0.2,0.1,0.5,0.1,0.7,0.2c-0.1-0.3-0.2-0.5-0.2-0.8H388.1z M317.2,114.4c-2.1-1.7-4.3-3.4-6.6-4.6
			c-7.6-3.9-13.6-2.3-21.6-1.4c-7.1,0.9-12.4,2.2-18.9,5.7c-3.7,2-7,5-10.9,6.7c-4,1.7-8,2.9-12.1,4.6c-5.2,2.2-10.7,4.1-16.3,4.9
			c-4.9,0.6-9.5-0.6-14.2-1.6c9.3,1.1,19.2-0.4,28-3.4c12.2-4.2,21.6-13.6,33.4-18.6c11.2-4.7,25-4.3,35.6,2.3
			c2.7,1.7,4.8,3.7,6.7,6.2c1,1.3,2.1,2.4,2.2,4.1C320.4,118.3,319.1,115.9,317.2,114.4z M367.2,94.7c-1.6-2.8-1.6-6.8-3-9.7
			c3.2,1.3,5.8,3.6,7.6,7.3c1.8,3.7,4,8.8,7.1,12.7C374.2,102.4,369.9,99.4,367.2,94.7z M380,131c-2.1-1.6-3.3-3.6-4.4-6.2
			c-1-2.4-0.7-5.9-1.7-8c1.6,3.2,2.4,6.2,4.8,9c1.6,1.9,2.6,3.5,4.7,4.5c2.4,1.2,5.2,1.6,7.6,3c9,5.3,14.4,14.7,17,24.7
			c1.4,4.2,2.1,8.6,2,12.6c-0.2-4.1-0.9-8.4-2-12.6c-2.3-7.1-6.5-13.8-11.9-17.8C391.1,136.6,385,134.8,380,131z"/>
		<path d="M170.3,309.1c2.5,0.6,4.6,0.6,7,2.4c-0.5,1.5-1,3.2-1.3,4.7c0.6-0.4,2.4-0.7,3.1-1.3c0.3,0.4,0.8,1.4,1,1.8
			c0.3-0.2,1.4-0.7,1.8-0.8c0.8,2.1,2.5,7.2,4,8.1c0.9,2.3-0.2,5.2-0.1,7.8c3-1.4,6.4-3.2,6-7.3c0.6,2,0.9,4.2,1.4,6.2
			c1.3-1.8,1-3.8,1-6c0.4,0.4,1.2,0.7,1.7,1.3c-3.2-6.1-5.1-16.3-12.5-19.1c-3.4-1.3-6.1-0.7-9.3-2.9c-3.9-2.7-6.5-9.1-10.3-10.7
			l-0.5-1.9c-0.2-0.7,0.3-1-0.4-1.4c-0.4,2.9,0.7,6.2,1.2,8.8c-0.5-0.1-0.8-0.3-1.2-0.5c0,0.2,0.7,1,0.7,1.4c-0.6,0.2-1-0.1-1.4,0.5
			c1,0.7,2,2.2,2.8,2.8c-1.1-0.3-3-0.4-4-0.8C163.8,306.5,165.5,308,170.3,309.1z"/>
		<path d="M411.1,267.2c0-0.4-0.1-0.7-0.2-1C411,266.6,411.1,266.9,411.1,267.2z"/>
		<path d="M204.4,354.1v0.2C204.4,354.3,204.4,354.2,204.4,354.1C204.4,354.2,204.4,354.2,204.4,354.1z"/>
	</g>
	<path d="M405.2,458.3c4.3,19.3,6.8,37.9,10.2,57.3c9.1,50.4,13.4,101.5,22.2,152.1h160.5c1.7-12.8,6.2-57.3,7.1-63.5
		c1.4-9.1,0.8-17.9-0.7-26.5c-2.8-15.5-8.4-30.6-9.7-46.7c-1.7-20.8-0.4-41.3-5.6-61.9c-4.7-18.6-10.3-37-14.6-55.7
		c-4.5-19.6-1.7-26.6-19.6-34.2c-15.4-6.6-31.6-14.2-48.6-15.8c-21.5-2.1-42.5-5.1-63.6-7.3c-10.3-1.1-19.6-2.2-30.2-2.4
		c-9.4-0.2-15.9-3.3-24.1-5.3c5.3,18.8,12.1,38.2,13.2,57.4C402.8,423.8,401.3,441,405.2,458.3z"/>
	<path d="M21.4,540.6c1.8,16.6-0.3,34.7,1.9,51.5c2.8,21.2,11.8,40.4,18,60c1.4,4.3,2.2,10,2.6,15.6h269.2
		c-6.7-21.2-14.3-41.1-26.3-60.9c-8.4-13.9-12.8-30-18.1-45.5c-1.6-4.7-18.6-43.9-16.9-45.7c13-13.5,22.1-54.2,42.6-55.7
		c3.9,5.2,12.2,6,18.2,11.2c-3.7-4.9-7.8-9.3-11.9-12.6l-1.2-1.2c-11.6-15.9-28.6,6.1-36.3,17c-8.9,12.7-9,25.6-11.9,40.2
		c-3.8-8.9-8-17.8-12.9-26.4c-1.1-2-2.2-3.9-3.3-5.9c-10.5-18.9-15.7-39.1-20.3-59.8c-1-4.5-1.9-8.9-3.4-13.3
		c-2.4-6.8-4.9-13.5-6.8-20.4c-2.1-7.3-2-13.4-1-20.9c0.2-1.4,0.5-2.9,0.8-4.4c0.3,0.7,0.6,1.5,1,2.2c-0.3-1-0.6-2-0.8-3
		c0.2-1.2,0.5-2.3,0.7-3.5c0.8,5.8,0.3,10.5,3.6,16.6c2.5,4.8,5.8,8.6,8.9,13.1c10.1,14.7,20.6,24.4,34.7,35.4
		c-10.1-9.2-21.3-17.5-29.2-29.2c-7.6-11.3-13.8-24.6-17.7-37.9c0.1-0.4,0.1-0.8,0.1-1.2c0.6,1,1.3,1.9,2,2.7
		c-0.7-1.4-1.4-2.9-1.9-4.4c0-0.6,0-1.1,0-1.7c0,0.2-0.1,0.5-0.3,0.9c-1.3-3.4-2.4-6.9-3.8-10.3c0.6,3.5,1.4,6.9,2.7,9.9
		c0,0.3-0.1,0.7-0.1,1c0.1,0.3,0.2,0.6,0.2,0.9c-0.1,0.1-0.2,0.2-0.2,0.4v-1.1c0,0.4,0,0.8-0.1,1.2c-1.9,2.7-4.9,6.2-5.7,7.3
		c-2.3,3.7-4.2,7.9-7.5,10.7c-6.4,5.6-15.6,7.7-22.9,11.9c-19.4,11.1-34.7,27.1-53.5,38.8c-20.4,12.7-37.7,30-59,41.4
		c-15.7,8.4-33.2,9.3-37.2,29.2c-1.8,8.7-0.8,18.4,0.5,27.9C19.8,529,20.8,535,21.4,540.6z M205,354.5c0,0,0,0.1-0.1,0.1
		c-0.1-0.2-0.1-0.4-0.2-0.6C204.9,354.1,204.9,354.3,205,354.5z"/>
</g>
</svg>
