<?xml version="1.0" encoding="utf-8"?>
<!-- Generator: Adobe Illustrator 18.1.1, SVG Export Plug-In . SVG Version: 6.00 Build 0)  -->
<svg version="1.1" id="Layer_2" xmlns="http://www.w3.org/2000/svg" xmlns:xlink="http://www.w3.org/1999/xlink" x="0px" y="0px"
	 viewBox="0 0 623.6 737" enable-background="new 0 0 623.6 737" xml:space="preserve">
<g>
	<path d="M292.8,236.8c-1.9,1.9-5.1,3.6-7.7,2.1c1.6-1.3,3.2-2.3,4.5-4c-1.6,0.2-4.6,3-6.2,1.4c-1.6-1.6,1.7-3.5,2.9-4.7
		c-3.4-0.4-9.1-0.3-5-4.9c-2.7,1-5.1,2.1-8.3,1.9c0.2-1.6,1.3-3,1.3-4.7c-1.8,1.6-4.5,4.1-7.1,3.7c0.4-1.6,1.6-2.7,1.5-4.4
		c-1.3,1.6-3.8,4.2-6.1,3.7c0.4-1,1.1-2.1,1.2-3.2c-2.7,2.2-5.3,4.2-8.9,5.4c0.9-0.9,0.9-1.6,0.8-2.8c-2.9,2.2-4.9,4.9-8.4,6.2
		c-4,1.6-6.7,3.7-10,6.8c-1.4,1.3-3.1,2.6-4.1,4.3c-0.9,1.7-1.3,2.4,0.4,3.2c1.2,0.6,3.2,0.9,4.1,0c-1.6-1.4-4.8-2.1-0.6-4.5
		l-1.6,0.6c5.7-6.6,16.6-12.4,25.5-13.1c-2.8,1.7-4.7,4.8-4.7,8.4c0,5.4,4.4,9.7,9.7,9.7c5.4,0,9.8-4.4,9.8-9.7
		c0-3.9-2.3-7.3-5.6-8.8c2.1,0.1,4.2,0.4,5.7,1.4c3,2,6.5,6.6,8.9,9.3c1.8,2.1,0.9,2-1,3.8c-0.3,0.3-0.5,0.5-0.8,0.8
		c1.5-1,3.1-2,4.8-2.5c1.4-0.4,2.9-0.4,4.1-1.1c-1.2,0.1-2.7,0.4-3.8-0.1C289.3,239.5,291.9,239,292.8,236.8z M272.9,233.9
		c0,1.4-1.2,2.6-2.6,2.6c-1.4,0-2.6-1.2-2.6-2.6c0-1.4,1.2-2.6,2.6-2.6C271.8,231.3,272.9,232.4,272.9,233.9z"/>
	<path d="M221.3,208.3c3.3,5.2,10.8,3.5,15.4,2.3c8.8-2.4,17.8-4.7,26.9-5.8c8.2-1.1,19.9-1.8,27.6,2c3.5,1.7,7.4,3.8,10.5,6
		c-5.7-5.1-12.1-9.6-19.3-11.8c-4.9-1.5-10.2-0.5-15.2,0.5c-0.4,0.1-0.8,0.2-1.3,0.2c-5.9,1.1-12.4,2.5-18.3,2.6
		c-6,0.1-11.5,2-17.5,2.3c-0.1,1-1.5,0.5-2.5,0.6c0.3,0.1,0.7,0.5,1.2,0.6C226.3,208.8,224,208.2,221.3,208.3z"/>
	<path d="M122.8,247.4c-0.1,0.3-0.1,0.6-0.3,0.9c2.8,0.5,5.5-0.9,8.2-1c0.2-3.9,5.8-8.9,8.9-10.9c3.5-2.4,6.5-3.1,10.2-3.1
		c-3.2,1.5-5.4,4.8-5.4,8.5c0,5.2,4.2,9.5,9.5,9.5c5.2,0,9.5-4.2,9.5-9.5c0-2.3-0.8-4.4-2.2-6c1.9,1.1,3.7,2.4,5.5,3.8
		c2.3,1.8,8,4.1,8.1,7.6c0.1,3.4-4.9,3.3-7.3,4.4c2.9,0.5,6.5-1.2,8.9-2.5c3.8-2.1,1-2.9-1.9-5.1c-2.6-2-4.3-4.1-6.6-6.5
		c-2.6-2.8-10-6-13.8-6.1c-1.5,0-3.3,0.4-4.9,0.6c-2.3,0.3-8.4-0.9-8.8,1.2c-1.8,0.1-4,0.2-5.8,0.8c1.9,2.2-1.2,2.4-2.8,1.6
		c0.1,0.2,0.3,1.3,0.5,1.5c-1.3-0.2-1.9,0.1-2.5,1c0.4,0.1,1.1,0.6,1.4,0.6c-1.7,0.6-3.6,1.3-5,2.3c1,0.9,2.5,1,3.9,1
		c-2,1.6-4.7,1.2-7.2,1.2c0.6,0.2,6.8,1.6,7.1,2.7C130.6,248,123.7,248,122.8,247.4z M158.2,239.9c-1.4,0-2.5-1.1-2.5-2.5
		c0-1.4,1.1-2.5,2.5-2.5c1.4,0,2.5,1.1,2.5,2.5C160.7,238.8,159.6,239.9,158.2,239.9z"/>
	<path d="M266.1,349.6c-0.6,0.6-1,1-1,1S266,350.2,266.1,349.6z"/>
	<path d="M206,352c-3.7,1.3-7,1.5-10.7,0.6c-1.5-0.4-2.5-0.9-4-1c-2.8-0.2-5.9,0.4-8.7-0.2c-2.6-0.6-4.9-1.5-7.6-1.6
		c-2.9-0.1-7.6-1.1-10.3,0.2c0.1,0,0.2,0,0.4,0.1c-0.1,0.2,0.2,0.5,1,1.2c2.6,2.2,6.9,4.5,9.8,10.3c2.9,5.7,8.9,12,16,13.2
		c7.2,1.2,20.3-0.7,25.8,0.2c5.5,1,18.2,0.2,22.7-4.1c2.1-2,7.8-7.2,13.1-12c-6.4,4.2-17.5,11.6-23.4,13.2c-6.2,1.7-18.4,0.5-26.3,1
		c-7.9,0.5-17.5-2.4-21.3-4.5c-3.8-2.1-6.7-13.7-11.4-16.2c0.1,0,0.1,0,0.2,0c3.5,0.5,6.9,1.2,10.4,1.6c3,0.3,5.1,1.3,7.9,2.5
		c2.8,1.1,5.5,2.5,8.3,3.2c4.4,1.2,11.7-1.7,16-2.9c7.2-1.9,14.4-3.9,21.6-5.8c8.6-2.3,18.8-5.2,27.7-3.1c2.4,0.6,3,1.3,2.9,1.9
		c1.1-1.2,2.7-3.2,2.5-4.1c-0.3-1.3-9.7-1.1-15.3,0c-7.1,1.4-14.4,2.1-21.6,2.6c-5.5,0.4-11-0.1-16.5,0.4
		C211.6,348.9,209.3,350.8,206,352z"/>
	<path d="M265,348.4c0,0-5.6,5.1-11.6,10.5c0.4-0.2,0.7-0.5,1-0.7C260.7,354.1,264.6,350.1,265,348.4z"/>
	<path d="M200.9,391.9c-3.7,0-7.3,0.2-10.7-1.2c1.9,2.6,7.1,3.1,10.1,3.6c5.4,1,14.3,1.8,19.8,0.7c3.7-0.8,11.9-4,11.9-4
		s-7.3,1.5-15.4,1.5C211.3,392.5,206.1,391.9,200.9,391.9z"/>
	<path d="M337.8,360.9c3.6-6.2,6.5-12.5,8-18.6C343.3,349,340.6,355.2,337.8,360.9z"/>
	<path d="M203.7,493.9c0,4.3,1.3,8.5,1.3,12.7c0.1,4.1,0.2,8.2-0.7,12.3c-1.2,5.3-4.1,10-5.7,15c2.8-1.8,4.8-4.9,6.2-8.3
		c1.9-3.3,3.5-6.9,4-11.4c0.6-5.2,0.1-10.5-0.8-15.9c-0.1-1-0.2-2-0.3-3.1c-1.1-9.4-3.5-18.5-5.7-27.7c-1.6-9.5-3.8-19.3-8.2-26.8
		c1.7,0.8,3.4,1.5,5.2,2.1c9.2,2.8,19.3,3,28.9,2.6c28.3-1.1,70.7-32.1,70.7-32.1s21.2-15.5,39.3-52.6c-12.8,22.1-35.5,43.3-45.3,51
		c-12.5,9.8-38.1,21.7-48.4,26.6c-10.3,4.9-26.6,4.9-44.6,1.1c-3.9-0.8-7.2-2.4-10.2-4.5c-0.1-0.1-0.1-0.1-0.1-0.2c0,0,0,0,0,0.1
		c-5.8-4.2-10.1-10.4-13.5-16.9c-1.7-3.2-3.8-6.2-6-9c-2.3-3.3-4.6-6.4-6.6-9c0.3,0.7,0.5,1.4,0.8,2.1c-3.9-4.5-7.7-9-10.6-14.2
		c-3.4-6.1-6.6-12.8-9.7-19.1c-1.9-4-3.8-7.9-6-11.7c-2.4-4-6.5-8.7-7.4-13.2c2.3,4.5,5.7,8.3,8.5,12.4c3.7,5.4,9.6,11.7,11.8,17.8
		c-2.1-7-8-14.2-11.8-20.5c-5.2-8.7-10.2-17.3-16.4-25.4c-10.8-14.1-11.8-53.9-12-51.7c-2.2,28.8,9.8,52.7,13.6,59.8
		c3.8,7.1,15.2,33.2,21.7,44c4.5,7.5,13.8,18.2,19.9,26.1c1.8,4.4,3.5,8.6,3.9,14.2c1.7,21.6-13.9,43.9-34.7,49.5
		c17.9-2.2,38.7-16.4,43.4-34.5c0.7-2.8,0.6-5.7,0-8.7c3.1,4.4,6.8,8.4,11.2,11.4c0.2,5.4-0.8,10.6-2.8,15.7
		c-2.2,5.7-5.7,12.4-9.3,19.5c-4.7,9.3-9.6,19.3-12.2,28.6c0.3-0.1,0.5-0.2,0.8-0.3c6.8-2.7,13.5-5.3,20.3-8
		c5.5-2.1,12.4-3.5,17.5-5.9C203.8,489.9,203.7,491.8,203.7,493.9z"/>
	<path d="M177.7,224.2l1.9,1.9C179,225.1,178.8,224.5,177.7,224.2z"/>
	<path d="M177.6,224.1C177.6,224.2,177.6,224.2,177.6,224.1C177.7,224.2,177.7,224.2,177.6,224.1L177.6,224.1z"/>
	<path d="M184.7,242c0.8,8-0.8,16.6-0.8,23.8c0-5.9,3.4-12.2,4-18.3c0.9-8.6-5.1-16.9-10.2-23.3c-0.1,0-0.1,0-0.2-0.1
		C179.4,230.5,184,235.1,184.7,242z"/>
	<path d="M215.1,324.6c-6.1,1.1-14.3,10-26.5,10.4c-12.2,0.5-15.4-11.6-15.4-11.6c1.8,10,9.1,12,15.4,12.7c6.3,0.7,17.7-6.1,19.7-7
		C210.4,328.3,221.3,323.5,215.1,324.6z"/>
	<path d="M496.3,480.2c-14.3-2.6-7.8-1.2-13.1-15.4c-2-5.5-4.6-7.6-7.5-9.3c-2.9-1.7-6-2.9-9-6.7c-12.7-16.1-8.7-40.9-12.5-59.9
		c-3.4-16.9-16.1-32.3-16.3-49.6c-0.3-23.1,0.3-46-4-68.2c-6-31.5-17.1-61.7-27.3-92.5c-12.8-38.5-12.5-95.3-42.9-124.5
		c-12-11.5-23.3-10.3-37.7-15.7c-13.5-5-24.1-15.6-38.8-17.9c-11.7-1.8-23.7,2.3-34.5,3c-51.6,3-106.5,22.4-131.2,71
		c-6.7,13.1-9.4,25.9-10.9,38.9c-0.1,0.2-0.2,0.3-0.3,0.5c-3.8,6.8-7.1,13.8-10.6,20.8c-2.8,5.6-5.1,11.6-6.1,17.8
		c-0.9,6-0.3,12.1,2,17.7c1.3,3.2,3.1,6.1,5.3,8.8c1.3,1.6,2.7,3.1,4.1,4.6c0,0,0,0,0,0c0,0.4,0,0.8,0,1.2
		c-5.2,5.8-9.9,13.5-18.6,12.6c3.1,0.9,4.7,1.7,8.1,1.1c4.3-0.7,7.8-2,11.7-4c1.7-0.9,3.5-1.6,5.3-2.3c1.2-0.3,2.4-0.6,3.5-0.8
		c-0.1,5.2-0.8,24.9-10.7,29.4c12.2-2.9,13.5-24.1,13.6-29.7c4.1-0.2,8.5,0.3,12.3-1.4c4.6-2,8.9-5.8,13.4-8.3
		c4.2-2.3,8.6-4.4,13-6.2c0.7-0.3,4.5-1.1,4.8-1.8c-4.8,9.1-12.1,12-18.6,17.3c-1.5,0-3.1,0-4.6,0.2c-9.2,1.2-16.3,8.1-20.5,16.2
		c4.1-4.5,7.8-10.8,14-12.6c2.5-0.7,5.1-0.8,7.7-0.6c-0.9,0.9-1.8,2-2.7,3.1c2-0.4,4.3-1.4,6.7-2.6c2.9,0.5,5.9,1.1,8.7,1.4
		c2.6,0.3,5.2-0.2,7.8,0.1c0.5,0.1,1,0.1,1.4,0.3c-1,0.7-1.9,1.5-3,2.2c1.3-0.5,2.8-1.1,4.3-1.8c1.2,0.5,2.2,1.2,3.6,1.7
		c0.7,0.3,6.6,1.8,6.5,0.6c-0.1-0.3-0.2-0.5-0.3-0.9c1.4-1.5,3.8-0.3,4.1-2.6c-2.4-0.8-4.6-1.1-6.8-1.9c0.1-0.1,0.2-0.3,0.4-0.5
		c-0.2,0.2-0.3,0.4-0.4,0.5c-0.2-0.1-0.3-0.1-0.5-0.2c21.9-11.5,51-33.3,38.6-24.2c-12.4,9.2-21.1,20.6-23.5,23.9
		c2-2.5,10.2-10.4,40.6-27.7c38.1-21.6,53.4-48.3,53.4-48.3s12.7,67.3,44.5,88.9c31.8,21.6,25.4,47.6,25.4,47.6s7.6-25.4-12.1-45.7
		c8.9,6.8,14.5,10.2,18,11.8c3,8.3,6.5,14.7,11.3,15.5c5.5,1,10.1,0.6,13.4,0.1c1.6-0.6,3.6-1.1,5-1.5c6.5-1.6,9.9,3.4,12.5,8.5
		c8,15.4,0.9,27.9-2.4,43.3c-2.4,11.5-3.2,24.4-0.4,35.8c-8.5-24.5,6.5-48.6,2.5-72.8c-0.9-5.2-3.7-11-8.8-13.2
		c-1.1-0.5-2.3-0.7-3.5-0.7c-0.3,13.5-1.2,27.3-3.7,40.6c-1.1,5.8-2,14-6.2,18.5c-5.1,5.5-11.2,9.9-15.1,5.2
		c3.7,4.5-6.4,49.3-6.5,57.8c-0.2,14.8,2.7,30.7,8.4,45.9c-2.6,8.4-5,16.8-6.3,25.5c-3.7,2.4-7.4,4.7-11.2,6.9
		c-9.4,5.5-19.6,15.2-30.1,22.3c13.1-6.1,29.6-13.9,40.4-20c-0.2,4.2-0.1,8.3,0.2,12.5c1,14.2,9,38.2,26.3,38.4
		c12.1,0.1,21.6-13.8,27-25.4c6.4,4,13.3,7.2,20.7,9.4c20.3,5.9,42,7.1,63.1,8.4c15.6,1,32.3-4.6,45.8,5.7
		C525.3,494,513.3,483.3,496.3,480.2z M100.9,170.3c-0.3-10.9,3.4-22.1,9.3-31.3c-1.2,12.8-1.6,25.8-3.9,39.8
		c-0.7,4.4-1,8.8-1.2,13.2C103,184.9,101,177.8,100.9,170.3z M160,182.9c-3.9,2.3-8,3.7-12,5.7c0,0,11-5.5,17.8-17.2
		c6.9-11.7,14.4-11.7,14.4-11.7c-2,3-4,5.2-6.9,7.4c-2.9,2.2-5.1,5-6.9,8.1C164.8,178,162.8,181.3,160,182.9z M193.5,186.9
		c0,0-2.6,6.2-26.6,24.8c-4-2.1-6.7-1.2-11-0.8c-0.9,0.1-1.8,0.1-2.7,0.1c-1.4,0-2.8-0.1-4.2-0.2c14-9.6,30.6-28.4,36.8-42.4
		c8.3-18.4,25.4-23.5,25.4-23.5S203.6,175.4,193.5,186.9z M196.1,122.8c0,0,4.7-61,95.4-56.3C206.1,65.2,196.1,122.8,196.1,122.8z
		 M286.8,56.2c-18.1-5.9-28.3-8.7-36.7-3c10.9-9.2,36.4,1.5,36.4,1.5s15.4,6.6,29.9-0.6C316.4,54,304.9,62,286.8,56.2z M338.9,197
		c5.7,6.4,9.3,23,13.6,36.8C345.6,226.7,336.5,213.9,338.9,197z M401.9,488.5c-3.8,5-8.4,10.4-14.4,12.7
		c-19.3,7.4-25-19.8-21.5-32.7c2-7.3,6-14.5,6.9-22c8.8,14.2,20.1,26.6,33.6,35.3C405,484.1,403.5,486.4,401.9,488.5z M436.3,416
		c0.5-18-11.6-34.7-24.3-46.2c-6.7-6-9.7-13.8-10.1-22.8c-0.4-8.4,1.8-14.9,5.4-21.5v-2.1c0.2,0.4,0.3,1,0.2,1.7
		c0.2-0.4,0.5-0.8,0.7-1.2c0.3-0.7,0.6-1.3,1.1-1.9c-0.4,0.6-0.7,1.3-1.1,1.9c-0.5,1.1-0.7,2.3-0.9,3.5v-0.9c-0.5,2.4-1.8,5.3-2.1,7
		c-1.1,6.5-0.5,12.9,1.3,19.2c3.3,11.9,12,19.1,18.8,28.8C431.7,390.5,438.7,404.4,436.3,416z"/>
	<path d="M245.9,502.2c-2.3,1.4-4.1,4.2-5.7,7.8c0-1.2-0.1-2.3-0.2-3.5c-0.1-1.3-0.1-3.2-0.6-4.3c0,0.1-0.9-2.5-1.3-1.6
		c-0.5,1.6-0.3,3.6-0.7,5.3c-0.7,2.6-2.2,5-3.6,7.4c-2,3.5-13.6,18.8-10.1,21.4c3.1,2.4,7.9-0.7,9.6-3c0.6-0.8,1.2-1.7,1.8-2.6
		c-1.4,7.2-2.3,14.1-3.4,18.6c-8.5,36.3-11.5,75.1-21.3,110.9l-8.6,14.4c-0.9,14.9-6.4,28.9-7.2,44c11.8-29.8,23.9-57.9,30.6-89.9
		c3.7-17.7,2.6-21,14.8-32.7c8.5-8.2,18-12.1,28.1-16.5c0.1,0,6.6,41.1,20.8,36.9C284.1,605.7,242.8,504.1,245.9,502.2z"/>
	<path d="M313.4,477.1c-8.5,4-15.6,7.2-18.9,8.7C300.9,484.6,307.2,481.3,313.4,477.1z"/>
	<path d="M156.8,578.8c-4-24.7-9.2-50.5-18.7-73.8c-2.9,11.7-1.9,23.5-2.4,35.8c-0.5,10.7-1.8,21.5-3.9,32.2
		c-2.1,11.1-4.9,22-8.2,32.7c10.2-4.6,22.3-6.9,33.3-5.2c0.7,13.4,4.8,26.1,8.2,39c2.4,9.2,5.6,18.2,8,27.3
		c1.1-15.2-7.8-36-10.3-51.8C160.8,602.9,158.8,591.1,156.8,578.8z"/>
</g>
</svg>
