<?xml version="1.0" encoding="utf-8"?>
<!-- Generator: Adobe Illustrator 18.1.1, SVG Export Plug-In . SVG Version: 6.00 Build 0)  -->
<svg version="1.1" id="Layer_2" xmlns="http://www.w3.org/2000/svg" xmlns:xlink="http://www.w3.org/1999/xlink" x="0px" y="0px"
	 viewBox="0 0 623.6 737" enable-background="new 0 0 623.6 737" xml:space="preserve">
<g>
	<path fill="#231F20" d="M239.7,176.4l0.5-0.9C240,175.9,239.8,176.2,239.7,176.4z"/>
	<path fill="#231F20" d="M242.2,165.8c-0.8,0.5-1.6,1.1-2.4,1.8C240.6,167.2,241.4,166.5,242.2,165.8z"/>
	<path fill="#231F20" d="M252.4,164.6c-1.4,0.1-2.2,0.7-3.4,1.3c-1,0.6-2.1,1.1-3.1,1.6c-1.5,0.8-1.7,1.7-2.8,2.8
		c-0.8,0.9-1.6,1.4-2.4,2.5c-0.7,1-1.1,2.2-1.8,3.1c-0.4,0.4-0.8,0.7-1.1,1.1c-0.3,0.4-0.4,1.1-0.8,1.4c-0.6,0.5-1.7,0.5-1.8,1.5
		c1,0.5,1.7-0.8,2.6-0.9c0.4,0,1.1,0.3,1.5,0.4c1.2,0.2,2.6,0,3.8,0c-0.9-0.5-2.1-0.6-2.9-1.3c-0.8-0.6-0.7-1-0.4-1.8l0,0
		c0.5-2,3.9-5.1,5.6-6.8c1.3-1.3,2.4-1.8,4.2-2.5c2.3-0.8,4.6-1.3,6.9-1.3c-2.9,1.2-5,4.1-5,7.5c0,2.4,1.1,4.6,2.8,6.1
		c1.1-0.1,2.3-0.3,3.4-0.5c0.6-0.1,1.3-0.2,1.9-0.4c2.5-0.6,4.8-1.2,6.5-1.7c1.2-0.2,2.3-0.4,3.5-1c1.5-0.8,2.5-1.5,4.1-0.2
		c1,0.8,1.5,2.2,2.9,2.4c0.1-1.6-2.7-2.4-2.5-3.8c0.2-1,2.3-0.8,3.1-1.1c1-0.3,2-1.1,2.8-1.6c-1.5,0.2-5.6,2.3-6.6,0
		c1.4-0.9,4-1.7,4.4-3.5c-1.1,0.2-2.2,0.9-3.4,1.1c-1.2,0.2-2.4,0.2-3.6,0.1c0.6-0.8,1.5-1.3,1.9-2.2c-0.7,0-1.6,0.8-2.1,0.1
		c-1.2,0.1-2.7,0.5-3.6-0.4c0.3-1,0.7-1.9,0.8-2.9c-0.7,0.4-1.9,1.3-2.7,1c0-0.1,0-0.2,0.1-0.4c-2.2,0.9-3.8,0.1-5.9-0.4
		c-2.2-0.6-4.7-1.3-6.9-1.5c-1.7-0.1-4.6-0.1-6.3,0.4c-1.6,0.5-2.7,1.7-4,2.8c2-1.2,4-1.9,6.6-2.4c2.3-0.4,4.7,0.3,6.8,1
		C254.9,165.1,253.3,164.5,252.4,164.6z M261.7,169.8c0-1.2,1-2.1,2.1-2.1c1.2,0,2.1,1,2.1,2.1s-1,2.1-2.1,2.1
		C262.7,172,261.7,171,261.7,169.8z M267.2,169c1.1,0.6,2.2,0.9,3.1,1.9c0.3,0.4,2.2,2.4,2.2,2.6c0,0,0,0-0.1,0
		c-0.8,0.3-1.7,1-2.5,1.5c-0.9,0.5-1.7,0.9-2.6,1.3c0.3-0.9,0.5-2,0.5-2.8c0-1.8-0.6-3.5-1.6-4.9C266.5,168.7,266.9,168.8,267.2,169
		z"/>
	<path fill="#231F20" d="M268.3,189.9c-3.5,3.4-7.7,4.2-12.4,4.7c-2.5,0.2-4.9,0.2-7.3-0.2c-2.8-0.5-5.3-1.7-7.9-2.7
		c3.2,1.2,5.6,4,9.2,4.6c3.5,0.5,6.7,0,10.1-0.9c1.8-0.5,3.8-1.3,5.4-2.3C266.2,192.5,268.6,190.6,268.3,189.9z"/>
	<polygon fill="#231F20" points="168.8,184 168.8,184 168.8,184 	"/>
	<path fill="#231F20" d="M192.2,176.9c-0.3-2.1-5.2-4.1-6.9-4.3c-1.3-0.1-3.6,0.3-3.7-1.7c-0.7-0.3-0.9,0.1-1.5,0.3
		c-0.9,0.3-1.4,0.2-2.4,0.3c-1,0.2-1.7,0.4-2.9,0.5c0,0.6-0.5,0.8-1.1,0.6c-0.7,1.1-3.1,1-4.2,1.1c0.1,1.3-1,0.4-1.4,0.1
		c0.2,0.4,0.1,0.7,0.2,1.1c-0.3-0.2-0.8-0.4-1.2-0.4c-0.3,0.8,0.3,1.4,1.1,1.7c-1.8-0.1-3.1,1.3-4.8,1.5c0.6,0,1.1,0.3,1.6,0.6
		c-1.5-0.5-2.9,1.1-4.4,0.7c0.7,0.5,0.9,0.9,1.8,1.1c0.6,0.1,1.2-0.2,1.9,0c-0.6,0.4-3,1.4-2.7,2c0.5,1.2,3.3-0.2,4.1-0.5
		c-0.6,0.3-2.2,1.8-2.4,2.4c0.8,0.3,1.8,0,2.5-0.4c0.2,0.4,0.5,0.5,0.8,0.3c1.4,0.4-0.7,3.6-0.9,4.6c1.3-0.4,1.5-3,2.4-3.9
		c0.3-0.3,0.6-0.5,0.8-0.5l-1.9-0.4c0.2-0.1,0.3-0.2,0.5-0.2c-0.3,0-0.5,0-0.7,0.2l-0.1,0c0.6-0.2,0.9-0.4,1.8,0.2
		c0.1,0.1,0.2,0.2,0.4,0.3c0.4,0,0.8,0.2,1.6,0.4l-1.6-0.4c1.4,1,2.1,1.3,4.1,1.3c-2-0.8-5.2-1.8-4-4.5c1-2.2,2.7-4.7,4.6-6.2
		c1.8-1.5,5.2-1.5,7.5-1.3c0.7,0,1.3,0.1,1.9,0.2c-3.6,0.7-6.3,3.9-6.3,7.8c0,1.5,0.4,2.9,1.1,4c1.9-0.1,4.4-0.2,5.6-0.2
		c0.7,0.1,1.4,0,2.1,0c-0.2,0-0.4,0-0.5,0c0.4,0,0.8,0,1.2,0c-0.2,0-0.4,0-0.7,0c2.1,0.1,4.2,0.5,6.3,0.6c1.2,0,5.3,0.3,5.5-1.6
		c0.2-1.5-2.3-3-3.2-3.9c-0.8-0.8-1.8-1.1-2.6-1.9c-0.7-0.7-2.2-1.9-2.5-2.7C190.2,175.4,191,176.3,192.2,176.9z M185,179
		c0-1.1,0.9-2.1,2.1-2.1c1.1,0,2.1,0.9,2.1,2.1c0,1.1-0.9,2.1-2.1,2.1C185.9,181.1,185,180.1,185,179z M194.9,182.7
		c0.1,0.1,0.1,0.2,0.2,0.2c-0.8,0.2-0.5,0.9-0.5,1.6c-1,0.3-1.9,0.4-2.8,0.5c-0.9,0.1-1.8,0.1-2.9,0c1,0,1.9,0,2.4,0
		c0.6-1.1,1-2.5,1-3.9c0-0.2,0-0.3,0-0.5c0.4,0.2,0.8,0.3,1.2,0.6C194.2,181.7,194.5,182.3,194.9,182.7z"/>
	<path fill="#231F20" d="M192.2,191.7c-3.1,1-5.5,2.7-8.3,4.1c-1.8,0.9-3.6,1.9-5.5,2.6c-1.8,0.6-3.6,1.2-5.5,1.3
		c-1.4,0.1-2.4-0.5-3.6-0.6c4,4.4,10.2,1,14.2-1.3C186.6,196.1,189.1,193.5,192.2,191.7z"/>
	<path fill="#231F20" d="M159.8,173.4c0.7-2.5-0.4-5.3,1.4-7.2c1.2-1.3,2.4-2.4,4-3c0.7-0.2,1.5-0.7,2.2-0.9
		c0.7-0.1,1.4,0.2,2.1,0.1c2.1-0.2,4-0.8,6.1-0.7c1.7,0.1,3.4,0.1,4.9-0.9c0.8-0.5,1.6-1,2.4-1.4c-0.1-0.1-0.2-0.4-0.3-0.5
		c0.8-0.6,1.5-0.7,0.5-1.4c-1.2-0.8-2.8-0.2-4-0.2c-1.8,0.1-3.3,0.1-5.1,0.8c-1.8,0.6-3.3-0.2-4.9,0.1c-1.6,0.4-3.6,1.9-4.7,2.9
		c-1.2,1.1-2.5,1.9-3.4,3.2c-0.7,0.9-2.3,3.5-1.9,4.6C158.3,169.7,159,172.8,159.8,173.4z"/>
	<path fill="#231F20" d="M214.2,240.7c-4,1.2-7.3,3.6-11.5,4.2c-3,0.5-6.3,0.8-9.2,0.1c-4.5-1.1-6.9-3.8-9.3-7.6
		c-0.9-1.5-1.6-3.3-1.6-5.1c0,1.2-0.2,2.2,0.2,3.4c1,2.8,3.4,5.7,5.7,7.7c0.8,0.7,1.7,1.2,2.7,1.7c1.7,0.7,3.3,1.9,5.1,2.1
		c0.7,0.1,1.3,0.2,2,0.4c1.1,0.3,2.3,0.5,3.4,0.6c2.5,0.1,4.8-1.1,7-2.2c1.9-1,3.3-2.5,5.1-3.5c2.6-1.3,5.4-2.3,8.2-3.2
		c1.5-0.5,2.6-1.3,4.1-2c-2.2,0.1-3.9,1.1-5.9,1.8C218.3,239.8,216.1,240.1,214.2,240.7z"/>
	<path fill="#231F20" d="M182.6,231.8c0,0.2,0,0.4,0,0.5C182.6,232.1,182.6,232,182.6,231.8z"/>
	<path fill="#231F20" d="M195.6,195.2c-0.4,1.2-0.7,2.4-0.9,3.7C195,197.7,195.3,196.5,195.6,195.2z"/>
	<path fill="#231F20" d="M193.6,165c-0.1,2.1,1.8,4.4,2.7,6.2c1.4,2.8,2.7,6.7,2.7,9.9c0,2.8-2.2,8.7-4.8,10.2
		c0.8-0.5,1.6-0.9,2.4-1.3c-0.4,1.6-0.7,3.4-1,5.2c1.6-5.2,4.1-10.1,4.6-15.5c0.2-2.7,0.2-6.1-0.8-8.5
		C198.7,169.7,193.5,165.9,193.6,165z"/>
	<path fill="#231F20" d="M248.1,261.7c3.1-0.1,5.3-0.1,5.3-0.1C252.1,261.4,250.3,261.5,248.1,261.7z"/>
	<path fill="#231F20" d="M203.7,267.9c-6.3-0.5-15.9-4.9-15.9-4.9s3.8,3.8,8,4.7c4.1,0.8,8.2,3,14,1.6c4.9-1.2,26.7-6.4,38.4-7.5
		c-5.5,0.2-13.9,0.6-18.1,1.5C223.5,264.6,210,268.4,203.7,267.9z"/>
	<path fill="#231F20" d="M216.3,280.1c0.9-0.4,1.7-0.8,2.6-1.3C218.1,279.2,217.2,279.7,216.3,280.1z"/>
	<path fill="#231F20" d="M218.8,278.8c0.3-0.2,0.5-0.3,0.8-0.5C219.4,278.5,219.1,278.6,218.8,278.8z"/>
	<path fill="#231F20" d="M216.3,280.1c-5,2.3-11.1,3.3-16,1.2l-4.5-3c0.7,0.6,0.5,1.4,1,1.9c1,0.9,2,1.4,2.9,2.2
		c0.6,0.6,1.8,1.5,2.3,2c0.6,0.6,1.2,1.7,2.2,2c-0.3,0.4-0.3,1.2-0.5,1.6c1.4-0.2,6.3-0.6,6.8-1.6c-1.3-0.2-2.6-0.4-3.9-0.4
		C208.7,283.6,212.8,281.8,216.3,280.1z M196.6,279c0.9,0.6,1.7,1.2,2.6,1.9C198.3,280.3,197.4,279.7,196.6,279z"/>
	<path fill="#231F20" d="M195.5,278.1l0.4,0.3C195.7,278.2,195.6,278.1,195.5,278.1z"/>
	<path fill="#231F20" d="M209.5,260.7c1.4-0.4,3.6-2.3,4.8-2.3c-3.8,0.1-7.5,1.9-11.4,1.7c-2.3-0.2-4.7-1.4-6.8-0.5
		c-0.5,0.1-1,0.4-1.4,0.9c0.2-0.1,0.4-0.1,0.5-0.2c1.1-0.1,2.3,0,3.3,0.3l-0.8-0.6c2.1,0.1,4.1,0.8,6.4,1.1
		C205.9,261.2,207.7,261.1,209.5,260.7z"/>
	<path fill="#231F20" d="M317,272.9c-2,2.7-4.4,5.5-7,8.4C312.9,278.5,315.3,275.7,317,272.9z"/>
	<path fill="#231F20" d="M187.6,279c0,0,6.9,30.3,15.8,32.8c5.3,4,17.8,5.7,22.2,4.9c4.4-0.8,22.7-2,33.6-4
		c21.5-5.3,39.1-18.6,50.8-31.2c-11.7,11.3-31.1,22.5-42.4,27c-14.2,5.7-34.7,4.6-41.2,5.9s-14.2-1.6-21-3.2
		c-6.9-1.6-12.5-17-14.2-20.2C189.6,287.5,187.6,279,187.6,279z"/>
	<path fill="#231F20" d="M268.8,253.7c0.3,3.1-1.3,9.8-3.2,13c2.6-4.1,6.1-11.4,3.7-15.7c-2.2-3.8-6.3-6.5-9.6-9.1l0.5,0.8
		C263.4,244.3,268.4,250.1,268.8,253.7z"/>
	<path fill="#231F20" d="M265.6,266.7c-0.2,0.3-0.4,0.6-0.6,0.8C265.2,267.3,265.4,267,265.6,266.7z"/>
	<path fill="#231F20" d="M179.5,251.9l0.8,0.8c-0.6-1.5,0.1-3.5,0.2-5c-6.3,6.4,3.5,13.2,5.7,19.4
		C184.8,261.5,182.3,257,179.5,251.9z"/>
	<path fill="#231F20" d="M151.8,270.9c5.5-0.5,7.6-7.1,8.6-11.4c-0.1,0.5,1.3,2.2,1.5,2.8c0.3,0.9,0.3,1.6,0.4,2.6
		c0.4,2.5,0.7,5,0.7,7.5c0,5.1-0.7,10.2-0.9,15.3c-0.4,7.3,0.2,14.7,2.1,21.8c1.3,4.7,3.6,12.3,8.3,14.7c-0.6-1.7-1.8-3.2-2.4-5
		c-1.1-3.4-1-7.9-0.5-11.4c0.7-6,3-16.9,6.4-21.9c-0.4,8.6,6.6,18-0.3,25.6c4.9-2.9,6.3-15.5,4.4-20.6c2.3,4.5,4.4,7.5,4.6,12.7
		c1.6-3.5,0.9-7.7,0.7-11.4c-0.3-4.3-1.8-8.6-3.9-12.4c-4.7-8-9.9-15.7-14.3-24c0,0-1.3-0.3-7.5-11.9c-6.2-11.6-4.4-24.3-3.6-32.6
		c0.4-4.7,1-9.5,1.4-14.2c0.4-3.7,2.2-9.9,1.1-13.1c-2.6,6.7-3.2,14-5.6,20.8c-2.8,7.7-4.9,16.3-4,24.7
		C150.3,242.5,164.6,259.7,151.8,270.9z"/>
	<path fill="#231F20" d="M259.1,154.8c-0.1-0.2-0.9-1-2.4-2.3C258.3,154.4,259.3,155.2,259.1,154.8z"/>
	<path fill="#231F20" d="M369,370.5c73.9-8.5,115.1,137.3,115.1,137.3s-4.2-25.4-28.5-83.5c-24.3-58.1-37-63.4-39.1-66.6
		c-2.1-3.2-10.6-14.8-10.6-14.8c-2-2.8-13.1-2.3-25.3-0.7c18.9-23.8,24.5-56.9,24.5-87.8c2.2,9.4,4.4,20.2,5.1,28.9
		c4.1-36.5-7.2-82-15.9-110c-1-3.7-1.8-5.5-1.8-5.5c-0.7-2-1.3-4-1.9-5.8c-1.9-6-3.7-11-5.3-14.7c-10.1-23.9-21.1-67.1-52.4-108.4
		s-72.6-18.4-80.9-11.9C220,15.2,167.6,48.7,151.1,85s-14.5,43.2,0.9,70.8c0,0-3.7-12.4-1.8-21.1c0,0,4.2,14.7,9.2,20.7
		c0,0-10.1-36.3,6.9-59.3c-3.2,31.2,6.9,57.9,6.9,57.9s-9.6-62,13.8-83.2c-7.8,57.4,23.9,77.7,23.9,77.7s-39.5-51-5.1-96
		c-6.1,38.8,25.6,75.4,42.8,92.5c-0.8,0.1-1.6,0.3-2.4,0.5c-2.9,0.7-5.8,0.6-8.8,1.1c-1.3,0.2-2.5,0.4-3.8,0.6
		c-1,0.2-2.3,0.6-3.3,0.5c0.2,0,0.4,0,0.5,0c-0.5,0.2-1,0.2-1.4,0.5c0,0.1,0.1,0.2,0.1,0.3c-0.7,0.3-1.2,0.8-1.9,1
		c0.1,0-0.6,1-0.7,1c-0.5,0.5-1.3,0.5-1.8,1c-1.2,1.3,0.5,1.3,1.7,1.5c0,0.1-0.1,0.3-0.1,0.4c0.5,0.1,0.7,0.3,0.9,0.6
		c0.2,0.4,3.4-0.1,3.9-0.1c1.4-0.1,2.4-0.6,3.7-1c0.6-0.2,1.7-0.5,1.9-1c1.4-0.9,3.6-0.9,5.2-1.5c2.2-0.8,4.8-1.1,6.9-1.8
		c0.8-0.3,1.7-0.5,2.6-0.7c2,1.9,3.7,3.5,5,4.7c-1.1-1.2-2.5-2.9-4.1-4.8c1.2-0.2,2.5-0.2,3.8-0.2c2.1,0.1,4,0.8,6.1,1.1
		c2.4,0.4,5-0.2,7.5,0.2c0.1,0,0.2,0.1,0.3,0.1c3.8,3,7.7,5.6,11.4,7.7c0.9,0.8,1.8,1.5,2.6,1.8c-0.1-0.2-0.2-0.4-0.3-0.5
		c1,0.5,2.1,1,3.1,1.5c0,0-10.1-14.7-7.4-28.5c6.9,18.8,20.7,29.4,36.3,39.1c0,0-34.9-31.7-26.7-67.5c8.1,20.7,15.4,44.1,30,66.1
		c2.6,5.3,40.5,84.1-11.7,128.8c21.8-9.2,35.6-44.3,39.3-71.6c3.4,20.7,0.7,43.9-13,67c-24.4,41.2-46.5,58.7-68.4,62.7
		c0.7-3.4,1.3-6.8,1.3-10.1c-1.5,3.3-2.6,6.9-3.4,10.4c-0.9,0.1-1.7,0.2-2.6,0.3c-23.4,2.3-41.8-19.3-41.8-19.3s8,14.7,26.8,21.6
		c0.1,8.3,1,16.5,1.1,24.8c0,2.4-1.4,13.8,0.3,14.3c2.7,0.8,9.8-4.4,12.1-5.8c4-2.4,7.9-5.2,11.4-8.4c1.7-1.6,3.3-3.4,4.7-5.3
		c1.1-1.5,2-4.4,3.3-5.5c-4.5,4-11.3,10.2-17.2,11.7c-1.2-7.2,0.7-14.8,2.6-22.4c3.1,0.1,6.3,0,9.7-0.3c48.7-5,75.1-20.4,93.1-39
		c3.2,6.2,7.4,12.8,12.6,19.9c-15.2,2-31.9,5.6-35.2,6.7c-26.9,8.5-48.7,29.9-72.5,44.3c-12.5,7.6-27.9,12.7-42,8.9
		c-2.6,18.7-14.6,39.5-21.5,57.1c-9,22.6-21.7,43.8-36,63c-7.9,10.6-14.1,20.3-17.5,33c-4.7,17.5-7.3,34.7,0.7,51.9
		c5.4,11.5,15.1,21.1,20.1,32.4c4.8,10.9,2,19.2-0.2,31c-1.9,10.1-1.5,19.9-1.9,30.3c-0.2,6.2-1.8,12.4-0.7,18.6
		c20.8,5.1,48.2,0.5,69.8,0.5c24.8,0,49.5,0,74.3,0c29,0,58,0,87,0c0,0-15.7-26.3-31.2-51.9c-14.3-25.4-29.5-50.4-41.5-76.8
		c-7.4-16.2-17.1-30.4-26.6-45.9c-6.5-10.6-12.1-21.7-16.8-33.3c-3.5-8.8-5.6-24.2-11.7-30.4c-10.4,10.4-1.4,26.2,5.1,36
		c8.9,13.4,20.4,25,28.4,39c2.3,4,4.3,8.1,6.8,12c-1.6-0.2-3.5-1.2-5.1-1.6c-4.2-1.1-8.5-1.6-12.7-2.5c-3.3-0.8-6.1-2.1-9.2-3.3
		c-1.6-0.6-5.5-2.8-7.3-2c-3.2,1.3,7.5,4.4,8.5,4.8c5,1.9,9.8,4.4,14.8,6.4c2.3,0.9,15.9,4,16.6,7.2c0.5,2.6-4.1,2.6-2.1,5.8
		c0.3,0.5,1.8,1.8,2.2,2.3c2.3,3,4.3,6.3,6.2,9.8c4,7.2,7.4,14.9,10.7,22.1c0.2,0.4,0.3,0.7,0.5,1.1c-64-24.1-80.5-53.6-86.7-105.5
		C246.4,460.3,295,379,369,370.5z M215.6,47.7c0,0,3.8,15.6,20.9,22.2C208.2,62.6,215.6,47.7,215.6,47.7z M258.1,144.4
		c-2.7-0.3-5.3-0.2-7.9,0.2c-7.3-9.8-16.6-25.1-16.9-38.4c4.3,10.2,18,26.8,32.6,39.3C263.3,144.9,260.7,144.6,258.1,144.4z
		 M260.1,371.3c-1.6,6.2-3.3,13.7-8.4,18c-0.5,0.4-1.1,0.8-1.6,1.2c-1.9-4.8-1.6-11-2-16.3c-0.4-5.3-1.6-10.5-2.1-15.8
		c4.7,1.7,10.1,3,16.2,3.3C261.6,365,261,368.2,260.1,371.3z M338.8,302.5c0,0,40-29,19.2-110C384.2,280.6,338.8,302.5,338.8,302.5z
		"/>
</g>
</svg>
