<?xml version="1.0" encoding="utf-8"?>
<!-- Generator: Adobe Illustrator 18.1.1, SVG Export Plug-In . SVG Version: 6.00 Build 0)  -->
<svg version="1.1" id="Layer_2" xmlns="http://www.w3.org/2000/svg" xmlns:xlink="http://www.w3.org/1999/xlink" x="0px" y="0px"
	 viewBox="0 0 623.6 737" enable-background="new 0 0 623.6 737" xml:space="preserve">
<g>
	<path fill="#231F20" d="M248,292c0-2.7-1-5.2-2.6-7.2c3.2,1.8,6.1,4.1,8.6,6.5c2.9,2.7,5.6,5.4,7.5,8.9c-0.6,0.8,0.1,1.6-0.4,2.3
		c-0.2,0.3-2.4,1.4-2.8,1.7c-2.6,1.6-6.2,1.5-9.1,2.7c3.3-0.1,7.9-1.1,11.1-2.1c1.1-0.4,2.1-0.8,3.3-1.3c3.6-1.6,0-5.4-1.4-7.4
		c-3.7-5-8.3-9.1-12.7-13.5c-6.2-6.2-11-7.7-19.8-8.1c-8.5-0.4-16.6,2.1-23.8,5.7c0.4,0.5,0.7,1.5,1.1,1.9c-0.6-0.1-1.2,0-1.9-0.2
		c0.8,1.1,1.4,1.9,2.6,2.6c-3.8,0-6.5-1-10-1.9c0.8,1.3,2,3.4,3.5,4.3c-2.2,0-4.6-0.4-6.1-0.9c3.7,1.1,5.2,3.4,9.3,2.8
		c3.2-0.4,5.9-2.2,9-3.3c3.6-1.3,7.3-1.6,10.9-2.9c3-1.1,6.1-1.9,9.5-1.7c-5,1.3-8.7,5.8-8.7,11.1c0,6.3,5.1,11.5,11.5,11.5
		C242.9,303.5,248,298.4,248,292z M242.6,292.1c-1.7,0-3.1-1.4-3.1-3.1c0-1.7,1.4-3.1,3.1-3.1c1.7,0,3.1,1.4,3.1,3.1
		C245.6,290.8,244.3,292.1,242.6,292.1z"/>
	<path fill="#231F20" d="M397.5,291.5c-0.3,0.4-0.7,0.7-1,1C396.8,292.2,397.1,291.9,397.5,291.5z"/>
	<path fill="#231F20" d="M380.9,303.1c5.7-3.5,10.9-6,15.5-10.5c-2,1.8-3.7,2.5-6.5,3.6c2.4-1.7,3.1-3.8,3.5-6.6
		c-0.2,1.5-3.4,3.6-4.5,4.5c1.8-3.6-2.7-2.6-2.6-5.1c-1.9-0.1-3.9,0.1-5.7-0.4c-0.3-2.4,2.9-2.7,3.9-4.4c-1.4,0.3-7.2,3.5-8.2,1.5
		c-0.7-1.4,2.8-4.4,3.3-5.6c-1.8,0.2-2.9,2.1-4.6,2.7c-0.9,0.3-4.2-0.3-4.6,0.1c1-0.9,2.2-2,2.6-3.4c-2.5,2-6.3,2.5-9.3,1.3
		c1.1-0.6,1.6-1.8,1.5-3.2c-4,3.9-10.1,3.5-15.1,5.1c-6,1.9-10.9,4.9-15.6,9.3c-2.6,2.4-4.7,4.3-6.4,7.2c-1.4,2.3-2.1,2.2-4.1,3.5
		c-7.8,5.3,6.1,4.3,8.9,5.1c2.7,0.7,5.5,1.1,8.3,1.8c1.5,0.3,3,0.4,4.5,0.5c1,0,2.9-0.4,3.8,0c-2.4-1.1-6-1.2-8.6-1.6
		c-1.5-0.2-3.1-0.3-4.6-0.7c-0.5-0.1-1-0.3-1.5-0.5c-1.7-0.6-3.2-1.3-5.1-1.5c-0.3,0-4.4-0.4-4.3-0.7c0.9-2.3,3.3-3.3,5.2-4.7
		c2.5-1.8,4.6-3.9,7.1-5.7c2.8-2.1,5.6-3.8,8.6-5.2c-1.7,2-2.8,4.6-2.8,7.5c0,6.3,5.1,11.5,11.5,11.5c6.4,0,11.5-5.1,11.5-11.5
		c0-4.1-2.2-7.7-5.4-9.8c4.8,1.1,9.4,3.4,13.6,5.4c2.4,1.1,4.8,3,7.3,3.7c1.1,0.3,3.4-0.3,3.9,1.2
		C386.6,299.6,382.3,302.3,380.9,303.1z M363.1,291.8c0,1.7-1.4,3.1-3.1,3.1c-1.7,0-3.1-1.4-3.1-3.1c0-1.7,1.4-3.1,3.1-3.1
		C361.7,288.7,363.1,290.1,363.1,291.8z"/>
	<path fill="#231F20" d="M331,288.9c-2,2.2-4.4,7-7,8.2l-0.6,0.9c6.4-4.3,10.1-10.8,16.2-15.7C336.2,283.4,333.3,286.4,331,288.9z"
		/>
	<path fill="#231F20" d="M292,397c-14.8,4.5-20.5-2.7-24.1-6c-3.6-3.3-9.6-6-9.7-6c4.3,1.8,8,6.8,11.2,10c4.6,4.6,11.6,6.2,18.1,5.3
		c6.6-0.9,12.7-5.4,24.1-9.4c6.1-2.1,20.4-9,14.1-17.7c2.3,9.5-6.9,13.7-14.4,15.6C305.3,390.4,306.8,392.5,292,397z"/>
	<path fill="#231F20" d="M340.9,418.6c-2-1.7-5.9,2.1-7.6,3c-2.9,1.7-6.2,3.3-9.5,4.3c-5.4,1.7-13.2,1.7-20.5,3.7
		c-7.3,1.9-15.1,1.9-21.6,0.9c-6.5-1.1-11.4-2.6-22.2-6.5c-2.6-0.9-5-2.3-7.3-3.8c-1.8-1.3-4.1-3-5.4-4.8c-1.4-1.8-3-3.4-4.6-5.1
		c-0.3-0.4-0.9-1.1-1.7-1.9c-1.1-1.1-2.4-2-3.2-1.3c-0.8,0.7,0,2.2,0.6,2.7c1,0.7,1.9,0,2.9,0.3c1.2,0.3,2,1.3,2.7,2.2
		c0.8,1.1,1.7,2.2,2.7,3.2c1.8,1.9,3.6,3.7,5.6,5.3c2.3,2,5,4.1,8,4.9c3.9,1.1,9.1,3,18.1,5.4c9.1,2.4,19.6,1.7,25,0.4
		c5.4-1.3,9.9-1.7,14-3c3.8-1.2,7.5-2.5,11.2-3.8c1.9-0.7,3.9-1.2,5.7-2.1c1.1-0.6,3.3-2.8,4.6-1.3c0.8,1-0.1,2.8-0.2,3.9
		C340,424.8,342.6,420.1,340.9,418.6z"/>
	<path fill="#231F20" d="M266.9,447c0,0-0.1-0.1-0.1-0.1C266.7,446.9,266.8,447,266.9,447z"/>
	<path fill="#231F20" d="M266.9,447c9,6.8,17.5,7.4,17.5,7.4s11,1.3,22-6.3C284.7,459.1,268.5,448.2,266.9,447z"/>
	<path fill="#231F20" d="M302.9,419.3c0.8,0.1,1.5,0.1,2.3,0.1C304.4,419.4,303.6,419.3,302.9,419.3z"/>
	<path fill="#231F20" d="M288.1,420.2c-2.5,0.2-4.2,0.1-6.6-0.6c-2.3-0.7-4.4-1-6.9-1l3.4,0.5c2.1-0.1,4.4,1.8,6.5,2.1
		c2.4,0.4,4.7-0.2,7.1-0.7c3.7-0.8,7.5-1.3,11.3-1.2c-2-0.2-3.9-0.5-5.9-0.4C294,419.1,291,419.9,288.1,420.2z"/>
	<path fill="#231F20" d="M319.6,264.5c0.4-0.2,1.3-0.2,1.8-0.5c0.1,1.2-0.1,2.4,0.3,3.4c2.2-1,3-4.2,5.2-4.7c-0.7,1.5-1.8,3.1-2,4.7
		c1.1-0.4,1.9-1.6,2.9-2.1c1.8-1,4-1.4,5.9-1.8c4.1-0.7,7.9-1.3,12-2.3c7.9-2,16.5-2.8,24-6.3c1.7-0.8,3.4-1.7,5.1-2.5
		c-0.7,0.6-1.7,1.3-2.2,2c2.8,0.3,6.1-1.3,8.9-1.3c-0.2,0.2-0.4,0.5-0.6,0.8c3,0.2,5.3-0.1,7.8,0.6c4.4,1.3,9.8,6.5,14.6,5.6
		c-0.1-0.2-0.1-0.4-0.2-0.6c4.3,0.1,7.8,3.9,11.8,5.2c-2.1-3.3-5.8-6.3-8.9-8.7c-2.4-1.9-4.8-4.2-7.5-5.6c-3.1-1.6-6.6-3.9-9.9-5.1
		c-3.4-1.2-6.9-0.4-10.5-0.4c-9.6,0-18.7,3.6-28.3,4.9c-3.6,0.5-7.1,0.7-10.6,1.9c-2.1,0.7-4.1,1.4-6.3,1.8c-1.5,0.3-2.8,0-3.4,1.8
		c0.3-0.7,0.4-1.6,0.6-2.2c-2.1,3-6.4,5.1-7.4,8.8l0.6-3.1C321.9,260.4,319.9,262.1,319.6,264.5z"/>
	<path fill="#231F20" d="M214.8,252.8c-0.1,0-0.2-0.1-0.3-0.1c-0.2,0-0.4-0.1-0.6-0.1C214.3,252.6,214.5,252.7,214.8,252.8z"/>
	<path fill="#231F20" d="M213.7,244.7c0,0,0.1,0,0.1,0c0.1,0,0.1,0,0.2,0C213.9,244.7,213.8,244.7,213.7,244.7z"/>
	<path fill="#231F20" d="M351.7,468.6c1-0.8,1.6-1.3,1.6-1.3S352.9,467.6,351.7,468.6z"/>
	<path fill="#231F20" d="M211.7,291.6l0.8,2.3c0.7,2.7,3.1,4.6,5.4,6.1c1.5,1,5,3,6.6,2.7C219.9,301.1,213.5,296.3,211.7,291.6z"/>
	<path fill="#231F20" d="M261.6,289.3c1.2,2,2.4,4.1,3.3,6.3c1.1,2.7,1.1,6.5,0,9.2c-0.3,0.9-1.5,2.3-1.2,3.1c0,0.1,2.2-2.4,2.3-2.7
		c0.6-1.1,0.8-2.2,0.8-3.5c0.1-2.7-0.9-4.6-2-7C264.1,293,263,290.5,261.6,289.3z"/>
	<path fill="#231F20" d="M351.1,404.6c0,0,0.1,0,0.1,0.1C351.2,404.7,351.2,404.7,351.1,404.6L351.1,404.6z"/>
	<path fill="#231F20" d="M351.1,404.6c-0.7-0.4-1.4-0.7-2-0.8L351.1,404.6z"/>
	<path fill="#231F20" d="M357.2,413.5c0.4-2.8-2.8-7-5.9-8.9c5.3,4.9,4.2,12.8,1.3,18.5C354.4,420.1,356.8,416.5,357.2,413.5z"/>
	<path fill="#231F20" d="M352.5,423.2c-0.4,0.7-0.8,1.4-1.1,2C351.8,424.5,352.2,423.9,352.5,423.2z"/>
	<path fill="#231F20" d="M228.2,401.8c-1.2,2.5-0.3,5.9,1.8,7.8c-0.3-1.2-1-2-1.3-3.3c-0.6-3.3,0.4-5.2,1.9-8
		C230,399.5,228.8,400.5,228.2,401.8z"/>
	<path fill="#231F20" d="M138.7,574.4c1.2,3.8,3.1,7.2,5.7,10.1C142.1,581.4,140.2,578,138.7,574.4z"/>
	<path fill="#231F20" d="M525.5,554.6c-20.9-5.2-34.1-38.5-35.7-55c-1.8-18.1,1.8-35.7,6.2-53c7.3-28.6,16.4-63.1-1.8-90.9
		c-1.6-2.5-3.9-5.8-6.5-9.1c-0.1-5.2,0.4-10.5,0.4-15.8c4.3,11.2,11.7,21.3,23.6,23.1c-12.8-2.2-22.3-21.8-23.9-31.7
		c-1.8-10.9-0.4-21.7,1.5-32.3c2.9-15.9,6.5-34.9-1.9-50.2c0.3-7.5,0.5-15,0.5-22.5c0-41.2-10.8-94-28.9-131.1
		c-7.8-15.9-19.6-38.2-36.7-43.4c-20.6-6.3-29.1,5.6-47,10.9c10.3-3-26.6-26.7-27.6-27.2c-23.8-11.9-63.1-13.1-83.7,5.7
		c-5.6,5.1-7.4,8-14.1,11.1c-8.5,4-18.4,5.8-26.2,11.1c-19.6,13.5-33.5,37.6-48.6,55.8c-31.7,38.1-45.2,86-50.5,134.1
		c-0.5,4.1-0.8,8.3-1.1,12.5c-0.7,1-1.4,2-1.9,2.9c-13.5,20.7-6.7,46.2-1.3,67.5c3.3,12.8,5.9,25.9,4.6,39.3
		c-1.2,12.3-11,37-26.5,40.8c13.1-2.9,21.1-13.9,25.6-26.5c-1.5,7.6-2.9,15.1-3.6,22.7c-1.6,16.6,1,33.3,6,49.2
		c2.9,9.1,8.8,16.3,8.7,25.8c-0.1,14.3-2.1,28.7-1.4,43.1c-1.8,17.2-1.8,36.9,5.2,53c-2.8-8.6-2.6-19-1.2-29.2
		c2.5,8.7,5.8,17.2,9.8,25.2c2.7,5.5,5.7,10.6,8.5,15.9c9.1,26.9,17.1,59.2,8.6,80.1c4.5-6.1,7.2-20.1,6.6-37.1
		c1,0.2,2.3,0.6,4.1,1.6c1.1,0.7,2.1,1.6,3.1,2.6c1.9,9.9,2.5,20.3,4.5,30.2c4.2,20.5,12.9,36.6,28.9,50.2
		c-17.9-17.6-18.3-36.8-23.3-59.1c7.4,16.3,21.9,33.1,39.9,37.3c-11.7-12.1-3.4-32.7-0.4-46.6c2.4-11.3,2.7-23.5,2.5-35.1
		c2.8,5.5,3.9,10.5,5.3,16.4c0,0,0,0,0,0c1.2,14.3,5.8,26.8,15.2,39.3c-6.9-15-12.4-27.9-9.5-44.8c2-4.4,2.6-10.5,2.9-14.9
		c0.8-4.3,1.3-8.6,1.2-13.4c-0.1-7.2-0.2-19-3.6-27.1c-0.2-1.4-0.5-2.8-0.8-4.1c5,7.7,10.9,14.5,18,19.8
		c15.2,11.4,28.3,20.3,28.3,41.5c0,28-24.8,70-11.4,96.3c-7.5-14.8,34-60.8,41.8-72c11.8-17.1,23.7-34.2,35.5-51.2
		c0,0,18.7,2.2,24.7-2.3c6-4.5-3.7-47.2-3.7-47.2c2.1,9.1-16.9,32.4-22,39.9c-5.5,8.2-10.5,16.6-15.6,25.1
		c-7.2,12.1-14.4,24.2-22.8,35.4c-11.3,15.2-21.7,30.9-32.1,46.4c4.5-6.7,2.8-27.2,3.8-35.9c1.4-11.6,4.6-23.5,4.6-35.2
		c0-29.7-25.4-50.5-46.7-70.1c-6.2-15.8-12.2-36.5-8.8-50.5c3.1-12.9,2.2-26.6,0.6-36.6c0.1-0.3,0.2-0.9,0.2-1.9
		c-0.3-8.3,13.1,7.3,18.5,14c0.5,0.6,1.2,1.6,2.2,2.7c0.1,0.1,0.1,0.1,0.1,0.1s0,0,0,0c4.8,5.5,15.3,15,30.2,15.7
		c20.7,1,35.8-2.8,49.6-14.4c8.9-7.5,13.4-11.2,15.5-12.9c-6.1,4.8-28.1,21.7-38.2,23.4c-11.8,2-27.5,2.6-34.5,1.2
		c-8.5-1.7-16.3-7.7-21-12c-0.4-0.4-0.9-1.1-1.8-2.1c-4.7-5.2-21.9-31-24.9-35.9c0-0.1,0-0.1-0.1-0.2c-0.1-0.2-0.2-0.3-0.3-0.5
		c0-0.1-0.1-0.1-0.1-0.1c0,0,0,0,0,0c-10.4-14.3-22.4-29-30.8-46.3c-13.8-28.3-14.3-61.4-12.9-92.7c8-13.3,10.8-32.9,10.8-44.3
		c0-1.6,0-3.2-0.1-4.9c2.2-0.5,4.5-0.8,6.6-1.6c-0.1-0.1-0.4-0.3-0.5-0.5c2.2-0.2,5.7-0.6,7.8,0.4c0-0.1-0.1-0.1-0.2-0.2
		c1-0.1,2,0,2.9,0.4c0.7,0.2,1.4,0.3,2.1,0.4c-0.1,0-0.3,0-0.4,0c1.1,0.5,2.5,0.9,3.6,1.7c-1-0.1-2-0.3-3-0.6c2.9,2.2,7,3,10.4,2.4
		c1.5,1,3.5,0.7,5.4,1c1.8,0.3,3.5,0.8,5.2,1.3c4.2,1.1,7.6,2,11.6,4.1c0-0.1-0.2-0.1-0.3-0.3c1.5,0.5,3.1,0.9,4.5,1.6
		c-0.2-0.2-0.3-0.5-0.4-0.7c0.7,1.4,2.2,1.9,3.5,2.5c-0.9-0.9-1.4-2.1-2.1-3.2c0.2,0,1.8,1,2.3,1.3c-0.1-1-0.3-1.9-0.9-2.7
		c0.3,0,0.8-0.2,1.2-0.1c0.1-1.5-1.2-2.3-1.5-3.6c0.2,0,0.3-0.1,0.5-0.1c0.4-0.1-3.4-4-3.9-4.3c-5-3.3-12.4-3.5-18.3-4.4
		c-5.5-0.8-10.6-4.5-16.2-4.2c0.1,0,0.2,0,0.3,0c-1.5,0-2.9,0-4.4,0c-5.8,0.7-11.1-0.6-16.1,2.4c-0.1-2.2-0.2-4.4-0.3-6.7
		c5.2-10.2,10-23.4,17.3-40.6c5.5-12.9,14.8-24.2,25.2-33.7c-0.2,0.5-0.4,1.1-0.6,1.6c1.2-1,2.3-2,3.5-3.1
		c22.4-4.7,38.6-10.1,50.3-15.1c5.6-0.7,10.7-1.5,15.4-2.5c30.4,7.4,51.9-8.4,63-20.1c2.7,4.1,6.2,8.2,7.1,9.6l-3.8-8.6
		c22.4,17,17.9,47.4,19.3,70.4c0.8,13.1,7.5,38.6,24.2,45.7c0.1,0.4,0.2,0.8,0.3,1.2c3.2,13,6.6,21.8,6,35.3
		c-0.7,16.5-0.2,33.2-1.8,49.6c-2.1,21.6-3.7,43.6-9.9,64.5c-5.1,17.3-16.1,32-22.4,48.8c-3.2,8.4-5.7,17.1-6.9,26
		c-1.7,12.5-2.4,25.6,1.6,37.6c0.6,1.8,1.3,3.6,2,5.5c0.1,0.4,0.1,0.9,0.2,1.3c2.9,15.5,9.8,40.3,4.1,57.7
		c5.4-12.4,6.6-26.9,6.1-40.8c2.5,2.9,4.9,5.5,6.5,9.6c4.3,11,4.5,24.2,1.9,35.6c-1.7,7.4-3.5,14.5-4.8,21.7
		c-5,13.7-10.7,24.8-12,27c-1.3,2.2,4-1.9,10.3-10.9c0,2.1,0,4.2,0.2,6.4c1.6,20.3,9.6,36.1,23,51c-9-14.6,17.3-29,25.4-36.8
		c2.8-2.6,5.4-5.6,7.6-8.8c0,0.1,0,0.1,0,0.2c2.3,17.2-3.8,30-11.5,44.8c13-15.8,17.9-32,17.7-52.4c0-1.9,0-3.9-0.1-6
		c0.4-2.9,0.5-5.9,1.6-8.5c4.8,2.8,4,12.8,3.6,17.4c7-7.1,11.3-18.8,14.2-30.3c1,5.2,2.4,10.3,4.5,15.1c-3.2-9.9-2.4-22.2-0.5-33.9
		c0-0.2,0.1-0.3,0.1-0.5c0.1-0.5,0.1-1,0.2-1.4c1.4-8.1,3.2-15.7,4.3-21.8c1.9-10,2-19.7,1.2-29.2
		C497.2,536,507.9,550.7,525.5,554.6z M188.4,254.2c1.6-1.8,3-3.7,4.4-5.7c0.1,0.7,0.2,1.5,0.3,2.2c-1.8,1.6-3.4,3.3-4.5,5.2
		C188.5,255.3,188.4,254.7,188.4,254.2z M187.8,238.2c0.2-3.7,0.8-7.4,1.8-10.9c0.6,4.9,1.4,9.7,2.2,14.3c0.1,0.4,0.1,0.8,0.2,1.3
		c-1.2,2.1-2.5,4.1-4,6.1C187.7,245.4,187.6,241.9,187.8,238.2z M193.6,279.4c-0.7,5-2.8,12.2-6,19c0.2-4.4,0.5-8.8,0.7-13.1
		c0.5-7.9,1.6-16.4,0.8-24.5c-0.1-0.5-0.1-1.1-0.2-1.6c1.4-1.3,3.3-2.4,4.3-3.1c0.2-0.1,0.3-0.2,0.5-0.3
		C194.5,263.6,194.6,271.5,193.6,279.4z M203.2,210.7c-1.9,6.8-3.5,13.8-6,20.7c-0.2-8,0-16,1.1-23.8c2.6-4.5,5.5-8.8,8.3-12.9
		c2.5-3.7,4.8-7.5,7.1-11.2C208.4,194.2,205,204.1,203.2,210.7z M251.4,156.6c0.3-0.3,0.7-0.6,1-1c1.8-1.4,3.6-2.7,5.4-3.9
		c2.6,0,5.4,0,8.3-0.1C261.3,153.5,256.3,155.1,251.4,156.6z M273,148.8c-3.7,0.1-7.2,0-10.6-0.1c5.4-3.6,10.6-6.7,15.1-9.2
		c0.8,0.2,1.6,0.4,2.4,0.7c1.5,1.1,3.4,1.5,5.4,1.4c0.5,0.1,1,0.3,1.5,0.4C282.4,144.5,277.8,146.8,273,148.8z M400.4,148.5
		c0-0.1,0-0.2-0.1-0.3c0,0,0-0.1,0.1-0.1C400.4,148.2,400.5,148.3,400.4,148.5z M337,143.1c-4.6,2-11,2.3-18.4,1.6
		c14.7-3.9,24-8.7,29.9-12.8c2.7-0.8,5.4-1.9,8.1-3.1C351.2,134.5,344.6,139.9,337,143.1z M393,130.4c0.4-0.8,0.9-1.6,1.5-2.3
		c1,2.5,1.6,5.1,2,7.9C395.5,134,394.3,132.2,393,130.4z M399.7,215.5c-2.4-10.8-1.6-21.6-0.3-32.3c1.1-8.9,2.4-18.8,1.8-28.4
		c1.6,5.8,5.3,10.6,8.3,15.9c4.6,8.1,3.4,14.8,2.6,24c-1.5,17.3,1.9,32,5.9,48.4C408.6,237.2,401.5,223.4,399.7,215.5z"/>
	<path fill="#231F20" d="M485.8,606c1.2,3.8,3.1,7.2,5.7,10.1C489.2,613,487.3,609.6,485.8,606z"/>
	<path fill="#231F20" d="M391.4,571.8c-1.5,3.6-3.4,7-5.7,10.1C388.4,579,390.2,575.6,391.4,571.8z"/>
	<path fill="#231F20" d="M315.8,367l-1.2,1.2l-0.4,4l0.8,1.8l3.3,0.5l1.2-1.1l0.5-4.4l-1.1-1.4L315.8,367z M315.8,373.4l-0.5-1.1
		l2-0.5L315.8,373.4z"/>
</g>
</svg>
