<?xml version="1.0" encoding="utf-8"?>
<!-- Generator: Adobe Illustrator 18.1.1, SVG Export Plug-In . SVG Version: 6.00 Build 0)  -->
<svg version="1.1" id="Layer_2_copy_2" xmlns="http://www.w3.org/2000/svg" xmlns:xlink="http://www.w3.org/1999/xlink" x="0px"
	 y="0px" viewBox="0 0 308.2 73.6" enable-background="new 0 0 308.2 73.6" xml:space="preserve">
<circle cx="-686.4" cy="348.9" r="7.1"/>
<g>
	<g>
		<path d="M-842.3,704.8c0,0.6-0.5,1.1-1.1,1.1c-0.6,0-1.1-0.5-1.1-1.1c0-0.6,0.5-1.1,1.1-1.1C-842.8,703.7-842.3,704.1-842.3,704.8
			z"/>
		<path d="M-834.5,704.8c0,0.6-0.5,1.1-1.1,1.1c-0.6,0-1.1-0.5-1.1-1.1c0-0.6,0.5-1.1,1.1-1.1C-835,703.7-834.5,704.1-834.5,704.8z"
			/>
		<path d="M-826.6,704.8c0,0.6-0.5,1.1-1.1,1.1c-0.6,0-1.1-0.5-1.1-1.1c0-0.6,0.5-1.1,1.1-1.1C-827.1,703.7-826.6,704.1-826.6,704.8
			z"/>
		<path d="M-818.8,704.8c0,0.6-0.5,1.1-1.1,1.1c-0.6,0-1.1-0.5-1.1-1.1c0-0.6,0.5-1.1,1.1-1.1C-819.3,703.7-818.8,704.1-818.8,704.8
			z"/>
		<path d="M-810.9,704.8c0,0.6-0.5,1.1-1.1,1.1c-0.6,0-1.1-0.5-1.1-1.1c0-0.6,0.5-1.1,1.1-1.1C-811.4,703.7-810.9,704.1-810.9,704.8
			z"/>
		<path d="M-803.1,704.8c0,0.6-0.5,1.1-1.1,1.1c-0.6,0-1.1-0.5-1.1-1.1c0-0.6,0.5-1.1,1.1-1.1C-803.6,703.7-803.1,704.1-803.1,704.8
			z"/>
		<path d="M-795.2,704.8c0,0.6-0.5,1.1-1.1,1.1c-0.6,0-1.1-0.5-1.1-1.1c0-0.6,0.5-1.1,1.1-1.1C-795.7,703.7-795.2,704.1-795.2,704.8
			z"/>
		<path d="M-787.4,704.8c0,0.6-0.5,1.1-1.1,1.1c-0.6,0-1.1-0.5-1.1-1.1c0-0.6,0.5-1.1,1.1-1.1C-787.9,703.7-787.4,704.1-787.4,704.8
			z"/>
		<path d="M-779.5,704.8c0,0.6-0.5,1.1-1.1,1.1c-0.6,0-1.1-0.5-1.1-1.1c0-0.6,0.5-1.1,1.1-1.1C-780,703.7-779.5,704.1-779.5,704.8z"
			/>
		<path d="M-771.7,704.8c0,0.6-0.5,1.1-1.1,1.1c-0.6,0-1.1-0.5-1.1-1.1c0-0.6,0.5-1.1,1.1-1.1C-772.2,703.7-771.7,704.1-771.7,704.8
			z"/>
		<path d="M-763.8,704.8c0,0.6-0.5,1.1-1.1,1.1c-0.6,0-1.1-0.5-1.1-1.1c0-0.6,0.5-1.1,1.1-1.1C-764.3,703.7-763.8,704.1-763.8,704.8
			z"/>
		<path d="M-756,704.8c0,0.6-0.5,1.1-1.1,1.1c-0.6,0-1.1-0.5-1.1-1.1c0-0.6,0.5-1.1,1.1-1.1C-756.5,703.7-756,704.1-756,704.8z"/>
		<path d="M-748.1,704.8c0,0.6-0.5,1.1-1.1,1.1c-0.6,0-1.1-0.5-1.1-1.1c0-0.6,0.5-1.1,1.1-1.1C-748.6,703.7-748.1,704.1-748.1,704.8
			z"/>
		<path d="M-740.3,704.8c0,0.6-0.5,1.1-1.1,1.1c-0.6,0-1.1-0.5-1.1-1.1c0-0.6,0.5-1.1,1.1-1.1C-740.8,703.7-740.3,704.1-740.3,704.8
			z"/>
		<path d="M-732.4,704.8c0,0.6-0.5,1.1-1.1,1.1c-0.6,0-1.1-0.5-1.1-1.1c0-0.6,0.5-1.1,1.1-1.1C-732.9,703.7-732.4,704.1-732.4,704.8
			z"/>
		<path d="M-724.6,704.8c0,0.6-0.5,1.1-1.1,1.1c-0.6,0-1.1-0.5-1.1-1.1c0-0.6,0.5-1.1,1.1-1.1C-725.1,703.7-724.6,704.1-724.6,704.8
			z"/>
		<path d="M-716.7,704.8c0,0.6-0.5,1.1-1.1,1.1c-0.6,0-1.1-0.5-1.1-1.1c0-0.6,0.5-1.1,1.1-1.1C-717.2,703.7-716.7,704.1-716.7,704.8
			z"/>
		<path d="M-708.9,704.8c0,0.6-0.5,1.1-1.1,1.1c-0.6,0-1.1-0.5-1.1-1.1c0-0.6,0.5-1.1,1.1-1.1C-709.4,703.7-708.9,704.1-708.9,704.8
			z"/>
		<path d="M-701,704.8c0,0.6-0.5,1.1-1.1,1.1c-0.6,0-1.1-0.5-1.1-1.1c0-0.6,0.5-1.1,1.1-1.1C-701.5,703.7-701,704.1-701,704.8z"/>
		<path d="M-693.2,704.8c0,0.6-0.5,1.1-1.1,1.1c-0.6,0-1.1-0.5-1.1-1.1c0-0.6,0.5-1.1,1.1-1.1C-693.7,703.7-693.2,704.1-693.2,704.8
			z"/>
		<path d="M-685.3,704.8c0,0.6-0.5,1.1-1.1,1.1c-0.6,0-1.1-0.5-1.1-1.1c0-0.6,0.5-1.1,1.1-1.1C-685.8,703.7-685.3,704.1-685.3,704.8
			z"/>
		<path d="M-677.5,704.8c0,0.6-0.5,1.1-1.1,1.1c-0.6,0-1.1-0.5-1.1-1.1c0-0.6,0.5-1.1,1.1-1.1C-678,703.7-677.5,704.1-677.5,704.8z"
			/>
		<path d="M-669.6,704.8c0,0.6-0.5,1.1-1.1,1.1c-0.6,0-1.1-0.5-1.1-1.1c0-0.6,0.5-1.1,1.1-1.1C-670.1,703.7-669.6,704.1-669.6,704.8
			z"/>
		<path d="M-661.8,704.8c0,0.6-0.5,1.1-1.1,1.1c-0.6,0-1.1-0.5-1.1-1.1c0-0.6,0.5-1.1,1.1-1.1C-662.3,703.7-661.8,704.1-661.8,704.8
			z"/>
		<path d="M-653.9,704.8c0,0.6-0.5,1.1-1.1,1.1c-0.6,0-1.1-0.5-1.1-1.1c0-0.6,0.5-1.1,1.1-1.1C-654.4,703.7-653.9,704.1-653.9,704.8
			z"/>
		<path d="M-646.1,704.8c0,0.6-0.5,1.1-1.1,1.1c-0.6,0-1.1-0.5-1.1-1.1c0-0.6,0.5-1.1,1.1-1.1C-646.6,703.7-646.1,704.1-646.1,704.8
			z"/>
		<path d="M-638.2,704.8c0,0.6-0.5,1.1-1.1,1.1c-0.6,0-1.1-0.5-1.1-1.1c0-0.6,0.5-1.1,1.1-1.1C-638.7,703.7-638.2,704.1-638.2,704.8
			z"/>
		<path d="M-630.4,704.8c0,0.6-0.5,1.1-1.1,1.1c-0.6,0-1.1-0.5-1.1-1.1c0-0.6,0.5-1.1,1.1-1.1C-630.9,703.7-630.4,704.1-630.4,704.8
			z"/>
		<path d="M-622.5,704.8c0,0.6-0.5,1.1-1.1,1.1c-0.6,0-1.1-0.5-1.1-1.1c0-0.6,0.5-1.1,1.1-1.1C-623,703.7-622.5,704.1-622.5,704.8z"
			/>
		<path d="M-614.7,704.8c0,0.6-0.5,1.1-1.1,1.1c-0.6,0-1.1-0.5-1.1-1.1c0-0.6,0.5-1.1,1.1-1.1C-615.2,703.7-614.7,704.1-614.7,704.8
			z"/>
		<path d="M-606.8,704.8c0,0.6-0.5,1.1-1.1,1.1c-0.6,0-1.1-0.5-1.1-1.1c0-0.6,0.5-1.1,1.1-1.1C-607.3,703.7-606.8,704.1-606.8,704.8
			z"/>
		<path d="M-599,704.8c0,0.6-0.5,1.1-1.1,1.1c-0.6,0-1.1-0.5-1.1-1.1c0-0.6,0.5-1.1,1.1-1.1C-599.5,703.7-599,704.1-599,704.8z"/>
		<path d="M-591.1,704.8c0,0.6-0.5,1.1-1.1,1.1c-0.6,0-1.1-0.5-1.1-1.1c0-0.6,0.5-1.1,1.1-1.1C-591.6,703.7-591.1,704.1-591.1,704.8
			z"/>
		<path d="M-583.3,704.8c0,0.6-0.5,1.1-1.1,1.1c-0.6,0-1.1-0.5-1.1-1.1c0-0.6,0.5-1.1,1.1-1.1C-583.8,703.7-583.3,704.1-583.3,704.8
			z"/>
		<path d="M-575.4,704.8c0,0.6-0.5,1.1-1.1,1.1c-0.6,0-1.1-0.5-1.1-1.1c0-0.6,0.5-1.1,1.1-1.1C-575.9,703.7-575.4,704.1-575.4,704.8
			z"/>
		<path d="M-567.6,704.8c0,0.6-0.5,1.1-1.1,1.1c-0.6,0-1.1-0.5-1.1-1.1c0-0.6,0.5-1.1,1.1-1.1C-568.1,703.7-567.6,704.1-567.6,704.8
			z"/>
		<path d="M-559.7,704.8c0,0.6-0.5,1.1-1.1,1.1c-0.6,0-1.1-0.5-1.1-1.1c0-0.6,0.5-1.1,1.1-1.1C-560.2,703.7-559.7,704.1-559.7,704.8
			z"/>
		<path d="M-551.9,704.8c0,0.6-0.5,1.1-1.1,1.1c-0.6,0-1.1-0.5-1.1-1.1c0-0.6,0.5-1.1,1.1-1.1C-552.4,703.7-551.9,704.1-551.9,704.8
			z"/>
		<path d="M-544,704.8c0,0.6-0.5,1.1-1.1,1.1c-0.6,0-1.1-0.5-1.1-1.1c0-0.6,0.5-1.1,1.1-1.1C-544.5,703.7-544,704.1-544,704.8z"/>
		<path d="M-536.2,704.8c0,0.6-0.5,1.1-1.1,1.1c-0.6,0-1.1-0.5-1.1-1.1c0-0.6,0.5-1.1,1.1-1.1C-536.7,703.7-536.2,704.1-536.2,704.8
			z"/>
		<path d="M-528.3,704.8c0,0.6-0.5,1.1-1.1,1.1c-0.6,0-1.1-0.5-1.1-1.1c0-0.6,0.5-1.1,1.1-1.1C-528.8,703.7-528.3,704.1-528.3,704.8
			z"/>
	</g>
	<g>
		<path d="M-804.4,768.6l-2.9-8.2h-15.8l-2.9,8.2h-4.1l13.3-36.2h3.3l13.3,36.2H-804.4z M-815.1,737.9l-6.8,19.1h13.5L-815.1,737.9z
			"/>
		<path d="M-773.3,768.6l-19.2-29v29h-3.9v-36.2h3.7l19.2,28.9v-28.9h3.9v36.2H-773.3z"/>
		<path d="M-741.3,765.2c-2.2,2.2-5.4,3.4-9.2,3.4h-12.4v-36.2h12.4c3.8,0,7,1.2,9.2,3.4c3.8,3.7,3.5,9.3,3.5,14.3
			C-737.7,755.1-737.5,761.4-741.3,765.2z M-744,738.5c-1.9-1.9-4.3-2.6-7.1-2.6h-7.9v29.3h7.9c2.8,0,5.2-0.7,7.1-2.6
			c2.5-2.6,2.4-8,2.4-12.4C-741.6,745.6-741.5,741.1-744,738.5z"/>
		<path d="M-722.1,753.6v15h-3.9v-15l-10.8-21.3h4.2l8.5,17.3l8.4-17.3h4.2L-722.1,753.6z"/>
		<path d="M-661.1,768.6l-11-19.3l-7.6,9.1v10.1h-3.9v-36.2h3.9v20.8l16.9-20.8h4.7l-11.4,14l13,22.2H-661.1z"/>
		<path d="M-629.6,768.6l-19.2-29v29h-3.9v-36.2h3.7l19.2,28.9v-28.9h3.9v36.2H-629.6z"/>
		<path d="M-619,768.6v-36.2h22.5v3.5h-18.6v12.8h15.9v3.5h-15.9v13.1h18.6v3.5H-619z"/>
		<path d="M-591.7,768.6v-36.2h3.9v32.7h18.5v3.5H-591.7z"/>
		<path d="M-565,768.6v-36.2h3.9v32.7h18.5v3.5H-565z"/>
	</g>
	<path d="M-640.1,467.1h5.9v-1.7h-51.9v1.7h5.8c0,151.4,0,196.2,0,202.7h-5.9v1.8h51.9v-1.8h-5.9V467.1z"/>
</g>
<path d="M-543,291.9c0,15.1-11.2,25.4-28.5,26.4c-3,0.2-5.7,0.2-8.2,0.2c-2.7,0-5.5-0.2-8.5-0.5c-13.2-1.4-29.4-9.7-36.5-13.2
	c-20-9.9-44.5-19.1-61.7,1.2h0c-17.2-20.3-41.7-11.1-61.7-1.2c-7.1,3.5-23.4,11.8-36.5,13.2c-2.9,0.3-5.8,0.5-8.5,0.5
	c-2.5,0-5.2,0-8.2-0.2c-17.3-1-28.5-11.3-28.5-26.4h-1.5c0,15.7,12,27,29.9,28c2.9,0.2,6.1,0.3,8.5,0.3c3.1,0,7-0.1,8.5-0.3
	c14.4-1.2,28.7-5.4,41.5-9.5c8.6-2.8,18.5-5.5,28.6-5.5c14.8,0,26.7,12,26.7,26.7c0,0,0,0.1,0,0.1h0c0,0,0,0,0,0h2.5c0,0,0,0,0,0h0
	c0,0,0-0.1,0-0.1c0-14.8,12-26.7,26.7-26.7c10.1,0,20,2.7,28.6,5.5c12.8,4.2,27,8.3,41.5,9.5c1.5,0.2,5.3,0.3,8.5,0.3
	c2.8,0,5.6-0.1,8.5-0.3c17.9-1,29.9-12.3,29.9-28H-543z"/>
<circle cx="153.1" cy="63.3" r="7.1"/>
<path d="M296.5,6.3c0,15.1-11.2,25.4-28.5,26.4c-3,0.2-5.7,0.2-8.2,0.2c-2.7,0-5.5-0.2-8.5-0.5c-13.2-1.4-29.4-9.7-36.5-13.2
	c-20-9.9-44.5-19.1-61.7,1.2h0C135.9,0,111.4,9.2,91.4,19.1C84.3,22.7,68,30.9,54.9,32.3c-2.9,0.3-5.8,0.5-8.5,0.5
	c-2.5,0-5.2,0-8.2-0.2C20.9,31.7,9.7,21.4,9.7,6.3H8.2c0,15.7,12,27,29.9,28c2.9,0.2,6.1,0.3,8.5,0.3c3.1,0,7-0.1,8.5-0.3
	c14.4-1.2,28.7-5.4,41.5-9.5c8.6-2.8,18.5-5.5,28.6-5.5c14.8,0,26.7,12,26.7,26.7c0,0,0,0.1,0,0.1h0c0,0,0,0,0,0h2.5c0,0,0,0,0,0h0
	c0,0,0-0.1,0-0.1c0-14.8,12-26.7,26.7-26.7c10.1,0,20,2.7,28.6,5.5c12.8,4.2,27,8.3,41.5,9.5c1.5,0.2,5.3,0.3,8.5,0.3
	c2.8,0,5.6-0.1,8.5-0.3C286,33.3,298,22,298,6.3H296.5z"/>
<circle cx="-686.4" cy="56.4" r="7.1"/>
<path d="M-543,113.4c0-15.1-11.2-25.4-28.5-26.4c-3-0.2-5.7-0.2-8.2-0.2c-2.7,0-5.5,0.2-8.5,0.5c-13.2,1.4-29.4,9.7-36.5,13.2
	c-20,9.9-44.5,19.1-61.7-1.2h0c-17.2,20.3-41.7,11.1-61.7,1.2c-7.1-3.5-23.4-11.8-36.5-13.2c-2.9-0.3-5.8-0.5-8.5-0.5
	c-2.5,0-5.2,0-8.2,0.2c-17.3,1-28.5,11.3-28.5,26.4h-1.5c0-15.7,12-27,29.9-28c2.9-0.2,6.1-0.3,8.5-0.3c3.1,0,7,0.1,8.5,0.3
	c14.4,1.2,28.7,5.4,41.5,9.5c8.6,2.8,18.5,5.5,28.6,5.5c14.8,0,26.7-12,26.7-26.7c0,0,0-0.1,0-0.1h0c0,0,0,0,0,0h2.5c0,0,0,0,0,0h0
	c0,0,0,0.1,0,0.1c0,14.8,12,26.7,26.7,26.7c10.1,0,20-2.7,28.6-5.5c12.8-4.2,27-8.3,41.5-9.5c1.5-0.2,5.3-0.3,8.5-0.3
	c2.8,0,5.6,0.1,8.5,0.3c17.9,1,29.9,12.3,29.9,28H-543z"/>
<path d="M-540.8,669.8l-49.9-93.3c17.9,0,29-5.1,35.2-9.3c4.8-3.3,8.3-7.8,10.4-12.7c0.1-0.2,0.4-0.9,0.4-1.1c0.4-1,0.7-2,1-3.1
	c0.5-2,0.8-4.2,0.8-6.4v0c0-12.4-8.6-22.7-20.1-25.4c-1.9-0.5-3.9-0.7-6-0.7h0c-14.4,0-26.1,11.7-26.1,26.1
	c0,14.4,11.7,26.1,26.1,26.1c0.5,0,1,0,1.5,0c1.8-0.1,3.7-0.3,5.4-0.7c-6.4,3.1-15.7,5.7-28.7,5.7l-44.8,0c0,0,42.7,77.5,50.6,94.8
	h-5.5v1.8h55.8v-1.8H-540.8z"/>
<g>
	<path fill="none" d="M-768,580.3c-5.2,2.4-28.4,7.5-28.4,33.9c0,6.2,0,15.9,0,22.2c0,30.2,27.2,32.8,37.5,25.1
		c0.6-0.6,1.2-1.2,1.9-1.8c8.1-8.4,12.7-19.4,12.7-30.4c0,0,0-55.9,0-75.2C-747.5,566.5-755.9,575.8-768,580.3z"/>
	<path d="M-704.2,669.8V557.5c0-36.4-23.4-51.7-44.5-54.2c-16-2-29.2-0.6-40.6,2.6c-13.2,3.4-27.6,9.7-35.5,21.4
		c-1.3,1.9-2.4,4-3.3,6.2c-1.3,3.1-2.1,6.6-2.1,10.2c0,0,0,0,0,0c0,1.8,0.2,3.6,0.5,5.3c2.4,11.9,12.9,20.8,25.5,20.8c0,0,0,0,0.1,0
		c14.4,0,26.1-11.7,26.1-26.1c0-0.9,0-1.8-0.1-2.6c-1.3-13.2-12.5-23.5-26-23.5c-5,0-9.7,1.4-13.6,3.8c5.2-4.6,13.3-9.8,26.1-13.5
		c22.2-4.8,47.1,8.4,47.1,35.3c-0.1,16.9-8.9,30.1-23.8,35.6c-8,3-14.5,1.5-29.5,5c-24.5,5.7-42.5,21.6-40.3,47.6
		c2,23.8,22.3,43.8,46.7,43.8c0.5,0,1.7,0,1.8,0c23.8-0.8,40.3-17.1,45.2-35.1c0,15,0,26.5,0,29.6h-5.9v1.8h51.9v-1.8H-704.2z
		 M-744.4,629.3c0,10.9-4.6,22-12.7,30.4c-0.6,0.6-1.2,1.2-1.9,1.8c-10.3,7.7-37.5,5.1-37.5-25.1c0-6.2,0-16,0-22.2
		c0-26.4,23.2-31.5,28.4-33.9c12.1-4.6,20.6-13.9,23.7-26.3C-744.3,573.4-744.4,629.3-744.4,629.3z"/>
</g>
<circle fill="#FFFFFF" cx="-534.7" cy="659.6" r="10.1"/>
</svg>
