<?xml version="1.0" encoding="utf-8"?>
<svg version="1.1" id="Layer_1" xmlns="http://www.w3.org/2000/svg" xmlns:xlink="http://www.w3.org/1999/xlink" x="0px" y="0px" viewBox="331.356 106.891 208.013 1789.13"
	 enable-background="new 331.356 106.891 208.013 1789.13" xml:space="preserve">
<g>
	<path fill="#231F20" d="M346.764,117.019c0,0,43.144,0,73.96,0c67.797,0,118.645,55.47,118.645,120.185
		c0,58.552,0,129.431,0,198.768l0,0v565.485C486.98,987.589,450,939.823,450,885.894c0-93.99,0-554.699,0-648.69
		c0-63.174-50.848-120.185-118.645-120.185H346.764L346.764,117.019z"/>
	<path fill="#231F20" d="M450,1765.709c0-93.991,0-554.7,0-648.69c0-53.93,36.979-101.695,89.368-115.563v625.578l0,0
		c0,49.307,0,97.072,0,138.675c0,63.174-50.848,120.185-118.645,120.185c-30.816,0-73.96,0-73.96,0h-15.408
		C399.153,1885.894,450,1828.883,450,1765.709z"/>
</g>
</svg>
