<?xml version="1.0" encoding="utf-8"?>
<svg version="1.1" id="Layer_1" xmlns="http://www.w3.org/2000/svg" xmlns:xlink="http://www.w3.org/1999/xlink" x="0px" y="0px" viewBox="356.009 102.543 209.553 1786.957" preserveAspectRatio="true">
	<title>New bracket</title>
<g>
	<path fill="#231F20" d="M548.613,112.354c0,0-43.143,0-73.96,0c-67.796,0-118.644,55.47-118.644,120.185
		c0,58.552,0,129.431,0,198.768l0,0v565.485c52.389-13.867,89.368-61.633,89.368-115.563c0-93.99,0-554.699,0-648.69
		c0-63.174,50.848-120.185,118.645-120.185H548.613z"/>
	<path fill="#231F20" d="M446.918,1759.504c0-93.99,0-554.699,0-648.69c0-53.929-36.98-101.694-89.368-115.562v625.577l0,0
		c0,49.307,0,97.072,0,138.675c0,63.175,50.848,120.186,118.644,120.186c30.816,0,73.96,0,73.96,0h15.408
		C496.225,1879.689,446.918,1822.679,446.918,1759.504z"/>
</g>
</svg>