<?xml version="1.0" encoding="utf-8"?>
<svg version="1.1" id="Layer_1" xmlns="http://www.w3.org/2000/svg" xmlns:xlink="http://www.w3.org/1999/xlink" x="0px" y="0px"
	 viewBox="0 0 106 98" enable-background="new 0 0 106 98" xml:space="preserve">

	<path d="M57.5,34c0.2,0.3,0.1,0.5,0.1,0.7c0,1.9,0,4,0,5.9c0,0.2,0,0.4,0,0.6c0.2,0.1,0.2-0.1,0.3-0.1
		c0.4-0.6,0.9-1.2,1.3-1.8c2.6-3.4,6.1-5.4,10.3-6.2c1.3-0.2,2.5-0.3,3.9-0.4c2.3,0,4.6,0.2,6.8,0.9C85,35,88.6,38,91,42.3
		c1.1,2.1,1.9,4.3,2.4,6.6c0.5,2.4,0.8,4.9,0.8,7.4c0,10.3,0,20.6,0,30.8c0,0.2,0,0.4,0,0.6c-0.1,0-0.3,0-0.4,0c-0.6,0-1.2,0-1.8,0
		c-5,0-9.9,0-14.9,0c-0.3,0-0.5,0-0.8,0c0-0.2,0-0.3,0-0.4c0-0.2,0-0.4,0-0.6c0-9.3,0-18.5,0-27.8c0-1.6-0.1-3.3-0.5-4.9
		c-0.2-1-0.5-1.9-1-2.8c-1.2-2.4-3.3-3.9-5.9-4.3c-1.4-0.2-2.8-0.2-4.2,0.2c-2,0.5-3.7,1.7-4.9,3.4c-0.7,0.8-1.2,1.8-1.6,2.8
		c-0.3,0.8-0.5,1.7-0.5,2.6c0,0.6-0.1,1.2-0.1,1.9c0,9.7,0,19.3,0,29c0,0.3,0,0.6,0,0.8l-0.1,0.1c0,0,0,0-0.1,0
		c-5.8,0-11.5,0-17.3,0c-0.1,0-0.2,0-0.3,0c0,0-0.1,0-0.1-0.1s0-0.1,0-0.2c0.1-17.8,0.1-35.6,0.1-53.5c0.1,0,0.2,0,0.4,0
		c0.3,0,0.5,0,0.8,0c5.3,0,10.6,0,15.9,0C57.1,33.9,57.3,34,57.5,34z"/>
	<path d="M29.9,87.9C29,88,12.6,88,12.1,87.9c0-0.1,0-0.2,0-0.4c0-0.1,0-0.3,0-0.4c0-17.4,0-34.8,0-52.1
		c0-0.3,0-0.5,0-0.8c0.2,0,0.3,0,0.4-0.1c0.1,0,0.2,0,0.3,0c5.5,0,11,0,16.5,0c0.2,0,0.4,0,0.6,0c0,0.1,0.1,0.2,0.1,0.3
		C30,35.9,29.9,87.2,29.9,87.9z"/>
	<path d="M31.1,17.2c-0.1,3-1,5.3-3.2,7.1c-1.2,1-2.5,1.6-4.1,2c-2.2,0.5-4.4,0.5-6.5-0.2c-3.2-1-5.2-3.1-6.1-6.3
		c-0.5-1.9-0.5-3.9,0.2-5.7c0.9-2.4,2.5-4.2,5-5.2c3-1.2,5.9-1.2,8.9-0.1c3.2,1.2,5,3.5,5.6,6.7C31,16.1,31,16.8,31.1,17.2z"/>

</svg>
