<?xml version="1.0" encoding="utf-8"?>
<svg version="1.1" id="Layer_1" xmlns="http://www.w3.org/2000/svg" xmlns:xlink="http://www.w3.org/1999/xlink" x="0px" y="0px"
	 viewBox="0 0 123.6 75.8" enable-background="new 0 0 123.6 75.8" xml:space="preserve">

	<path d="M69.6,51.9c-1,0-1.9,0.4-2.5,1.1s-0.9,1.7-0.7,2.7c0.3,1.9,2,3.6,4.1,3.6c1,0,1.9-0.4,2.5-1.1c0.6-0.7,0.9-1.7,0.7-2.7
		C73.4,53.5,71.7,51.9,69.6,51.9z"/>
	<path d="M120.3,31l-6.6-25.5l-0.4-1.6H4.8H4.4v68h109.3v-29c2-0.7,3.9-1.9,5-3.6C120.4,37,121,34.1,120.3,31z M109.9,68H8.3V15.9
		L12.8,32c2.2,7,6.9,11,13.4,11.5c1.1,0.1,2.2,0.1,3.3,0.1c6.8,0,11.7-1.6,16.5-3.1c3.7-1.2,7.2-2.3,11.4-2.5
		c4.3-0.3,8.3,3.3,9.1,7.7l0.2,1.6h4.7l-0.3-2.1c-0.3-2,0.2-4,1.3-5.3c1.1-1.3,2.8-1.9,4.8-1.8c4.3,0.3,8.1,1.4,12.2,2.5
		c5.2,1.5,10.6,3.1,17.3,3.1l0,0c1,0,2.1,0,3.2-0.1V68H109.9z M115.7,37c-0.5,0.7-1.2,1.2-2,1.7c-1,0.6-2.3,0.9-3.8,1.1
		c-0.1,0-0.2,0-0.2,0c-1,0.1-1.9,0.1-3,0.1l0,0c-6.2,0-11.3-1.5-16.3-3c-4.1-1.2-8.3-2.4-13-2.7c-0.2,0-0.5,0-0.7,0
		c-2.8,0-5.4,1.1-7.2,3.2c-0.6,0.7-1.1,1.5-1.5,2.4c-2.5-3.7-6.6-5.9-10.9-5.7c-4.6,0.3-8.5,1.5-12.3,2.7c-4.5,1.4-9.2,3-15.4,3
		c-1,0-2,0-3-0.1c-5-0.4-8.3-3.4-10.1-8.9L9.8,7.6h100h0.4l3.4,13l3,11.3C117.1,33.8,116.7,35.6,115.7,37z"/>

</svg>
