<?xml version="1.0" encoding="utf-8"?>
<svg version="1.1" id="Layer_1" xmlns="http://www.w3.org/2000/svg" xmlns:xlink="http://www.w3.org/1999/xlink" x="0px" y="0px"
     viewBox="0 0 601.4 112.3" enable-background="new 0 0 601.4 112.3" xml:space="preserve">

<g>
    <g>
        <path d="M265.1,77.5c-1,0-1.9,0.4-2.5,1.1c-0.6,0.7-0.9,1.7-0.7,2.7c0.3,1.9,2,3.5,4,3.5c1,0,1.9-0.4,2.5-1.1
            c0.6-0.7,0.9-1.7,0.7-2.7C268.8,79,267.1,77.5,265.1,77.5z"/>
        <path d="M314.9,56.9l-6.5-25.1l-0.4-1.6H201.4H201V97h107.4V68.5c2-0.7,3.8-1.9,4.9-3.5C315,62.8,315.6,60,314.9,56.9z
             M304.7,93.3h-99.9V42.1l4.5,15.8c2.2,6.9,6.8,10.8,13.2,11.3c1.1,0.1,2.2,0.1,3.2,0.1c6.7,0,11.5-1.6,16.2-3
            c3.6-1.2,7.1-2.3,11.2-2.5c4.2-0.3,8.2,3.2,8.9,7.6l0.2,1.6h4.6l-0.3-2.1c-0.3-2,0.2-3.9,1.3-5.2c1.1-1.3,2.8-1.9,4.7-1.8
            c4.2,0.3,8,1.4,12,2.5c5.1,1.5,10.4,3,17,3h0c1,0,2.1,0,3.1-0.1V93.3z M310.4,62.8c-0.5,0.7-1.2,1.2-2,1.7c-1,0.6-2.3,0.9-3.7,1.1
            c-0.1,0-0.2,0-0.2,0c-1,0.1-1.9,0.1-2.9,0.1h0c-6.1,0-11.1-1.5-16-2.9c-4-1.2-8.2-2.4-12.8-2.7c-0.2,0-0.5,0-0.7,0
            c-2.8,0-5.3,1.1-7.1,3.1c-0.6,0.7-1.1,1.5-1.5,2.4C261,62,257,59.8,252.8,60c-4.5,0.3-8.4,1.5-12.1,2.7c-4.4,1.4-9,2.9-15.1,2.9
            c-1,0-2,0-2.9-0.1c-4.9-0.4-8.2-3.3-9.9-8.7l-6.5-22.9h98.3h0.4l3.3,12.8l2.9,11.1C311.7,59.7,311.4,61.4,310.4,62.8z"/>
    </g>
</g>
</svg>
