<?xml version="1.0" encoding="utf-8"?>
<svg version="1.1" id="Layer_1" xmlns="http://www.w3.org/2000/svg" xmlns:xlink="http://www.w3.org/1999/xlink" x="0px" y="0px"
     viewBox="0 0 601.4 112.3" enable-background="new 0 0 601.4 112.3" xml:space="preserve">

<g>
    <path d="M585.8,1h-47.3c-3.4,0-6.2,2.6-6.2,5.7v94.9c0,3.1,2.8,5.7,6.2,5.7h47.3c3.4,0,6.2-2.6,6.2-5.7V6.7
        C592,3.6,589.2,1,585.8,1z M561.9,102.5c-3.2,0-5.7-2.6-5.7-5.7c0-3.2,2.6-5.7,5.7-5.7c3.2,0,5.7,2.6,5.7,5.7
        C567.6,100,565.1,102.5,561.9,102.5z M586.5,79.4L586.5,79.4c0,4.1-4.1,5.6-6.1,5.6c-4.8,0-7.8-2.8-12.1-2.8
        c-4.3,0-6.1,3.6-6.1,5.6l0,0.3h-0.6v-0.3c0-2.1-1.9-5.5-6.1-5.5c-4.3,0-7.4,2.8-12.1,2.8c-1.9,0-5.9-1.4-6-5.3l0,0V14l0,0
        c0.2-3.9,4.1-5.3,6-5.3c4.8,0,7.8,2.8,12.1,2.8c4.2,0,6.1-3.4,6.1-5.5V5.7h0.6l0,0.3c0,2,1.8,5.6,6.1,5.6c4.3,0,7.4-2.8,12.1-2.8
        c2,0,6.1,1.5,6.1,5.6l0,0V79.4z"/>
    
</g>
</svg>
