<?xml version="1.0" encoding="utf-8"?>
<!-- Generator: Adobe Illustrator 18.1.1, SVG Export Plug-In . SVG Version: 6.00 Build 0)  -->
<svg version="1.1" id="Layer_1" xmlns="http://www.w3.org/2000/svg" xmlns:xlink="http://www.w3.org/1999/xlink" x="0px" y="0px"
	 viewBox="0 0 77.1 125.1" enable-background="new 0 0 77.1 125.1" xml:space="preserve">

<path d="M62.4,7.8H14.2c-3.5,0-6.3,2.6-6.3,5.8v96.6c0,3.2,2.8,5.8,6.3,5.8h48.1c3.5,0,6.3-2.6,6.3-5.8V13.6
	C68.7,10.5,65.8,7.8,62.4,7.8z M38,111.1c-3.3,0-5.8-2.6-5.8-5.8c0-3.3,2.6-5.8,5.8-5.8c3.3,0,5.8,2.6,5.8,5.8
	C43.8,108.6,41.3,111.1,38,111.1z M63.1,87.6L63.1,87.6c0,4.2-4.2,5.7-6.2,5.7c-4.9,0-7.9-2.8-12.3-2.8s-6.2,3.7-6.2,5.7v0.3h-0.6
	v-0.3c0-2.1-1.9-5.6-6.2-5.6c-4.4,0-7.5,2.8-12.3,2.8c-1.9,0-6-1.4-6.1-5.4l0,0V21l0,0c0.2-4,4.2-5.4,6.1-5.4
	c4.9,0,7.9,2.8,12.3,2.8c4.3,0,6.2-3.5,6.2-5.6v-0.3h0.6v0.3c0,2,1.8,5.7,6.2,5.7s7.5-2.8,12.3-2.8c2,0,6.2,1.5,6.2,5.7l0,0V87.6z"
	/>

</svg>
