<?xml version="1.0" encoding="utf-8"?>
<svg version="1.1" id="Layer_1" xmlns="http://www.w3.org/2000/svg" xmlns:xlink="http://www.w3.org/1999/xlink" x="0px" y="0px"
     viewBox="0 0 125.2 88.3" enable-background="new 0 0 125.2 88.3" xml:space="preserve">

<g>
    <g>
        <path d="M116.7,29.6C116.7,29.6,116.7,29.5,116.7,29.6c0-6.3-4.5-11.6-10.4-12.8c-0.2-5.9-4-10.2-9.6-10.7
            c-0.9-0.1-1.8-0.1-2.7-0.1c-5.5,0-9.8,1.5-13.9,3c-3.2,1.1-6.2,2.2-9.7,2.5c-3.5,0.3-6.4-3.3-6.5-7.7l0-1.3h-3.3l0,1.3
            c0,4.4-3,7.9-6.5,7.7c-3.5-0.3-6.5-1.3-9.7-2.5c-4.1-1.5-8.3-3-13.9-3c-0.9,0-1.8,0-2.7,0.1c-5.6,0.5-9.4,4.8-9.6,10.7
            C12.6,18,8.2,23.3,8.2,29.5c0,0,0,0,0,0H6.9v7.8h1.3c0,2.6,1.2,4.9,3.1,6.3l7-6.3h11h6.2v-7.8h-1.3c0,0,0,0,0,0
            c0-7.1-5.6-12.8-12.7-13c0.3-4,3-7,6.6-7.2c0.2,0,0.4,0,0.7,0c3.9,0,9,1.6,14.8,4.6c1.6,0.8,3.3,1.7,5.2,2.4v4.4
            c0,5.1,2.8,9.5,7,11.8v12.4H37.6c0,41-20,41-20,41v11.3H107V86h-0.1c-1.8,0-19.9-1.3-19.9-41H68.9V32.5c4.2-2.3,7-6.7,7-11.8v-4.4
            c1.9-0.7,3.7-1.6,5.3-2.4c5.7-3,10.8-4.6,14.8-4.6c0.3,0,0.5,0,0.7,0c3.7,0.2,6.4,3.2,6.6,7.2c-7,0.2-12.6,6-12.6,13c0,0,0,0,0,0
            h-1.3v7.8h6.2h16.1h6.2v-7.8H116.7z M79.2,68.9c0,9.3-7.5,16.8-16.8,16.8c-9.3,0-16.8-7.5-16.8-16.8c0-9.3,7.5-16.8,16.8-16.8
            C71.6,52.1,79.2,59.6,79.2,68.9z M72.4,20.7c0,3.3-1.6,6.3-4.2,8.1c-1.1-2.2-3.3-3.7-5.9-3.7c-2.6,0-4.8,1.5-5.9,3.7
            c-2.5-1.8-4.2-4.8-4.2-8.1v-3.5c0.9,0.2,1.8,0.3,2.7,0.3c3,0,5.5-1.1,7.5-3.2c2,2.1,4.5,3.2,7.5,3.2c0.8,0,1.7-0.1,2.5-0.2V20.7z"
            />
        <circle cx="62.3" cy="68.9" r="8.4"/>
    </g>
</g>
</svg>
