<?xml version="1.0" encoding="utf-8"?>
<svg version="1.1" id="Layer_1" xmlns="http://www.w3.org/2000/svg" xmlns:xlink="http://www.w3.org/1999/xlink" x="0px" y="0px"
     viewBox="0 0 123.6 105.6" enable-background="new 0 0 123.6 105.6" xml:space="preserve">

    <path d="M116.7,31C116.7,31,116.7,30.9,116.7,31c0-6.4-4.6-11.8-10.6-13c-0.2-6-4.1-10.4-9.8-10.9
        C95.4,7,94.5,7,93.6,7C88,7,83.6,8.5,79.4,10c-3.3,1.1-6.3,2.2-9.9,2.5C66,12.9,63,9.2,62.9,4.7V3.4h-3.4v1.3c0,4.5-3.1,8-6.6,7.8
        c-3.6-0.3-6.6-1.3-9.9-2.5C38.9,8.5,34.6,7,28.9,7c-0.9,0-1.8,0-2.7,0.1C20.5,7.6,16.6,12,16.4,18c-5.7,1.2-10.2,6.6-10.2,12.9l0,0
        H4.9v7.9h1.3c0,2.6,1.2,5,3.2,6.4l7.1-6.4h11.2H34v-7.9h-1.3l0,0c0-7.2-5.7-13-12.9-13.2c0.3-4.1,3.1-7.1,6.7-7.3
        c0.2,0,0.4,0,0.7,0c4,0,9.2,1.6,15.1,4.7c1.6,0.8,3.4,1.7,5.3,2.4v4.5c0,5.2,2.8,9.7,7.1,12v12.6H36.2c0,41.7-20.4,41.7-20.4,41.7
        v11.5h91V88.4h-0.1c-1.8,0-20.3-1.3-20.3-41.7H68V33.9c4.3-2.3,7.1-6.8,7.1-12v-4.5c1.9-0.7,3.8-1.6,5.4-2.4
        c5.8-3.1,11-4.7,15.1-4.7c0.3,0,0.5,0,0.7,0c3.8,0.2,6.5,3.3,6.7,7.3c-7.1,0.2-12.8,6.1-12.8,13.2l0,0h-1.3v7.9h6.3h16.4h6.3v-7.9
        h-1.2V31z M78.5,71c0,9.5-7.6,17.1-17.1,17.1S44.3,80.4,44.3,71s7.6-17.1,17.1-17.1C70.8,53.9,78.5,61.5,78.5,71z M71.6,21.9
        c0,3.4-1.6,6.4-4.3,8.2c-1.1-2.2-3.4-3.8-6-3.8c-2.6,0-4.9,1.5-6,3.8c-2.5-1.8-4.3-4.9-4.3-8.2v-3.6c0.9,0.2,1.8,0.3,2.7,0.3
        c3.1,0,5.6-1.1,7.6-3.3c2,2.1,4.6,3.3,7.6,3.3c0.8,0,1.7-0.1,2.5-0.2V21.9z"/>
    <circle cx="61.3" cy="71" r="8.5"/>
</svg>
