<?xml version="1.0" encoding="utf-8"?>
<!-- Generator: Adobe Illustrator 18.1.1, SVG Export Plug-In . SVG Version: 6.00 Build 0)  -->
<svg version="1.1" id="Layer_1" xmlns="http://www.w3.org/2000/svg" xmlns:xlink="http://www.w3.org/1999/xlink" x="0px" y="0px"
     viewBox="0 0 129.4 84.7" enable-background="new 0 0 129.4 84.7" xml:space="preserve">

<g>
    <path d="M64.5,5c9.2,0,16,7.5,16,16c0,12.5,0-9,0,3.5c0,8.5,6.8,16,16,16h12c-9.2,0-16-7.5-16-16c0-12.5,0,9,0-3.5
        c0-8.5-6.8-16-16-16c-4,0-9.8,0-9.8,0"/>
    <path d="M64.5,76.2c9.2,0,16-7.5,16-16c0-12.5,0,9,0-3.5c0-8.5,6.8-16,16-16h12c-9.2,0-16,7.5-16,16
        c0,12.5,0-9,0,3.5c0,8.5-6.8,16-16,16c-4,0-9.8,0-9.8,0"/>
    <path d="M50.4,40c0-4,3.2-7.2,7.2-7.2c4,0,7.2,3.2,7.2,7.2c0,4-3.2,7.2-7.2,7.2C53.7,47.2,50.4,44,50.4,40z"/>
    <path d="M21.9,40c0-4,3.2-7.2,7.2-7.2c4,0,7.2,3.2,7.2,7.2c0,4-3.2,7.2-7.2,7.2C25.1,47.2,21.9,44,21.9,40z"/>
</g>
</svg>
