<?xml version="1.0" encoding="utf-8"?>
<!-- Generator: Adobe Illustrator 18.1.1, SVG Export Plug-In . SVG Version: 6.00 Build 0)  -->
<svg version="1.1" id="Layer_1" xmlns="http://www.w3.org/2000/svg" xmlns:xlink="http://www.w3.org/1999/xlink" x="0px" y="0px"
     viewBox="0 0 85.4 108.8" enable-background="new 0 0 85.4 108.8" xml:space="preserve">

<g>
    <rect x="26.2" y="67.9" transform="matrix(0.8084 0.5886 -0.5886 0.8084 49.3337 -9.9044)" width="27.4" height="5.8"/>
    <rect x="26.2" y="34.7" transform="matrix(0.8084 -0.5886 0.5886 0.8084 -14.4835 30.677)" width="27.4" height="5.8"/>
    <path d="M20.6,37.1c-9.3,0-16.8,7.5-16.8,16.8c0,9.3,7.5,16.8,16.8,16.8c9.3,0,16.8-7.5,16.8-16.8
        C37.4,44.6,29.9,37.1,20.6,37.1z M20.6,64.1c-5.6,0-10.1-4.5-10.1-10.1c0-5.6,4.5-10.1,10.1-10.1c5.6,0,10.1,4.5,10.1,10.1
        C30.7,59.5,26.2,64.1,20.6,64.1z"/>
    <path d="M60.6,6.1c-9.3,0-16.8,7.5-16.8,16.8c0,9.3,7.5,16.8,16.8,16.8c9.3,0,16.8-7.5,16.8-16.8
        C77.4,13.6,69.9,6.1,60.6,6.1z M60.6,33.1c-5.6,0-10.1-4.5-10.1-10.1c0-5.6,4.5-10.1,10.1-10.1c5.6,0,10.1,4.5,10.1,10.1
        C70.7,28.5,66.2,33.1,60.6,33.1z"/>
    <path d="M60.6,68.1c-9.3,0-16.8,7.5-16.8,16.8c0,9.3,7.5,16.8,16.8,16.8c9.3,0,16.8-7.5,16.8-16.8
        C77.4,75.6,69.9,68.1,60.6,68.1z M60.6,95.1c-5.6,0-10.1-4.5-10.1-10.1c0-5.6,4.5-10.1,10.1-10.1c5.6,0,10.1,4.5,10.1,10.1
        C70.7,90.5,66.2,95.1,60.6,95.1z"/>
</g>
</svg>
