<?xml version="1.0" encoding="utf-8"?>
<svg version="1.1" id="Layer_1" xmlns="http://www.w3.org/2000/svg" xmlns:xlink="http://www.w3.org/1999/xlink" x="0px" y="0px"
     viewBox="0 0 107.4 84.7" enable-background="new 0 0 107.4 84.7" xml:space="preserve">

<path d="M93.6,16.3c-3,1.3-6.2,2.2-9.5,2.6c3.4-2,6-5.3,7.3-9.2c-3.2,1.9-6.7,3.3-10.5,4c-3-3.2-7.3-5.2-12.1-5.2
    c-9.1,0-16.6,7.4-16.6,16.6c0,1.3,0.1,2.6,0.4,3.8c-13.8-0.7-26-7.3-34.1-17.3c-1.4,2.4-2.2,5.3-2.2,8.3c0,5.7,2.9,10.8,7.4,13.8
    c-2.7-0.1-5.3-0.8-7.5-2.1c0,0.1,0,0.1,0,0.2c0,8,5.7,14.7,13.3,16.2c-1.4,0.4-2.9,0.6-4.4,0.6c-1.1,0-2.1-0.1-3.1-0.3
    c2.1,6.6,8.2,11.4,15.5,11.5c-5.7,4.4-12.8,7.1-20.6,7.1c-1.3,0-2.7-0.1-4-0.2c7.3,4.7,16,7.4,25.4,7.4c30.5,0,47.1-25.2,47.1-47.1
    c0-0.7,0-1.4,0-2.1C88.6,22.5,91.4,19.6,93.6,16.3z"/>
</svg>
